<?xml version="1.0" encoding="utf-8"?>
<svg xmlns="http://www.w3.org/2000/svg" xmlns:xlink="http://www.w3.org/1999/xlink" width="700" height="500" viewBox="0 0 2800 2000">
<defs>
  <clipPath id="clip900">
    <rect x="0" y="0" width="2800" height="2000"/>
  </clipPath>
</defs>
<path clip-path="url(#clip900)" d="M0 2000 L2800 2000 L2800 0 L0 0  Z" fill="#ffffff" fill-rule="evenodd" fill-opacity="1"/>
<defs>
  <clipPath id="clip901">
    <rect x="230" y="47" width="2524" height="1754"/>
  </clipPath>
</defs>
<path clip-path="url(#clip900)" d="M230.085 1800.16 L2752.76 1800.16 L2752.76 47.2441 L230.085 47.2441  Z" fill="#ffffff" fill-rule="evenodd" fill-opacity="1"/>
<polyline clip-path="url(#clip901)" style="stroke:#000000; stroke-linecap:round; stroke-linejoin:round; stroke-width:2; stroke-opacity:0.1; fill:none" points="301.481,1800.16 301.481,47.2441 "/>
<polyline clip-path="url(#clip901)" style="stroke:#000000; stroke-linecap:round; stroke-linejoin:round; stroke-width:2; stroke-opacity:0.1; fill:none" points="981.446,1800.16 981.446,47.2441 "/>
<polyline clip-path="url(#clip901)" style="stroke:#000000; stroke-linecap:round; stroke-linejoin:round; stroke-width:2; stroke-opacity:0.1; fill:none" points="1661.41,1800.16 1661.41,47.2441 "/>
<polyline clip-path="url(#clip901)" style="stroke:#000000; stroke-linecap:round; stroke-linejoin:round; stroke-width:2; stroke-opacity:0.1; fill:none" points="2341.38,1800.16 2341.38,47.2441 "/>
<polyline clip-path="url(#clip901)" style="stroke:#000000; stroke-linecap:round; stroke-linejoin:round; stroke-width:2; stroke-opacity:0.1; fill:none" points="230.085,1766.58 2752.76,1766.58 "/>
<polyline clip-path="url(#clip901)" style="stroke:#000000; stroke-linecap:round; stroke-linejoin:round; stroke-width:2; stroke-opacity:0.1; fill:none" points="230.085,1331.85 2752.76,1331.85 "/>
<polyline clip-path="url(#clip901)" style="stroke:#000000; stroke-linecap:round; stroke-linejoin:round; stroke-width:2; stroke-opacity:0.1; fill:none" points="230.085,897.124 2752.76,897.124 "/>
<polyline clip-path="url(#clip901)" style="stroke:#000000; stroke-linecap:round; stroke-linejoin:round; stroke-width:2; stroke-opacity:0.1; fill:none" points="230.085,462.397 2752.76,462.397 "/>
<polyline clip-path="url(#clip900)" style="stroke:#000000; stroke-linecap:round; stroke-linejoin:round; stroke-width:4; stroke-opacity:1; fill:none" points="230.085,1800.16 2752.76,1800.16 "/>
<polyline clip-path="url(#clip900)" style="stroke:#000000; stroke-linecap:round; stroke-linejoin:round; stroke-width:4; stroke-opacity:1; fill:none" points="301.481,1800.16 301.481,1781.26 "/>
<polyline clip-path="url(#clip900)" style="stroke:#000000; stroke-linecap:round; stroke-linejoin:round; stroke-width:4; stroke-opacity:1; fill:none" points="981.446,1800.16 981.446,1781.26 "/>
<polyline clip-path="url(#clip900)" style="stroke:#000000; stroke-linecap:round; stroke-linejoin:round; stroke-width:4; stroke-opacity:1; fill:none" points="1661.41,1800.16 1661.41,1781.26 "/>
<polyline clip-path="url(#clip900)" style="stroke:#000000; stroke-linecap:round; stroke-linejoin:round; stroke-width:4; stroke-opacity:1; fill:none" points="2341.38,1800.16 2341.38,1781.26 "/>
<path clip-path="url(#clip900)" d="M267.254 1877.48 L274.893 1877.48 L274.893 1851.12 L266.582 1852.78 L266.582 1848.52 L274.846 1846.86 L279.522 1846.86 L279.522 1877.48 L287.161 1877.48 L287.161 1881.42 L267.254 1881.42 L267.254 1877.48 Z" fill="#000000" fill-rule="nonzero" fill-opacity="1" /><path clip-path="url(#clip900)" d="M306.605 1849.94 Q302.994 1849.94 301.166 1853.5 Q299.36 1857.04 299.36 1864.17 Q299.36 1871.28 301.166 1874.84 Q302.994 1878.38 306.605 1878.38 Q310.24 1878.38 312.045 1874.84 Q313.874 1871.28 313.874 1864.17 Q313.874 1857.04 312.045 1853.5 Q310.24 1849.94 306.605 1849.94 M306.605 1846.23 Q312.416 1846.23 315.471 1850.84 Q318.55 1855.42 318.55 1864.17 Q318.55 1872.9 315.471 1877.5 Q312.416 1882.09 306.605 1882.09 Q300.795 1882.09 297.717 1877.5 Q294.661 1872.9 294.661 1864.17 Q294.661 1855.42 297.717 1850.84 Q300.795 1846.23 306.605 1846.23 Z" fill="#000000" fill-rule="nonzero" fill-opacity="1" /><path clip-path="url(#clip900)" d="M323.12 1850.81 L336.38 1850.81 L336.38 1854.01 L318.55 1854.01 L318.55 1850.81 Q320.713 1848.57 324.437 1844.81 Q328.179 1841.03 329.139 1839.94 Q330.963 1837.89 331.678 1836.48 Q332.411 1835.05 332.411 1833.67 Q332.411 1831.44 330.831 1830.03 Q329.27 1828.62 326.75 1828.62 Q324.963 1828.62 322.97 1829.24 Q320.995 1829.86 318.738 1831.12 L318.738 1827.28 Q321.032 1826.36 323.026 1825.89 Q325.02 1825.42 326.675 1825.42 Q331.038 1825.42 333.634 1827.6 Q336.229 1829.78 336.229 1833.43 Q336.229 1835.16 335.571 1836.72 Q334.931 1838.26 333.22 1840.37 Q332.75 1840.92 330.229 1843.53 Q327.709 1846.13 323.12 1850.81 Z" fill="#000000" fill-rule="nonzero" fill-opacity="1" /><path clip-path="url(#clip900)" d="M945.902 1877.48 L953.541 1877.48 L953.541 1851.12 L945.231 1852.78 L945.231 1848.52 L953.495 1846.86 L958.171 1846.86 L958.171 1877.48 L965.81 1877.48 L965.81 1881.42 L945.902 1881.42 L945.902 1877.48 Z" fill="#000000" fill-rule="nonzero" fill-opacity="1" /><path clip-path="url(#clip900)" d="M985.254 1849.94 Q981.643 1849.94 979.814 1853.5 Q978.009 1857.04 978.009 1864.17 Q978.009 1871.28 979.814 1874.84 Q981.643 1878.38 985.254 1878.38 Q988.888 1878.38 990.694 1874.84 Q992.523 1871.28 992.523 1864.17 Q992.523 1857.04 990.694 1853.5 Q988.888 1849.94 985.254 1849.94 M985.254 1846.23 Q991.064 1846.23 994.12 1850.84 Q997.199 1855.42 997.199 1864.17 Q997.199 1872.9 994.12 1877.5 Q991.064 1882.09 985.254 1882.09 Q979.444 1882.09 976.365 1877.5 Q973.31 1872.9 973.31 1864.17 Q973.31 1855.42 976.365 1850.84 Q979.444 1846.23 985.254 1846.23 Z" fill="#000000" fill-rule="nonzero" fill-opacity="1" /><path clip-path="url(#clip900)" d="M1009.87 1829.24 L1000.28 1844.23 L1009.87 1844.23 L1009.87 1829.24 M1008.88 1825.93 L1013.66 1825.93 L1013.66 1844.23 L1017.66 1844.23 L1017.66 1847.39 L1013.66 1847.39 L1013.66 1854.01 L1009.87 1854.01 L1009.87 1847.39 L997.199 1847.39 L997.199 1843.72 L1008.88 1825.93 Z" fill="#000000" fill-rule="nonzero" fill-opacity="1" /><path clip-path="url(#clip900)" d="M1626.4 1877.48 L1634.04 1877.48 L1634.04 1851.12 L1625.73 1852.78 L1625.73 1848.52 L1634 1846.86 L1638.67 1846.86 L1638.67 1877.48 L1646.31 1877.48 L1646.31 1881.42 L1626.4 1881.42 L1626.4 1877.48 Z" fill="#000000" fill-rule="nonzero" fill-opacity="1" /><path clip-path="url(#clip900)" d="M1665.76 1849.94 Q1662.14 1849.94 1660.32 1853.5 Q1658.51 1857.04 1658.51 1864.17 Q1658.51 1871.28 1660.32 1874.84 Q1662.14 1878.38 1665.76 1878.38 Q1669.39 1878.38 1671.2 1874.84 Q1673.02 1871.28 1673.02 1864.17 Q1673.02 1857.04 1671.2 1853.5 Q1669.39 1849.94 1665.76 1849.94 M1665.76 1846.23 Q1671.57 1846.23 1674.62 1850.84 Q1677.7 1855.42 1677.7 1864.17 Q1677.7 1872.9 1674.62 1877.5 Q1671.57 1882.09 1665.76 1882.09 Q1659.95 1882.09 1656.87 1877.5 Q1653.81 1872.9 1653.81 1864.17 Q1653.81 1855.42 1656.87 1850.84 Q1659.95 1846.23 1665.76 1846.23 Z" fill="#000000" fill-rule="nonzero" fill-opacity="1" /><path clip-path="url(#clip900)" d="M1687.72 1838.45 Q1685.17 1838.45 1683.66 1840.2 Q1682.18 1841.95 1682.18 1845 Q1682.18 1848.03 1683.66 1849.79 Q1685.17 1851.54 1687.72 1851.54 Q1690.28 1851.54 1691.77 1849.79 Q1693.27 1848.03 1693.27 1845 Q1693.27 1841.95 1691.77 1840.2 Q1690.28 1838.45 1687.72 1838.45 M1695.27 1826.55 L1695.27 1830.01 Q1693.84 1829.33 1692.37 1828.97 Q1690.92 1828.62 1689.49 1828.62 Q1685.73 1828.62 1683.74 1831.15 Q1681.76 1833.69 1681.48 1838.83 Q1682.59 1837.19 1684.26 1836.33 Q1685.94 1835.44 1687.95 1835.44 Q1692.18 1835.44 1694.63 1838.02 Q1697.09 1840.58 1697.09 1845 Q1697.09 1849.32 1694.53 1851.94 Q1691.97 1854.55 1687.72 1854.55 Q1682.85 1854.55 1680.28 1850.83 Q1677.7 1847.08 1677.7 1839.99 Q1677.7 1833.34 1680.86 1829.39 Q1684.02 1825.42 1689.34 1825.42 Q1690.77 1825.42 1692.22 1825.7 Q1693.69 1825.98 1695.27 1826.55 Z" fill="#000000" fill-rule="nonzero" fill-opacity="1" /><path clip-path="url(#clip900)" d="M2306.43 1877.48 L2314.07 1877.48 L2314.07 1851.12 L2305.76 1852.78 L2305.76 1848.52 L2314.03 1846.86 L2318.7 1846.86 L2318.7 1877.48 L2326.34 1877.48 L2326.34 1881.42 L2306.43 1881.42 L2306.43 1877.48 Z" fill="#000000" fill-rule="nonzero" fill-opacity="1" /><path clip-path="url(#clip900)" d="M2345.79 1849.94 Q2342.18 1849.94 2340.35 1853.5 Q2338.54 1857.04 2338.54 1864.17 Q2338.54 1871.28 2340.35 1874.84 Q2342.18 1878.38 2345.79 1878.38 Q2349.42 1878.38 2351.23 1874.84 Q2353.06 1871.28 2353.06 1864.17 Q2353.06 1857.04 2351.23 1853.5 Q2349.42 1849.94 2345.79 1849.94 M2345.79 1846.23 Q2351.6 1846.23 2354.65 1850.84 Q2357.73 1855.42 2357.73 1864.17 Q2357.73 1872.9 2354.65 1877.5 Q2351.6 1882.09 2345.79 1882.09 Q2339.98 1882.09 2336.9 1877.5 Q2333.84 1872.9 2333.84 1864.17 Q2333.84 1855.42 2336.9 1850.84 Q2339.98 1846.23 2345.79 1846.23 Z" fill="#000000" fill-rule="nonzero" fill-opacity="1" /><path clip-path="url(#clip900)" d="M2367.36 1840.67 Q2364.65 1840.67 2363.09 1842.12 Q2361.55 1843.57 2361.55 1846.11 Q2361.55 1848.65 2363.09 1850.09 Q2364.65 1851.54 2367.36 1851.54 Q2370.07 1851.54 2371.63 1850.09 Q2373.19 1848.63 2373.19 1846.11 Q2373.19 1843.57 2371.63 1842.12 Q2370.09 1840.67 2367.36 1840.67 M2363.56 1839.05 Q2361.12 1838.45 2359.74 1836.78 Q2358.39 1835.1 2358.39 1832.7 Q2358.39 1829.33 2360.78 1827.37 Q2363.19 1825.42 2367.36 1825.42 Q2371.55 1825.42 2373.94 1827.37 Q2376.33 1829.33 2376.33 1832.7 Q2376.33 1835.1 2374.96 1836.78 Q2373.6 1838.45 2371.18 1839.05 Q2373.92 1839.69 2375.45 1841.56 Q2376.99 1843.42 2376.99 1846.11 Q2376.99 1850.19 2374.49 1852.37 Q2372.01 1854.55 2367.36 1854.55 Q2362.72 1854.55 2360.21 1852.37 Q2357.73 1850.19 2357.73 1846.11 Q2357.73 1843.42 2359.27 1841.56 Q2360.82 1839.69 2363.56 1839.05 M2362.17 1833.05 Q2362.17 1835.24 2363.52 1836.46 Q2364.9 1837.68 2367.36 1837.68 Q2369.81 1837.68 2371.18 1836.46 Q2372.57 1835.24 2372.57 1833.05 Q2372.57 1830.87 2371.18 1829.65 Q2369.81 1828.43 2367.36 1828.43 Q2364.9 1828.43 2363.52 1829.65 Q2362.17 1830.87 2362.17 1833.05 Z" fill="#000000" fill-rule="nonzero" fill-opacity="1" /><path clip-path="url(#clip900)" d="M1458.99 1923.48 L1458.99 1929.76 Q1455.33 1928 1452.08 1927.15 Q1448.83 1926.29 1445.81 1926.29 Q1440.56 1926.29 1437.69 1928.32 Q1434.86 1930.36 1434.86 1934.12 Q1434.86 1937.27 1436.74 1938.89 Q1438.65 1940.48 1443.93 1941.47 L1447.82 1942.26 Q1455.01 1943.63 1458.41 1947.1 Q1461.85 1950.54 1461.85 1956.33 Q1461.85 1963.24 1457.2 1966.8 Q1452.59 1970.37 1443.65 1970.37 Q1440.27 1970.37 1436.45 1969.6 Q1432.66 1968.84 1428.59 1967.34 L1428.59 1960.72 Q1432.51 1962.92 1436.26 1964.03 Q1440.02 1965.15 1443.65 1965.15 Q1449.15 1965.15 1452.14 1962.98 Q1455.14 1960.82 1455.14 1956.81 Q1455.14 1953.31 1452.97 1951.33 Q1450.84 1949.36 1445.94 1948.37 L1442.02 1947.61 Q1434.83 1946.18 1431.61 1943.12 Q1428.4 1940.07 1428.4 1934.62 Q1428.4 1928.32 1432.82 1924.69 Q1437.28 1921.07 1445.08 1921.07 Q1448.42 1921.07 1451.89 1921.67 Q1455.36 1922.28 1458.99 1923.48 Z" fill="#000000" fill-rule="nonzero" fill-opacity="1" /><path clip-path="url(#clip900)" d="M1471.62 1933.8 L1477.48 1933.8 L1477.48 1969.45 L1471.62 1969.45 L1471.62 1933.8 M1471.62 1919.92 L1477.48 1919.92 L1477.48 1927.34 L1471.62 1927.34 L1471.62 1919.92 Z" fill="#000000" fill-rule="nonzero" fill-opacity="1" /><path clip-path="url(#clip900)" d="M1487.19 1933.8 L1515.01 1933.8 L1515.01 1939.14 L1492.98 1964.77 L1515.01 1964.77 L1515.01 1969.45 L1486.39 1969.45 L1486.39 1964.1 L1508.42 1938.48 L1487.19 1938.48 L1487.19 1933.8 Z" fill="#000000" fill-rule="nonzero" fill-opacity="1" /><path clip-path="url(#clip900)" d="M1554.44 1950.16 L1554.44 1953.02 L1527.51 1953.02 Q1527.9 1959.07 1531.14 1962.25 Q1534.42 1965.4 1540.25 1965.4 Q1543.62 1965.4 1546.77 1964.58 Q1549.95 1963.75 1553.07 1962.09 L1553.07 1967.63 Q1549.92 1968.97 1546.61 1969.67 Q1543.3 1970.37 1539.9 1970.37 Q1531.37 1970.37 1526.37 1965.4 Q1521.4 1960.44 1521.4 1951.97 Q1521.4 1943.22 1526.11 1938.09 Q1530.86 1932.94 1538.88 1932.94 Q1546.07 1932.94 1550.24 1937.58 Q1554.44 1942.2 1554.44 1950.16 M1548.58 1948.44 Q1548.52 1943.63 1545.88 1940.77 Q1543.27 1937.9 1538.94 1937.9 Q1534.04 1937.9 1531.08 1940.67 Q1528.15 1943.44 1527.7 1948.47 L1548.58 1948.44 Z" fill="#000000" fill-rule="nonzero" fill-opacity="1" /><polyline clip-path="url(#clip900)" style="stroke:#000000; stroke-linecap:round; stroke-linejoin:round; stroke-width:4; stroke-opacity:1; fill:none" points="230.085,1800.16 230.085,47.2441 "/>
<polyline clip-path="url(#clip900)" style="stroke:#000000; stroke-linecap:round; stroke-linejoin:round; stroke-width:4; stroke-opacity:1; fill:none" points="230.085,1766.58 248.982,1766.58 "/>
<polyline clip-path="url(#clip900)" style="stroke:#000000; stroke-linecap:round; stroke-linejoin:round; stroke-width:4; stroke-opacity:1; fill:none" points="230.085,1331.85 248.982,1331.85 "/>
<polyline clip-path="url(#clip900)" style="stroke:#000000; stroke-linecap:round; stroke-linejoin:round; stroke-width:4; stroke-opacity:1; fill:none" points="230.085,897.124 248.982,897.124 "/>
<polyline clip-path="url(#clip900)" style="stroke:#000000; stroke-linecap:round; stroke-linejoin:round; stroke-width:4; stroke-opacity:1; fill:none" points="230.085,462.397 248.982,462.397 "/>
<path clip-path="url(#clip900)" d="M118.959 1786.37 L126.598 1786.37 L126.598 1760 L118.288 1761.67 L118.288 1757.41 L126.551 1755.74 L131.227 1755.74 L131.227 1786.37 L138.866 1786.37 L138.866 1790.3 L118.959 1790.3 L118.959 1786.37 Z" fill="#000000" fill-rule="nonzero" fill-opacity="1" /><path clip-path="url(#clip900)" d="M158.31 1758.82 Q154.699 1758.82 152.871 1762.39 Q151.065 1765.93 151.065 1773.06 Q151.065 1780.17 152.871 1783.73 Q154.699 1787.27 158.31 1787.27 Q161.945 1787.27 163.75 1783.73 Q165.579 1780.17 165.579 1773.06 Q165.579 1765.93 163.75 1762.39 Q161.945 1758.82 158.31 1758.82 M158.31 1755.12 Q164.121 1755.12 167.176 1759.73 Q170.255 1764.31 170.255 1773.06 Q170.255 1781.79 167.176 1786.39 Q164.121 1790.98 158.31 1790.98 Q152.5 1790.98 149.422 1786.39 Q146.366 1781.79 146.366 1773.06 Q146.366 1764.31 149.422 1759.73 Q152.5 1755.12 158.31 1755.12 Z" fill="#000000" fill-rule="nonzero" fill-opacity="1" /><path clip-path="url(#clip900)" d="M174.825 1759.7 L188.085 1759.7 L188.085 1762.89 L170.255 1762.89 L170.255 1759.7 Q172.418 1757.46 176.142 1753.7 Q179.884 1749.92 180.844 1748.83 Q182.668 1746.78 183.383 1745.37 Q184.116 1743.94 184.116 1742.56 Q184.116 1740.33 182.536 1738.91 Q180.975 1737.5 178.455 1737.5 Q176.668 1737.5 174.675 1738.12 Q172.7 1738.75 170.443 1740.01 L170.443 1736.17 Q172.737 1735.25 174.731 1734.78 Q176.725 1734.31 178.38 1734.31 Q182.743 1734.31 185.339 1736.49 Q187.934 1738.67 187.934 1742.32 Q187.934 1744.05 187.276 1745.61 Q186.636 1747.15 184.925 1749.26 Q184.455 1749.8 181.934 1752.42 Q179.414 1755.01 174.825 1759.7 Z" fill="#000000" fill-rule="nonzero" fill-opacity="1" /><path clip-path="url(#clip900)" d="M116.326 1351.64 L123.965 1351.64 L123.965 1325.28 L115.654 1326.94 L115.654 1322.68 L123.918 1321.02 L128.594 1321.02 L128.594 1351.64 L136.233 1351.64 L136.233 1355.58 L116.326 1355.58 L116.326 1351.64 Z" fill="#000000" fill-rule="nonzero" fill-opacity="1" /><path clip-path="url(#clip900)" d="M155.677 1324.1 Q152.066 1324.1 150.238 1327.66 Q148.432 1331.2 148.432 1338.33 Q148.432 1345.44 150.238 1349 Q152.066 1352.55 155.677 1352.55 Q159.312 1352.55 161.117 1349 Q162.946 1345.44 162.946 1338.33 Q162.946 1331.2 161.117 1327.66 Q159.312 1324.1 155.677 1324.1 M155.677 1320.39 Q161.488 1320.39 164.543 1325 Q167.622 1329.58 167.622 1338.33 Q167.622 1347.06 164.543 1351.67 Q161.488 1356.25 155.677 1356.25 Q149.867 1356.25 146.789 1351.67 Q143.733 1347.06 143.733 1338.33 Q143.733 1329.58 146.789 1325 Q149.867 1320.39 155.677 1320.39 Z" fill="#000000" fill-rule="nonzero" fill-opacity="1" /><path clip-path="url(#clip900)" d="M180.298 1303.4 L170.706 1318.39 L180.298 1318.39 L180.298 1303.4 M179.301 1300.09 L184.079 1300.09 L184.079 1318.39 L188.085 1318.39 L188.085 1321.55 L184.079 1321.55 L184.079 1328.17 L180.298 1328.17 L180.298 1321.55 L167.622 1321.55 L167.622 1317.88 L179.301 1300.09 Z" fill="#000000" fill-rule="nonzero" fill-opacity="1" /><path clip-path="url(#clip900)" d="M117.398 916.916 L125.037 916.916 L125.037 890.551 L116.726 892.217 L116.726 887.958 L124.99 886.291 L129.666 886.291 L129.666 916.916 L137.305 916.916 L137.305 920.851 L117.398 920.851 L117.398 916.916 Z" fill="#000000" fill-rule="nonzero" fill-opacity="1" /><path clip-path="url(#clip900)" d="M156.749 889.37 Q153.138 889.37 151.31 892.935 Q149.504 896.477 149.504 903.606 Q149.504 910.713 151.31 914.277 Q153.138 917.819 156.749 917.819 Q160.384 917.819 162.189 914.277 Q164.018 910.713 164.018 903.606 Q164.018 896.477 162.189 892.935 Q160.384 889.37 156.749 889.37 M156.749 885.666 Q162.56 885.666 165.615 890.273 Q168.694 894.856 168.694 903.606 Q168.694 912.333 165.615 916.939 Q162.56 921.523 156.749 921.523 Q150.939 921.523 147.861 916.939 Q144.805 912.333 144.805 903.606 Q144.805 894.856 147.861 890.273 Q150.939 885.666 156.749 885.666 Z" fill="#000000" fill-rule="nonzero" fill-opacity="1" /><path clip-path="url(#clip900)" d="M178.718 877.887 Q176.16 877.887 174.656 879.636 Q173.17 881.385 173.17 884.432 Q173.17 887.46 174.656 889.228 Q176.16 890.977 178.718 890.977 Q181.276 890.977 182.762 889.228 Q184.267 887.46 184.267 884.432 Q184.267 881.385 182.762 879.636 Q181.276 877.887 178.718 877.887 M186.26 865.982 L186.26 869.442 Q184.831 868.765 183.364 868.408 Q181.916 868.051 180.486 868.051 Q176.725 868.051 174.731 870.59 Q172.756 873.129 172.474 878.263 Q173.584 876.627 175.258 875.762 Q176.932 874.878 178.944 874.878 Q183.176 874.878 185.621 877.454 Q188.085 880.012 188.085 884.432 Q188.085 888.758 185.527 891.372 Q182.969 893.986 178.718 893.986 Q173.847 893.986 171.27 890.263 Q168.694 886.52 168.694 879.429 Q168.694 872.771 171.854 868.822 Q175.013 864.853 180.336 864.853 Q181.765 864.853 183.213 865.135 Q184.68 865.417 186.26 865.982 Z" fill="#000000" fill-rule="nonzero" fill-opacity="1" /><path clip-path="url(#clip900)" d="M117.529 482.19 L125.168 482.19 L125.168 455.824 L116.858 457.491 L116.858 453.231 L125.122 451.565 L129.798 451.565 L129.798 482.19 L137.437 482.19 L137.437 486.125 L117.529 486.125 L117.529 482.19 Z" fill="#000000" fill-rule="nonzero" fill-opacity="1" /><path clip-path="url(#clip900)" d="M156.881 454.643 Q153.27 454.643 151.441 458.208 Q149.636 461.75 149.636 468.879 Q149.636 475.986 151.441 479.551 Q153.27 483.092 156.881 483.092 Q160.515 483.092 162.321 479.551 Q164.15 475.986 164.15 468.879 Q164.15 461.75 162.321 458.208 Q160.515 454.643 156.881 454.643 M156.881 450.94 Q162.691 450.94 165.747 455.546 Q168.825 460.129 168.825 468.879 Q168.825 477.606 165.747 482.213 Q162.691 486.796 156.881 486.796 Q151.071 486.796 147.992 482.213 Q144.937 477.606 144.937 468.879 Q144.937 460.129 147.992 455.546 Q151.071 450.94 156.881 450.94 Z" fill="#000000" fill-rule="nonzero" fill-opacity="1" /><path clip-path="url(#clip900)" d="M178.455 445.38 Q175.747 445.38 174.186 446.828 Q172.643 448.276 172.643 450.815 Q172.643 453.354 174.186 454.802 Q175.747 456.25 178.455 456.25 Q181.163 456.25 182.724 454.802 Q184.285 453.335 184.285 450.815 Q184.285 448.276 182.724 446.828 Q181.182 445.38 178.455 445.38 M174.656 443.762 Q172.211 443.16 170.838 441.486 Q169.484 439.812 169.484 437.405 Q169.484 434.039 171.872 432.082 Q174.28 430.126 178.455 430.126 Q182.649 430.126 185.038 432.082 Q187.426 434.039 187.426 437.405 Q187.426 439.812 186.053 441.486 Q184.699 443.16 182.273 443.762 Q185.019 444.402 186.542 446.264 Q188.085 448.126 188.085 450.815 Q188.085 454.896 185.583 457.078 Q183.101 459.26 178.455 459.26 Q173.81 459.26 171.308 457.078 Q168.825 454.896 168.825 450.815 Q168.825 448.126 170.368 446.264 Q171.91 444.402 174.656 443.762 M173.264 437.762 Q173.264 439.944 174.618 441.167 Q175.991 442.389 178.455 442.389 Q180.9 442.389 182.273 441.167 Q183.665 439.944 183.665 437.762 Q183.665 435.581 182.273 434.358 Q180.9 433.136 178.455 433.136 Q175.991 433.136 174.618 434.358 Q173.264 435.581 173.264 437.762 Z" fill="#000000" fill-rule="nonzero" fill-opacity="1" /><path clip-path="url(#clip900)" d="M15.5387 1038.2 L22.3182 1038.2 Q19.2945 1041.45 17.7986 1045.14 Q16.3026 1048.8 16.3026 1052.94 Q16.3026 1061.09 21.2997 1065.42 Q26.2649 1069.75 35.6862 1069.75 Q45.0756 1069.75 50.0727 1065.42 Q55.0379 1061.09 55.0379 1052.94 Q55.0379 1048.8 53.542 1045.14 Q52.0461 1041.45 49.0223 1038.2 L55.7382 1038.2 Q58.0298 1041.58 59.1756 1045.36 Q60.3215 1049.12 60.3215 1053.32 Q60.3215 1064.11 53.733 1070.32 Q47.1126 1076.52 35.6862 1076.52 Q24.2279 1076.52 17.6394 1070.32 Q11.0191 1064.11 11.0191 1053.32 Q11.0191 1049.06 12.1649 1045.3 Q13.2789 1041.51 15.5387 1038.2 Z" fill="#000000" fill-rule="nonzero" fill-opacity="1" /><path clip-path="url(#clip900)" d="M17.162 1021.84 L35.0178 1021.84 L35.0178 1013.76 Q35.0178 1009.27 32.6943 1006.82 Q30.3708 1004.37 26.074 1004.37 Q21.8089 1004.37 19.4855 1006.82 Q17.162 1009.27 17.162 1013.76 L17.162 1021.84 M11.8784 1028.27 L11.8784 1013.76 Q11.8784 1005.77 15.5069 1001.7 Q19.1035 997.59 26.074 997.59 Q33.1081 997.59 36.7047 1001.7 Q40.3013 1005.77 40.3013 1013.76 L40.3013 1021.84 L59.3984 1021.84 L59.3984 1028.27 L11.8784 1028.27 Z" fill="#000000" fill-rule="nonzero" fill-opacity="1" /><path clip-path="url(#clip900)" d="M11.8784 989.697 L11.8784 983.236 L40.7469 983.236 Q48.3858 983.236 51.7596 980.466 Q55.1016 977.697 55.1016 971.491 Q55.1016 965.316 51.7596 962.547 Q48.3858 959.778 40.7469 959.778 L11.8784 959.778 L11.8784 953.317 L41.5426 953.317 Q50.8366 953.317 55.579 957.932 Q60.3215 962.515 60.3215 971.491 Q60.3215 980.498 55.579 985.113 Q50.8366 989.697 41.5426 989.697 L11.8784 989.697 Z" fill="#000000" fill-rule="nonzero" fill-opacity="1" /><path clip-path="url(#clip900)" d="M11.8784 927.122 L11.8784 886.922 L17.2893 886.922 L17.2893 903.792 L59.3984 903.792 L59.3984 910.253 L17.2893 910.253 L17.2893 927.122 L11.8784 927.122 Z" fill="#000000" fill-rule="nonzero" fill-opacity="1" /><path clip-path="url(#clip900)" d="M23.7505 882.976 L23.7505 877.119 L59.3984 877.119 L59.3984 882.976 L23.7505 882.976 M9.87325 882.976 L9.87325 877.119 L17.2893 877.119 L17.2893 882.976 L9.87325 882.976 Z" fill="#000000" fill-rule="nonzero" fill-opacity="1" /><path clip-path="url(#clip900)" d="M30.5936 837.111 Q26.6469 834.915 24.769 831.859 Q22.8911 828.803 22.8911 824.666 Q22.8911 819.096 26.806 816.072 Q30.6891 813.048 37.8824 813.048 L59.3984 813.048 L59.3984 818.937 L38.0733 818.937 Q32.9489 818.937 30.4663 820.751 Q27.9837 822.565 27.9837 826.289 Q27.9837 830.841 31.0074 833.482 Q34.0311 836.124 39.251 836.124 L59.3984 836.124 L59.3984 842.012 L38.0733 842.012 Q32.9171 842.012 30.4663 843.827 Q27.9837 845.641 27.9837 849.428 Q27.9837 853.916 31.0392 856.558 Q34.0629 859.2 39.251 859.2 L59.3984 859.2 L59.3984 865.088 L23.7505 865.088 L23.7505 859.2 L29.2887 859.2 Q26.0103 857.195 24.4507 854.394 Q22.8911 851.593 22.8911 847.741 Q22.8911 843.858 24.8645 841.153 Q26.8379 838.416 30.5936 837.111 Z" fill="#000000" fill-rule="nonzero" fill-opacity="1" /><path clip-path="url(#clip900)" d="M40.1104 770.876 L42.9749 770.876 L42.9749 797.802 Q49.0223 797.421 52.2052 794.174 Q55.3562 790.896 55.3562 785.071 Q55.3562 781.697 54.5287 778.546 Q53.7011 775.363 52.0461 772.244 L57.5842 772.244 Q58.921 775.395 59.6212 778.705 Q60.3215 782.016 60.3215 785.421 Q60.3215 793.951 55.3562 798.948 Q50.391 803.914 41.9246 803.914 Q33.1717 803.914 28.0473 799.203 Q22.8911 794.46 22.8911 786.44 Q22.8911 779.246 27.5381 775.077 Q32.1532 770.876 40.1104 770.876 M38.3916 776.732 Q33.5855 776.796 30.7209 779.437 Q27.8564 782.047 27.8564 786.376 Q27.8564 791.278 30.6254 794.238 Q33.3945 797.166 38.4234 797.612 L38.3916 776.732 Z" fill="#000000" fill-rule="nonzero" fill-opacity="1" /><polyline clip-path="url(#clip901)" style="stroke:#009af9; stroke-linecap:round; stroke-linejoin:round; stroke-width:4; stroke-opacity:1; fill:none" points="301.481,1720.68 641.464,1526.25 981.446,1309.55 1321.43,1091.67 1661.41,874.029 2001.39,645.198 2341.38,426.316 2681.36,209.44 "/>
<circle clip-path="url(#clip901)" cx="301.481" cy="1720.68" r="14.4" fill="#009af9" fill-rule="evenodd" fill-opacity="1" stroke="#000000" stroke-opacity="1" stroke-width="4"/>
<circle clip-path="url(#clip901)" cx="641.464" cy="1526.25" r="14.4" fill="#009af9" fill-rule="evenodd" fill-opacity="1" stroke="#000000" stroke-opacity="1" stroke-width="4"/>
<circle clip-path="url(#clip901)" cx="981.446" cy="1309.55" r="14.4" fill="#009af9" fill-rule="evenodd" fill-opacity="1" stroke="#000000" stroke-opacity="1" stroke-width="4"/>
<circle clip-path="url(#clip901)" cx="1321.43" cy="1091.67" r="14.4" fill="#009af9" fill-rule="evenodd" fill-opacity="1" stroke="#000000" stroke-opacity="1" stroke-width="4"/>
<circle clip-path="url(#clip901)" cx="1661.41" cy="874.029" r="14.4" fill="#009af9" fill-rule="evenodd" fill-opacity="1" stroke="#000000" stroke-opacity="1" stroke-width="4"/>
<circle clip-path="url(#clip901)" cx="2001.39" cy="645.198" r="14.4" fill="#009af9" fill-rule="evenodd" fill-opacity="1" stroke="#000000" stroke-opacity="1" stroke-width="4"/>
<circle clip-path="url(#clip901)" cx="2341.38" cy="426.316" r="14.4" fill="#009af9" fill-rule="evenodd" fill-opacity="1" stroke="#000000" stroke-opacity="1" stroke-width="4"/>
<circle clip-path="url(#clip901)" cx="2681.36" cy="209.44" r="14.4" fill="#009af9" fill-rule="evenodd" fill-opacity="1" stroke="#000000" stroke-opacity="1" stroke-width="4"/>
<polyline clip-path="url(#clip901)" style="stroke:#e26f46; stroke-linecap:round; stroke-linejoin:round; stroke-width:4; stroke-opacity:1; fill:none" points="301.481,1749.61 641.464,1560.38 981.446,1326.19 1321.43,1108.09 1661.41,890.623 2001.39,656.961 2341.38,438.153 2681.36,220.429 "/>
<circle clip-path="url(#clip901)" cx="301.481" cy="1749.61" r="14.4" fill="#e26f46" fill-rule="evenodd" fill-opacity="1" stroke="#000000" stroke-opacity="1" stroke-width="4"/>
<circle clip-path="url(#clip901)" cx="641.464" cy="1560.38" r="14.4" fill="#e26f46" fill-rule="evenodd" fill-opacity="1" stroke="#000000" stroke-opacity="1" stroke-width="4"/>
<circle clip-path="url(#clip901)" cx="981.446" cy="1326.19" r="14.4" fill="#e26f46" fill-rule="evenodd" fill-opacity="1" stroke="#000000" stroke-opacity="1" stroke-width="4"/>
<circle clip-path="url(#clip901)" cx="1321.43" cy="1108.09" r="14.4" fill="#e26f46" fill-rule="evenodd" fill-opacity="1" stroke="#000000" stroke-opacity="1" stroke-width="4"/>
<circle clip-path="url(#clip901)" cx="1661.41" cy="890.623" r="14.4" fill="#e26f46" fill-rule="evenodd" fill-opacity="1" stroke="#000000" stroke-opacity="1" stroke-width="4"/>
<circle clip-path="url(#clip901)" cx="2001.39" cy="656.961" r="14.4" fill="#e26f46" fill-rule="evenodd" fill-opacity="1" stroke="#000000" stroke-opacity="1" stroke-width="4"/>
<circle clip-path="url(#clip901)" cx="2341.38" cy="438.153" r="14.4" fill="#e26f46" fill-rule="evenodd" fill-opacity="1" stroke="#000000" stroke-opacity="1" stroke-width="4"/>
<circle clip-path="url(#clip901)" cx="2681.36" cy="220.429" r="14.4" fill="#e26f46" fill-rule="evenodd" fill-opacity="1" stroke="#000000" stroke-opacity="1" stroke-width="4"/>
<polyline clip-path="url(#clip901)" style="stroke:#3da44d; stroke-linecap:round; stroke-linejoin:round; stroke-width:4; stroke-opacity:1; fill:none" points="301.481,1416.34 641.464,1406.3 981.446,1338.65 1321.43,1163.15 1661.41,949.958 2001.39,729.562 2341.38,513.871 2681.36,297.403 "/>
<circle clip-path="url(#clip901)" cx="301.481" cy="1416.34" r="14.4" fill="#3da44d" fill-rule="evenodd" fill-opacity="1" stroke="#000000" stroke-opacity="1" stroke-width="4"/>
<circle clip-path="url(#clip901)" cx="641.464" cy="1406.3" r="14.4" fill="#3da44d" fill-rule="evenodd" fill-opacity="1" stroke="#000000" stroke-opacity="1" stroke-width="4"/>
<circle clip-path="url(#clip901)" cx="981.446" cy="1338.65" r="14.4" fill="#3da44d" fill-rule="evenodd" fill-opacity="1" stroke="#000000" stroke-opacity="1" stroke-width="4"/>
<circle clip-path="url(#clip901)" cx="1321.43" cy="1163.15" r="14.4" fill="#3da44d" fill-rule="evenodd" fill-opacity="1" stroke="#000000" stroke-opacity="1" stroke-width="4"/>
<circle clip-path="url(#clip901)" cx="1661.41" cy="949.958" r="14.4" fill="#3da44d" fill-rule="evenodd" fill-opacity="1" stroke="#000000" stroke-opacity="1" stroke-width="4"/>
<circle clip-path="url(#clip901)" cx="2001.39" cy="729.562" r="14.4" fill="#3da44d" fill-rule="evenodd" fill-opacity="1" stroke="#000000" stroke-opacity="1" stroke-width="4"/>
<circle clip-path="url(#clip901)" cx="2341.38" cy="513.871" r="14.4" fill="#3da44d" fill-rule="evenodd" fill-opacity="1" stroke="#000000" stroke-opacity="1" stroke-width="4"/>
<circle clip-path="url(#clip901)" cx="2681.36" cy="297.403" r="14.4" fill="#3da44d" fill-rule="evenodd" fill-opacity="1" stroke="#000000" stroke-opacity="1" stroke-width="4"/>
<polyline clip-path="url(#clip901)" style="stroke:#c271d2; stroke-linecap:round; stroke-linejoin:round; stroke-width:4; stroke-opacity:1; fill:none" points="301.481,1618.36 641.464,1402.68 981.446,1185.19 1321.43,967.845 1661.41,750.189 2001.39,531.75 2341.38,314.527 2681.36,96.8548 "/>
<circle clip-path="url(#clip901)" cx="301.481" cy="1618.36" r="14.4" fill="#c271d2" fill-rule="evenodd" fill-opacity="1" stroke="#000000" stroke-opacity="1" stroke-width="4"/>
<circle clip-path="url(#clip901)" cx="641.464" cy="1402.68" r="14.4" fill="#c271d2" fill-rule="evenodd" fill-opacity="1" stroke="#000000" stroke-opacity="1" stroke-width="4"/>
<circle clip-path="url(#clip901)" cx="981.446" cy="1185.19" r="14.4" fill="#c271d2" fill-rule="evenodd" fill-opacity="1" stroke="#000000" stroke-opacity="1" stroke-width="4"/>
<circle clip-path="url(#clip901)" cx="1321.43" cy="967.845" r="14.4" fill="#c271d2" fill-rule="evenodd" fill-opacity="1" stroke="#000000" stroke-opacity="1" stroke-width="4"/>
<circle clip-path="url(#clip901)" cx="1661.41" cy="750.189" r="14.4" fill="#c271d2" fill-rule="evenodd" fill-opacity="1" stroke="#000000" stroke-opacity="1" stroke-width="4"/>
<circle clip-path="url(#clip901)" cx="2001.39" cy="531.75" r="14.4" fill="#c271d2" fill-rule="evenodd" fill-opacity="1" stroke="#000000" stroke-opacity="1" stroke-width="4"/>
<circle clip-path="url(#clip901)" cx="2341.38" cy="314.527" r="14.4" fill="#c271d2" fill-rule="evenodd" fill-opacity="1" stroke="#000000" stroke-opacity="1" stroke-width="4"/>
<circle clip-path="url(#clip901)" cx="2681.36" cy="96.8548" r="14.4" fill="#c271d2" fill-rule="evenodd" fill-opacity="1" stroke="#000000" stroke-opacity="1" stroke-width="4"/>
<polyline clip-path="url(#clip901)" style="stroke:#ac8d18; stroke-linecap:round; stroke-linejoin:round; stroke-width:4; stroke-opacity:1; fill:none" points="301.481,1359.4 641.464,1307.07 981.446,1255.35 1321.43,1134.98 1661.41,942.319 2001.39,726.574 2341.38,509.042 2681.36,291.639 "/>
<circle clip-path="url(#clip901)" cx="301.481" cy="1359.4" r="14.4" fill="#ac8d18" fill-rule="evenodd" fill-opacity="1" stroke="#000000" stroke-opacity="1" stroke-width="4"/>
<circle clip-path="url(#clip901)" cx="641.464" cy="1307.07" r="14.4" fill="#ac8d18" fill-rule="evenodd" fill-opacity="1" stroke="#000000" stroke-opacity="1" stroke-width="4"/>
<circle clip-path="url(#clip901)" cx="981.446" cy="1255.35" r="14.4" fill="#ac8d18" fill-rule="evenodd" fill-opacity="1" stroke="#000000" stroke-opacity="1" stroke-width="4"/>
<circle clip-path="url(#clip901)" cx="1321.43" cy="1134.98" r="14.4" fill="#ac8d18" fill-rule="evenodd" fill-opacity="1" stroke="#000000" stroke-opacity="1" stroke-width="4"/>
<circle clip-path="url(#clip901)" cx="1661.41" cy="942.319" r="14.4" fill="#ac8d18" fill-rule="evenodd" fill-opacity="1" stroke="#000000" stroke-opacity="1" stroke-width="4"/>
<circle clip-path="url(#clip901)" cx="2001.39" cy="726.574" r="14.4" fill="#ac8d18" fill-rule="evenodd" fill-opacity="1" stroke="#000000" stroke-opacity="1" stroke-width="4"/>
<circle clip-path="url(#clip901)" cx="2341.38" cy="509.042" r="14.4" fill="#ac8d18" fill-rule="evenodd" fill-opacity="1" stroke="#000000" stroke-opacity="1" stroke-width="4"/>
<circle clip-path="url(#clip901)" cx="2681.36" cy="291.639" r="14.4" fill="#ac8d18" fill-rule="evenodd" fill-opacity="1" stroke="#000000" stroke-opacity="1" stroke-width="4"/>
<polyline clip-path="url(#clip901)" style="stroke:#00a9ad; stroke-linecap:round; stroke-linejoin:round; stroke-width:4; stroke-opacity:1; fill:none" points="301.481,1750.55 641.464,1564.77 981.446,1335.34 1321.43,1117.53 1661.41,900.834 2001.39,667.678 2341.38,449.954 2681.36,231.003 "/>
<circle clip-path="url(#clip901)" cx="301.481" cy="1750.55" r="14.4" fill="#00a9ad" fill-rule="evenodd" fill-opacity="1" stroke="#000000" stroke-opacity="1" stroke-width="4"/>
<circle clip-path="url(#clip901)" cx="641.464" cy="1564.77" r="14.4" fill="#00a9ad" fill-rule="evenodd" fill-opacity="1" stroke="#000000" stroke-opacity="1" stroke-width="4"/>
<circle clip-path="url(#clip901)" cx="981.446" cy="1335.34" r="14.4" fill="#00a9ad" fill-rule="evenodd" fill-opacity="1" stroke="#000000" stroke-opacity="1" stroke-width="4"/>
<circle clip-path="url(#clip901)" cx="1321.43" cy="1117.53" r="14.4" fill="#00a9ad" fill-rule="evenodd" fill-opacity="1" stroke="#000000" stroke-opacity="1" stroke-width="4"/>
<circle clip-path="url(#clip901)" cx="1661.41" cy="900.834" r="14.4" fill="#00a9ad" fill-rule="evenodd" fill-opacity="1" stroke="#000000" stroke-opacity="1" stroke-width="4"/>
<circle clip-path="url(#clip901)" cx="2001.39" cy="667.678" r="14.4" fill="#00a9ad" fill-rule="evenodd" fill-opacity="1" stroke="#000000" stroke-opacity="1" stroke-width="4"/>
<circle clip-path="url(#clip901)" cx="2341.38" cy="449.954" r="14.4" fill="#00a9ad" fill-rule="evenodd" fill-opacity="1" stroke="#000000" stroke-opacity="1" stroke-width="4"/>
<circle clip-path="url(#clip901)" cx="2681.36" cy="231.003" r="14.4" fill="#00a9ad" fill-rule="evenodd" fill-opacity="1" stroke="#000000" stroke-opacity="1" stroke-width="4"/>
<path clip-path="url(#clip900)" d="M314.174 468.555 L972.758 468.555 L972.758 105.675 L314.174 105.675  Z" fill="#ffffff" fill-rule="evenodd" fill-opacity="1"/>
<polyline clip-path="url(#clip900)" style="stroke:#000000; stroke-linecap:round; stroke-linejoin:round; stroke-width:4; stroke-opacity:1; fill:none" points="314.174,468.555 972.758,468.555 972.758,105.675 314.174,105.675 314.174,468.555 "/>
<polyline clip-path="url(#clip900)" style="stroke:#009af9; stroke-linecap:round; stroke-linejoin:round; stroke-width:4; stroke-opacity:1; fill:none" points="342.203,157.515 510.381,157.515 "/>
<circle clip-path="url(#clip900)" cx="426.292" cy="157.515" r="20.48" fill="#009af9" fill-rule="evenodd" fill-opacity="1" stroke="#000000" stroke-opacity="1" stroke-width="5.68889"/>
<path clip-path="url(#clip900)" d="M562.439 160.767 L562.439 162.85 L542.856 162.85 Q543.133 167.248 545.494 169.563 Q547.879 171.855 552.115 171.855 Q554.568 171.855 556.86 171.253 Q559.175 170.651 561.443 169.447 L561.443 173.475 Q559.152 174.447 556.744 174.957 Q554.337 175.466 551.86 175.466 Q545.656 175.466 542.022 171.855 Q538.411 168.244 538.411 162.086 Q538.411 155.721 541.837 151.994 Q545.286 148.244 551.119 148.244 Q556.351 148.244 559.383 151.623 Q562.439 154.98 562.439 160.767 M558.18 159.517 Q558.133 156.021 556.212 153.938 Q554.314 151.855 551.166 151.855 Q547.601 151.855 545.448 153.869 Q543.318 155.883 542.994 159.54 L558.18 159.517 Z" fill="#000000" fill-rule="nonzero" fill-opacity="1" /><path clip-path="url(#clip900)" d="M590.147 148.869 L580.772 161.484 L590.633 174.795 L585.61 174.795 L578.064 164.609 L570.517 174.795 L565.494 174.795 L575.564 161.23 L566.351 148.869 L571.374 148.869 L578.249 158.105 L585.124 148.869 L590.147 148.869 Z" fill="#000000" fill-rule="nonzero" fill-opacity="1" /><path clip-path="url(#clip900)" d="M600.772 170.906 L600.772 184.656 L596.489 184.656 L596.489 148.869 L600.772 148.869 L600.772 152.804 Q602.114 150.489 604.151 149.378 Q606.212 148.244 609.059 148.244 Q613.781 148.244 616.721 151.994 Q619.684 155.744 619.684 161.855 Q619.684 167.966 616.721 171.716 Q613.781 175.466 609.059 175.466 Q606.212 175.466 604.151 174.355 Q602.114 173.22 600.772 170.906 M615.263 161.855 Q615.263 157.156 613.318 154.494 Q611.397 151.809 608.017 151.809 Q604.638 151.809 602.693 154.494 Q600.772 157.156 600.772 161.855 Q600.772 166.554 602.693 169.239 Q604.638 171.901 608.017 171.901 Q611.397 171.901 613.318 169.239 Q615.263 166.554 615.263 161.855 Z" fill="#000000" fill-rule="nonzero" fill-opacity="1" /><path clip-path="url(#clip900)" d="M643.272 149.633 L643.272 153.66 Q641.466 152.734 639.522 152.271 Q637.577 151.809 635.494 151.809 Q632.323 151.809 630.725 152.781 Q629.151 153.753 629.151 155.697 Q629.151 157.179 630.286 158.035 Q631.42 158.869 634.846 159.633 L636.304 159.957 Q640.841 160.929 642.739 162.711 Q644.661 164.47 644.661 167.642 Q644.661 171.253 641.79 173.359 Q638.943 175.466 633.943 175.466 Q631.86 175.466 629.591 175.049 Q627.346 174.656 624.846 173.845 L624.846 169.447 Q627.207 170.674 629.499 171.299 Q631.79 171.901 634.036 171.901 Q637.045 171.901 638.665 170.882 Q640.286 169.841 640.286 167.966 Q640.286 166.23 639.105 165.304 Q637.948 164.378 633.989 163.521 L632.508 163.174 Q628.55 162.341 626.79 160.628 Q625.031 158.892 625.031 155.883 Q625.031 152.225 627.624 150.234 Q630.216 148.244 634.985 148.244 Q637.346 148.244 639.429 148.591 Q641.512 148.938 643.272 149.633 Z" fill="#000000" fill-rule="nonzero" fill-opacity="1" /><path clip-path="url(#clip900)" d="M651.003 164.563 L651.003 148.869 L655.262 148.869 L655.262 164.401 Q655.262 168.082 656.698 169.933 Q658.133 171.762 661.003 171.762 Q664.452 171.762 666.443 169.563 Q668.457 167.364 668.457 163.568 L668.457 148.869 L672.716 148.869 L672.716 174.795 L668.457 174.795 L668.457 170.813 Q666.906 173.174 664.846 174.332 Q662.809 175.466 660.1 175.466 Q655.633 175.466 653.318 172.688 Q651.003 169.91 651.003 164.563 M661.721 148.244 L661.721 148.244 Z" fill="#000000" fill-rule="nonzero" fill-opacity="1" /><path clip-path="url(#clip900)" d="M701.674 153.846 Q703.271 150.975 705.494 149.609 Q707.716 148.244 710.725 148.244 Q714.776 148.244 716.975 151.091 Q719.174 153.915 719.174 159.146 L719.174 174.795 L714.892 174.795 L714.892 159.285 Q714.892 155.558 713.572 153.753 Q712.253 151.947 709.544 151.947 Q706.234 151.947 704.313 154.146 Q702.392 156.346 702.392 160.142 L702.392 174.795 L698.109 174.795 L698.109 159.285 Q698.109 155.535 696.79 153.753 Q695.47 151.947 692.716 151.947 Q689.452 151.947 687.531 154.17 Q685.609 156.369 685.609 160.142 L685.609 174.795 L681.327 174.795 L681.327 148.869 L685.609 148.869 L685.609 152.896 Q687.068 150.512 689.105 149.378 Q691.142 148.244 693.943 148.244 Q696.767 148.244 698.734 149.679 Q700.725 151.114 701.674 153.846 Z" fill="#000000" fill-rule="nonzero" fill-opacity="1" /><path clip-path="url(#clip900)" d="M747.368 182.665 L747.368 185.975 L722.739 185.975 L722.739 182.665 L747.368 182.665 Z" fill="#000000" fill-rule="nonzero" fill-opacity="1" /><path clip-path="url(#clip900)" d="M773.549 160.767 L773.549 162.85 L753.966 162.85 Q754.243 167.248 756.604 169.563 Q758.989 171.855 763.225 171.855 Q765.678 171.855 767.97 171.253 Q770.285 170.651 772.553 169.447 L772.553 173.475 Q770.262 174.447 767.854 174.957 Q765.447 175.466 762.97 175.466 Q756.766 175.466 753.132 171.855 Q749.521 168.244 749.521 162.086 Q749.521 155.721 752.947 151.994 Q756.396 148.244 762.229 148.244 Q767.461 148.244 770.493 151.623 Q773.549 154.98 773.549 160.767 M769.289 159.517 Q769.243 156.021 767.322 153.938 Q765.424 151.855 762.276 151.855 Q758.711 151.855 756.558 153.869 Q754.428 155.883 754.104 159.54 L769.289 159.517 Z" fill="#000000" fill-rule="nonzero" fill-opacity="1" /><path clip-path="url(#clip900)" d="M780.539 148.869 L784.799 148.869 L784.799 174.795 L780.539 174.795 L780.539 148.869 M780.539 138.776 L784.799 138.776 L784.799 144.17 L780.539 144.17 L780.539 138.776 Z" fill="#000000" fill-rule="nonzero" fill-opacity="1" /><path clip-path="url(#clip900)" d="M810.771 161.531 Q810.771 156.901 808.849 154.355 Q806.951 151.809 803.502 151.809 Q800.076 151.809 798.155 154.355 Q796.257 156.901 796.257 161.531 Q796.257 166.137 798.155 168.683 Q800.076 171.23 803.502 171.23 Q806.951 171.23 808.849 168.683 Q810.771 166.137 810.771 161.531 M815.03 171.577 Q815.03 178.197 812.09 181.415 Q809.15 184.656 803.086 184.656 Q800.84 184.656 798.85 184.308 Q796.859 183.984 794.984 183.29 L794.984 179.146 Q796.859 180.165 798.687 180.651 Q800.516 181.137 802.414 181.137 Q806.604 181.137 808.687 178.938 Q810.771 176.762 810.771 172.341 L810.771 170.234 Q809.451 172.526 807.391 173.66 Q805.331 174.795 802.461 174.795 Q797.692 174.795 794.775 171.16 Q791.859 167.526 791.859 161.531 Q791.859 155.512 794.775 151.878 Q797.692 148.244 802.461 148.244 Q805.331 148.244 807.391 149.378 Q809.451 150.512 810.771 152.804 L810.771 148.869 L815.03 148.869 L815.03 171.577 Z" fill="#000000" fill-rule="nonzero" fill-opacity="1" /><path clip-path="url(#clip900)" d="M845.979 160.767 L845.979 162.85 L826.396 162.85 Q826.673 167.248 829.035 169.563 Q831.419 171.855 835.655 171.855 Q838.109 171.855 840.4 171.253 Q842.715 170.651 844.984 169.447 L844.984 173.475 Q842.692 174.447 840.284 174.957 Q837.877 175.466 835.4 175.466 Q829.197 175.466 825.562 171.855 Q821.951 168.244 821.951 162.086 Q821.951 155.721 825.377 151.994 Q828.826 148.244 834.66 148.244 Q839.891 148.244 842.923 151.623 Q845.979 154.98 845.979 160.767 M841.72 159.517 Q841.673 156.021 839.752 153.938 Q837.854 151.855 834.706 151.855 Q831.141 151.855 828.988 153.869 Q826.859 155.883 826.535 159.54 L841.72 159.517 Z" fill="#000000" fill-rule="nonzero" fill-opacity="1" /><path clip-path="url(#clip900)" d="M874.52 159.146 L874.52 174.795 L870.261 174.795 L870.261 159.285 Q870.261 155.605 868.826 153.776 Q867.391 151.947 864.52 151.947 Q861.071 151.947 859.081 154.146 Q857.09 156.346 857.09 160.142 L857.09 174.795 L852.808 174.795 L852.808 148.869 L857.09 148.869 L857.09 152.896 Q858.618 150.559 860.678 149.401 Q862.761 148.244 865.47 148.244 Q869.937 148.244 872.229 151.021 Q874.52 153.776 874.52 159.146 Z" fill="#000000" fill-rule="nonzero" fill-opacity="1" /><polyline clip-path="url(#clip900)" style="stroke:#e26f46; stroke-linecap:round; stroke-linejoin:round; stroke-width:4; stroke-opacity:1; fill:none" points="342.203,209.355 510.381,209.355 "/>
<circle clip-path="url(#clip900)" cx="426.292" cy="209.355" r="20.48" fill="#e26f46" fill-rule="evenodd" fill-opacity="1" stroke="#000000" stroke-opacity="1" stroke-width="5.68889"/>
<path clip-path="url(#clip900)" d="M562.439 212.607 L562.439 214.69 L542.856 214.69 Q543.133 219.088 545.494 221.403 Q547.879 223.695 552.115 223.695 Q554.568 223.695 556.86 223.093 Q559.175 222.491 561.443 221.287 L561.443 225.315 Q559.152 226.287 556.744 226.797 Q554.337 227.306 551.86 227.306 Q545.656 227.306 542.022 223.695 Q538.411 220.084 538.411 213.926 Q538.411 207.561 541.837 203.834 Q545.286 200.084 551.119 200.084 Q556.351 200.084 559.383 203.463 Q562.439 206.82 562.439 212.607 M558.18 211.357 Q558.133 207.861 556.212 205.778 Q554.314 203.695 551.166 203.695 Q547.601 203.695 545.448 205.709 Q543.318 207.723 542.994 211.38 L558.18 211.357 Z" fill="#000000" fill-rule="nonzero" fill-opacity="1" /><path clip-path="url(#clip900)" d="M590.147 200.709 L580.772 213.324 L590.633 226.635 L585.61 226.635 L578.064 216.449 L570.517 226.635 L565.494 226.635 L575.564 213.07 L566.351 200.709 L571.374 200.709 L578.249 209.945 L585.124 200.709 L590.147 200.709 Z" fill="#000000" fill-rule="nonzero" fill-opacity="1" /><path clip-path="url(#clip900)" d="M600.772 222.746 L600.772 236.496 L596.489 236.496 L596.489 200.709 L600.772 200.709 L600.772 204.644 Q602.114 202.329 604.151 201.218 Q606.212 200.084 609.059 200.084 Q613.781 200.084 616.721 203.834 Q619.684 207.584 619.684 213.695 Q619.684 219.806 616.721 223.556 Q613.781 227.306 609.059 227.306 Q606.212 227.306 604.151 226.195 Q602.114 225.06 600.772 222.746 M615.263 213.695 Q615.263 208.996 613.318 206.334 Q611.397 203.649 608.017 203.649 Q604.638 203.649 602.693 206.334 Q600.772 208.996 600.772 213.695 Q600.772 218.394 602.693 221.079 Q604.638 223.741 608.017 223.741 Q611.397 223.741 613.318 221.079 Q615.263 218.394 615.263 213.695 Z" fill="#000000" fill-rule="nonzero" fill-opacity="1" /><path clip-path="url(#clip900)" d="M643.272 201.473 L643.272 205.5 Q641.466 204.574 639.522 204.111 Q637.577 203.649 635.494 203.649 Q632.323 203.649 630.725 204.621 Q629.151 205.593 629.151 207.537 Q629.151 209.019 630.286 209.875 Q631.42 210.709 634.846 211.473 L636.304 211.797 Q640.841 212.769 642.739 214.551 Q644.661 216.31 644.661 219.482 Q644.661 223.093 641.79 225.199 Q638.943 227.306 633.943 227.306 Q631.86 227.306 629.591 226.889 Q627.346 226.496 624.846 225.685 L624.846 221.287 Q627.207 222.514 629.499 223.139 Q631.79 223.741 634.036 223.741 Q637.045 223.741 638.665 222.722 Q640.286 221.681 640.286 219.806 Q640.286 218.07 639.105 217.144 Q637.948 216.218 633.989 215.361 L632.508 215.014 Q628.55 214.181 626.79 212.468 Q625.031 210.732 625.031 207.723 Q625.031 204.065 627.624 202.074 Q630.216 200.084 634.985 200.084 Q637.346 200.084 639.429 200.431 Q641.512 200.778 643.272 201.473 Z" fill="#000000" fill-rule="nonzero" fill-opacity="1" /><path clip-path="url(#clip900)" d="M651.003 216.403 L651.003 200.709 L655.262 200.709 L655.262 216.241 Q655.262 219.922 656.698 221.773 Q658.133 223.602 661.003 223.602 Q664.452 223.602 666.443 221.403 Q668.457 219.204 668.457 215.408 L668.457 200.709 L672.716 200.709 L672.716 226.635 L668.457 226.635 L668.457 222.653 Q666.906 225.014 664.846 226.172 Q662.809 227.306 660.1 227.306 Q655.633 227.306 653.318 224.528 Q651.003 221.75 651.003 216.403 M661.721 200.084 L661.721 200.084 Z" fill="#000000" fill-rule="nonzero" fill-opacity="1" /><path clip-path="url(#clip900)" d="M701.674 205.686 Q703.271 202.815 705.494 201.449 Q707.716 200.084 710.725 200.084 Q714.776 200.084 716.975 202.931 Q719.174 205.755 719.174 210.986 L719.174 226.635 L714.892 226.635 L714.892 211.125 Q714.892 207.398 713.572 205.593 Q712.253 203.787 709.544 203.787 Q706.234 203.787 704.313 205.986 Q702.392 208.186 702.392 211.982 L702.392 226.635 L698.109 226.635 L698.109 211.125 Q698.109 207.375 696.79 205.593 Q695.47 203.787 692.716 203.787 Q689.452 203.787 687.531 206.01 Q685.609 208.209 685.609 211.982 L685.609 226.635 L681.327 226.635 L681.327 200.709 L685.609 200.709 L685.609 204.736 Q687.068 202.352 689.105 201.218 Q691.142 200.084 693.943 200.084 Q696.767 200.084 698.734 201.519 Q700.725 202.954 701.674 205.686 Z" fill="#000000" fill-rule="nonzero" fill-opacity="1" /><path clip-path="url(#clip900)" d="M747.368 234.505 L747.368 237.815 L722.739 237.815 L722.739 234.505 L747.368 234.505 Z" fill="#000000" fill-rule="nonzero" fill-opacity="1" /><path clip-path="url(#clip900)" d="M772.924 210.986 L772.924 226.635 L768.664 226.635 L768.664 211.125 Q768.664 207.445 767.229 205.616 Q765.794 203.787 762.924 203.787 Q759.475 203.787 757.484 205.986 Q755.493 208.186 755.493 211.982 L755.493 226.635 L751.211 226.635 L751.211 190.616 L755.493 190.616 L755.493 204.736 Q757.021 202.399 759.081 201.241 Q761.165 200.084 763.873 200.084 Q768.34 200.084 770.632 202.861 Q772.924 205.616 772.924 210.986 Z" fill="#000000" fill-rule="nonzero" fill-opacity="1" /><path clip-path="url(#clip900)" d="M781.419 200.709 L785.678 200.709 L785.678 226.635 L781.419 226.635 L781.419 200.709 M781.419 190.616 L785.678 190.616 L785.678 196.01 L781.419 196.01 L781.419 190.616 Z" fill="#000000" fill-rule="nonzero" fill-opacity="1" /><path clip-path="url(#clip900)" d="M811.65 213.371 Q811.65 208.741 809.729 206.195 Q807.831 203.649 804.382 203.649 Q800.956 203.649 799.035 206.195 Q797.137 208.741 797.137 213.371 Q797.137 217.977 799.035 220.523 Q800.956 223.07 804.382 223.07 Q807.831 223.07 809.729 220.523 Q811.65 217.977 811.65 213.371 M815.91 223.417 Q815.91 230.037 812.97 233.255 Q810.03 236.496 803.965 236.496 Q801.72 236.496 799.729 236.148 Q797.738 235.824 795.863 235.13 L795.863 230.986 Q797.738 232.005 799.567 232.491 Q801.396 232.977 803.294 232.977 Q807.484 232.977 809.567 230.778 Q811.65 228.602 811.65 224.181 L811.65 222.074 Q810.331 224.366 808.271 225.5 Q806.211 226.635 803.34 226.635 Q798.572 226.635 795.655 223 Q792.738 219.366 792.738 213.371 Q792.738 207.352 795.655 203.718 Q798.572 200.084 803.34 200.084 Q806.211 200.084 808.271 201.218 Q810.331 202.352 811.65 204.644 L811.65 200.709 L815.91 200.709 L815.91 223.417 Z" fill="#000000" fill-rule="nonzero" fill-opacity="1" /><path clip-path="url(#clip900)" d="M846.234 210.986 L846.234 226.635 L841.974 226.635 L841.974 211.125 Q841.974 207.445 840.539 205.616 Q839.104 203.787 836.234 203.787 Q832.785 203.787 830.794 205.986 Q828.803 208.186 828.803 211.982 L828.803 226.635 L824.521 226.635 L824.521 190.616 L828.803 190.616 L828.803 204.736 Q830.331 202.399 832.391 201.241 Q834.474 200.084 837.183 200.084 Q841.65 200.084 843.942 202.861 Q846.234 205.616 846.234 210.986 Z" fill="#000000" fill-rule="nonzero" fill-opacity="1" /><path clip-path="url(#clip900)" d="M852.252 200.709 L856.511 200.709 L861.835 220.94 L867.136 200.709 L872.159 200.709 L877.483 220.94 L882.784 200.709 L887.043 200.709 L880.261 226.635 L875.238 226.635 L869.659 205.385 L864.058 226.635 L859.034 226.635 L852.252 200.709 Z" fill="#000000" fill-rule="nonzero" fill-opacity="1" /><path clip-path="url(#clip900)" d="M905.284 213.602 Q900.122 213.602 898.131 214.783 Q896.141 215.963 896.141 218.81 Q896.141 221.079 897.622 222.422 Q899.127 223.741 901.696 223.741 Q905.238 223.741 907.367 221.241 Q909.52 218.718 909.52 214.551 L909.52 213.602 L905.284 213.602 M913.779 211.843 L913.779 226.635 L909.52 226.635 L909.52 222.699 Q908.062 225.06 905.886 226.195 Q903.71 227.306 900.562 227.306 Q896.58 227.306 894.219 225.084 Q891.881 222.838 891.881 219.088 Q891.881 214.713 894.798 212.491 Q897.738 210.269 903.548 210.269 L909.52 210.269 L909.52 209.852 Q909.52 206.912 907.576 205.315 Q905.655 203.695 902.159 203.695 Q899.937 203.695 897.83 204.227 Q895.724 204.76 893.78 205.824 L893.78 201.889 Q896.118 200.986 898.317 200.547 Q900.516 200.084 902.599 200.084 Q908.224 200.084 911.002 203 Q913.779 205.917 913.779 211.843 Z" fill="#000000" fill-rule="nonzero" fill-opacity="1" /><path clip-path="url(#clip900)" d="M933.34 229.042 Q931.534 233.672 929.821 235.084 Q928.108 236.496 925.238 236.496 L921.835 236.496 L921.835 232.931 L924.335 232.931 Q926.094 232.931 927.066 232.097 Q928.039 231.264 929.219 228.162 L929.983 226.218 L919.497 200.709 L924.011 200.709 L932.113 220.986 L940.215 200.709 L944.728 200.709 L933.34 229.042 Z" fill="#000000" fill-rule="nonzero" fill-opacity="1" /><polyline clip-path="url(#clip900)" style="stroke:#3da44d; stroke-linecap:round; stroke-linejoin:round; stroke-width:4; stroke-opacity:1; fill:none" points="342.203,261.195 510.381,261.195 "/>
<circle clip-path="url(#clip900)" cx="426.292" cy="261.195" r="20.48" fill="#3da44d" fill-rule="evenodd" fill-opacity="1" stroke="#000000" stroke-opacity="1" stroke-width="5.68889"/>
<path clip-path="url(#clip900)" d="M562.439 264.447 L562.439 266.53 L542.856 266.53 Q543.133 270.928 545.494 273.243 Q547.879 275.535 552.115 275.535 Q554.568 275.535 556.86 274.933 Q559.175 274.331 561.443 273.127 L561.443 277.155 Q559.152 278.127 556.744 278.637 Q554.337 279.146 551.86 279.146 Q545.656 279.146 542.022 275.535 Q538.411 271.924 538.411 265.766 Q538.411 259.401 541.837 255.674 Q545.286 251.924 551.119 251.924 Q556.351 251.924 559.383 255.303 Q562.439 258.66 562.439 264.447 M558.18 263.197 Q558.133 259.701 556.212 257.618 Q554.314 255.535 551.166 255.535 Q547.601 255.535 545.448 257.549 Q543.318 259.563 542.994 263.22 L558.18 263.197 Z" fill="#000000" fill-rule="nonzero" fill-opacity="1" /><path clip-path="url(#clip900)" d="M590.147 252.549 L580.772 265.164 L590.633 278.475 L585.61 278.475 L578.064 268.289 L570.517 278.475 L565.494 278.475 L575.564 264.91 L566.351 252.549 L571.374 252.549 L578.249 261.785 L585.124 252.549 L590.147 252.549 Z" fill="#000000" fill-rule="nonzero" fill-opacity="1" /><path clip-path="url(#clip900)" d="M600.772 274.586 L600.772 288.336 L596.489 288.336 L596.489 252.549 L600.772 252.549 L600.772 256.484 Q602.114 254.169 604.151 253.058 Q606.212 251.924 609.059 251.924 Q613.781 251.924 616.721 255.674 Q619.684 259.424 619.684 265.535 Q619.684 271.646 616.721 275.396 Q613.781 279.146 609.059 279.146 Q606.212 279.146 604.151 278.035 Q602.114 276.9 600.772 274.586 M615.263 265.535 Q615.263 260.836 613.318 258.174 Q611.397 255.489 608.017 255.489 Q604.638 255.489 602.693 258.174 Q600.772 260.836 600.772 265.535 Q600.772 270.234 602.693 272.919 Q604.638 275.581 608.017 275.581 Q611.397 275.581 613.318 272.919 Q615.263 270.234 615.263 265.535 Z" fill="#000000" fill-rule="nonzero" fill-opacity="1" /><path clip-path="url(#clip900)" d="M643.272 253.313 L643.272 257.34 Q641.466 256.414 639.522 255.951 Q637.577 255.489 635.494 255.489 Q632.323 255.489 630.725 256.461 Q629.151 257.433 629.151 259.377 Q629.151 260.859 630.286 261.715 Q631.42 262.549 634.846 263.313 L636.304 263.637 Q640.841 264.609 642.739 266.391 Q644.661 268.15 644.661 271.322 Q644.661 274.933 641.79 277.039 Q638.943 279.146 633.943 279.146 Q631.86 279.146 629.591 278.729 Q627.346 278.336 624.846 277.525 L624.846 273.127 Q627.207 274.354 629.499 274.979 Q631.79 275.581 634.036 275.581 Q637.045 275.581 638.665 274.562 Q640.286 273.521 640.286 271.646 Q640.286 269.91 639.105 268.984 Q637.948 268.058 633.989 267.201 L632.508 266.854 Q628.55 266.021 626.79 264.308 Q625.031 262.572 625.031 259.563 Q625.031 255.905 627.624 253.914 Q630.216 251.924 634.985 251.924 Q637.346 251.924 639.429 252.271 Q641.512 252.618 643.272 253.313 Z" fill="#000000" fill-rule="nonzero" fill-opacity="1" /><path clip-path="url(#clip900)" d="M651.003 268.243 L651.003 252.549 L655.262 252.549 L655.262 268.081 Q655.262 271.762 656.698 273.613 Q658.133 275.442 661.003 275.442 Q664.452 275.442 666.443 273.243 Q668.457 271.044 668.457 267.248 L668.457 252.549 L672.716 252.549 L672.716 278.475 L668.457 278.475 L668.457 274.493 Q666.906 276.854 664.846 278.012 Q662.809 279.146 660.1 279.146 Q655.633 279.146 653.318 276.368 Q651.003 273.59 651.003 268.243 M661.721 251.924 L661.721 251.924 Z" fill="#000000" fill-rule="nonzero" fill-opacity="1" /><path clip-path="url(#clip900)" d="M701.674 257.526 Q703.271 254.655 705.494 253.289 Q707.716 251.924 710.725 251.924 Q714.776 251.924 716.975 254.771 Q719.174 257.595 719.174 262.826 L719.174 278.475 L714.892 278.475 L714.892 262.965 Q714.892 259.238 713.572 257.433 Q712.253 255.627 709.544 255.627 Q706.234 255.627 704.313 257.826 Q702.392 260.026 702.392 263.822 L702.392 278.475 L698.109 278.475 L698.109 262.965 Q698.109 259.215 696.79 257.433 Q695.47 255.627 692.716 255.627 Q689.452 255.627 687.531 257.85 Q685.609 260.049 685.609 263.822 L685.609 278.475 L681.327 278.475 L681.327 252.549 L685.609 252.549 L685.609 256.576 Q687.068 254.192 689.105 253.058 Q691.142 251.924 693.943 251.924 Q696.767 251.924 698.734 253.359 Q700.725 254.794 701.674 257.526 Z" fill="#000000" fill-rule="nonzero" fill-opacity="1" /><path clip-path="url(#clip900)" d="M747.368 286.345 L747.368 289.655 L722.739 289.655 L722.739 286.345 L747.368 286.345 Z" fill="#000000" fill-rule="nonzero" fill-opacity="1" /><path clip-path="url(#clip900)" d="M761.419 255.535 Q757.993 255.535 756.003 258.22 Q754.012 260.882 754.012 265.535 Q754.012 270.188 755.979 272.873 Q757.97 275.535 761.419 275.535 Q764.822 275.535 766.813 272.85 Q768.803 270.164 768.803 265.535 Q768.803 260.928 766.813 258.243 Q764.822 255.535 761.419 255.535 M761.419 251.924 Q766.975 251.924 770.146 255.535 Q773.317 259.146 773.317 265.535 Q773.317 271.9 770.146 275.535 Q766.975 279.146 761.419 279.146 Q755.84 279.146 752.669 275.535 Q749.521 271.9 749.521 265.535 Q749.521 259.146 752.669 255.535 Q755.84 251.924 761.419 251.924 Z" fill="#000000" fill-rule="nonzero" fill-opacity="1" /><path clip-path="url(#clip900)" d="M800.562 257.526 Q802.16 254.655 804.382 253.289 Q806.604 251.924 809.613 251.924 Q813.664 251.924 815.863 254.771 Q818.062 257.595 818.062 262.826 L818.062 278.475 L813.78 278.475 L813.78 262.965 Q813.78 259.238 812.461 257.433 Q811.141 255.627 808.433 255.627 Q805.123 255.627 803.201 257.826 Q801.28 260.026 801.28 263.822 L801.28 278.475 L796.998 278.475 L796.998 262.965 Q796.998 259.215 795.678 257.433 Q794.359 255.627 791.604 255.627 Q788.34 255.627 786.419 257.85 Q784.498 260.049 784.498 263.822 L784.498 278.475 L780.215 278.475 L780.215 252.549 L784.498 252.549 L784.498 256.576 Q785.956 254.192 787.993 253.058 Q790.03 251.924 792.831 251.924 Q795.655 251.924 797.623 253.359 Q799.613 254.794 800.562 257.526 Z" fill="#000000" fill-rule="nonzero" fill-opacity="1" /><path clip-path="url(#clip900)" d="M830.678 274.586 L830.678 288.336 L826.396 288.336 L826.396 252.549 L830.678 252.549 L830.678 256.484 Q832.021 254.169 834.058 253.058 Q836.118 251.924 838.965 251.924 Q843.687 251.924 846.627 255.674 Q849.59 259.424 849.59 265.535 Q849.59 271.646 846.627 275.396 Q843.687 279.146 838.965 279.146 Q836.118 279.146 834.058 278.035 Q832.021 276.9 830.678 274.586 M845.169 265.535 Q845.169 260.836 843.224 258.174 Q841.303 255.489 837.923 255.489 Q834.544 255.489 832.599 258.174 Q830.678 260.836 830.678 265.535 Q830.678 270.234 832.599 272.919 Q834.544 275.581 837.923 275.581 Q841.303 275.581 843.224 272.919 Q845.169 270.234 845.169 265.535 Z" fill="#000000" fill-rule="nonzero" fill-opacity="1" /><polyline clip-path="url(#clip900)" style="stroke:#c271d2; stroke-linecap:round; stroke-linejoin:round; stroke-width:4; stroke-opacity:1; fill:none" points="342.203,313.035 510.381,313.035 "/>
<circle clip-path="url(#clip900)" cx="426.292" cy="313.035" r="20.48" fill="#c271d2" fill-rule="evenodd" fill-opacity="1" stroke="#000000" stroke-opacity="1" stroke-width="5.68889"/>
<path clip-path="url(#clip900)" d="M562.439 316.287 L562.439 318.37 L542.856 318.37 Q543.133 322.768 545.494 325.083 Q547.879 327.375 552.115 327.375 Q554.568 327.375 556.86 326.773 Q559.175 326.171 561.443 324.967 L561.443 328.995 Q559.152 329.967 556.744 330.477 Q554.337 330.986 551.86 330.986 Q545.656 330.986 542.022 327.375 Q538.411 323.764 538.411 317.606 Q538.411 311.241 541.837 307.514 Q545.286 303.764 551.119 303.764 Q556.351 303.764 559.383 307.143 Q562.439 310.5 562.439 316.287 M558.18 315.037 Q558.133 311.541 556.212 309.458 Q554.314 307.375 551.166 307.375 Q547.601 307.375 545.448 309.389 Q543.318 311.403 542.994 315.06 L558.18 315.037 Z" fill="#000000" fill-rule="nonzero" fill-opacity="1" /><path clip-path="url(#clip900)" d="M590.147 304.389 L580.772 317.004 L590.633 330.315 L585.61 330.315 L578.064 320.129 L570.517 330.315 L565.494 330.315 L575.564 316.75 L566.351 304.389 L571.374 304.389 L578.249 313.625 L585.124 304.389 L590.147 304.389 Z" fill="#000000" fill-rule="nonzero" fill-opacity="1" /><path clip-path="url(#clip900)" d="M600.772 326.426 L600.772 340.176 L596.489 340.176 L596.489 304.389 L600.772 304.389 L600.772 308.324 Q602.114 306.009 604.151 304.898 Q606.212 303.764 609.059 303.764 Q613.781 303.764 616.721 307.514 Q619.684 311.264 619.684 317.375 Q619.684 323.486 616.721 327.236 Q613.781 330.986 609.059 330.986 Q606.212 330.986 604.151 329.875 Q602.114 328.74 600.772 326.426 M615.263 317.375 Q615.263 312.676 613.318 310.014 Q611.397 307.329 608.017 307.329 Q604.638 307.329 602.693 310.014 Q600.772 312.676 600.772 317.375 Q600.772 322.074 602.693 324.759 Q604.638 327.421 608.017 327.421 Q611.397 327.421 613.318 324.759 Q615.263 322.074 615.263 317.375 Z" fill="#000000" fill-rule="nonzero" fill-opacity="1" /><path clip-path="url(#clip900)" d="M643.272 305.153 L643.272 309.18 Q641.466 308.254 639.522 307.791 Q637.577 307.329 635.494 307.329 Q632.323 307.329 630.725 308.301 Q629.151 309.273 629.151 311.217 Q629.151 312.699 630.286 313.555 Q631.42 314.389 634.846 315.153 L636.304 315.477 Q640.841 316.449 642.739 318.231 Q644.661 319.99 644.661 323.162 Q644.661 326.773 641.79 328.879 Q638.943 330.986 633.943 330.986 Q631.86 330.986 629.591 330.569 Q627.346 330.176 624.846 329.365 L624.846 324.967 Q627.207 326.194 629.499 326.819 Q631.79 327.421 634.036 327.421 Q637.045 327.421 638.665 326.402 Q640.286 325.361 640.286 323.486 Q640.286 321.75 639.105 320.824 Q637.948 319.898 633.989 319.041 L632.508 318.694 Q628.55 317.861 626.79 316.148 Q625.031 314.412 625.031 311.403 Q625.031 307.745 627.624 305.754 Q630.216 303.764 634.985 303.764 Q637.346 303.764 639.429 304.111 Q641.512 304.458 643.272 305.153 Z" fill="#000000" fill-rule="nonzero" fill-opacity="1" /><path clip-path="url(#clip900)" d="M651.003 320.083 L651.003 304.389 L655.262 304.389 L655.262 319.921 Q655.262 323.602 656.698 325.453 Q658.133 327.282 661.003 327.282 Q664.452 327.282 666.443 325.083 Q668.457 322.884 668.457 319.088 L668.457 304.389 L672.716 304.389 L672.716 330.315 L668.457 330.315 L668.457 326.333 Q666.906 328.694 664.846 329.852 Q662.809 330.986 660.1 330.986 Q655.633 330.986 653.318 328.208 Q651.003 325.43 651.003 320.083 M661.721 303.764 L661.721 303.764 Z" fill="#000000" fill-rule="nonzero" fill-opacity="1" /><path clip-path="url(#clip900)" d="M701.674 309.366 Q703.271 306.495 705.494 305.129 Q707.716 303.764 710.725 303.764 Q714.776 303.764 716.975 306.611 Q719.174 309.435 719.174 314.666 L719.174 330.315 L714.892 330.315 L714.892 314.805 Q714.892 311.078 713.572 309.273 Q712.253 307.467 709.544 307.467 Q706.234 307.467 704.313 309.666 Q702.392 311.866 702.392 315.662 L702.392 330.315 L698.109 330.315 L698.109 314.805 Q698.109 311.055 696.79 309.273 Q695.47 307.467 692.716 307.467 Q689.452 307.467 687.531 309.69 Q685.609 311.889 685.609 315.662 L685.609 330.315 L681.327 330.315 L681.327 304.389 L685.609 304.389 L685.609 308.416 Q687.068 306.032 689.105 304.898 Q691.142 303.764 693.943 303.764 Q696.767 303.764 698.734 305.199 Q700.725 306.634 701.674 309.366 Z" fill="#000000" fill-rule="nonzero" fill-opacity="1" /><path clip-path="url(#clip900)" d="M747.368 338.185 L747.368 341.495 L722.739 341.495 L722.739 338.185 L747.368 338.185 Z" fill="#000000" fill-rule="nonzero" fill-opacity="1" /><path clip-path="url(#clip900)" d="M767.901 305.153 L767.901 309.18 Q766.095 308.254 764.151 307.791 Q762.206 307.329 760.123 307.329 Q756.952 307.329 755.354 308.301 Q753.78 309.273 753.78 311.217 Q753.78 312.699 754.915 313.555 Q756.049 314.389 759.475 315.153 L760.933 315.477 Q765.47 316.449 767.368 318.231 Q769.289 319.99 769.289 323.162 Q769.289 326.773 766.419 328.879 Q763.572 330.986 758.572 330.986 Q756.489 330.986 754.22 330.569 Q751.975 330.176 749.475 329.365 L749.475 324.967 Q751.836 326.194 754.128 326.819 Q756.419 327.421 758.665 327.421 Q761.674 327.421 763.294 326.402 Q764.915 325.361 764.915 323.486 Q764.915 321.75 763.734 320.824 Q762.577 319.898 758.618 319.041 L757.137 318.694 Q753.178 317.861 751.419 316.148 Q749.66 314.412 749.66 311.403 Q749.66 307.745 752.253 305.754 Q754.845 303.764 759.614 303.764 Q761.975 303.764 764.058 304.111 Q766.141 304.458 767.901 305.153 Z" fill="#000000" fill-rule="nonzero" fill-opacity="1" /><path clip-path="url(#clip900)" d="M780.285 297.028 L780.285 304.389 L789.058 304.389 L789.058 307.699 L780.285 307.699 L780.285 321.773 Q780.285 324.944 781.141 325.847 Q782.021 326.75 784.683 326.75 L789.058 326.75 L789.058 330.315 L784.683 330.315 Q779.752 330.315 777.877 328.486 Q776.002 326.634 776.002 321.773 L776.002 307.699 L772.877 307.699 L772.877 304.389 L776.002 304.389 L776.002 297.028 L780.285 297.028 Z" fill="#000000" fill-rule="nonzero" fill-opacity="1" /><path clip-path="url(#clip900)" d="M811.72 308.324 L811.72 294.296 L815.979 294.296 L815.979 330.315 L811.72 330.315 L811.72 326.426 Q810.377 328.74 808.317 329.875 Q806.28 330.986 803.41 330.986 Q798.711 330.986 795.748 327.236 Q792.808 323.486 792.808 317.375 Q792.808 311.264 795.748 307.514 Q798.711 303.764 803.41 303.764 Q806.28 303.764 808.317 304.898 Q810.377 306.009 811.72 308.324 M797.206 317.375 Q797.206 322.074 799.127 324.759 Q801.072 327.421 804.451 327.421 Q807.831 327.421 809.775 324.759 Q811.72 322.074 811.72 317.375 Q811.72 312.676 809.775 310.014 Q807.831 307.329 804.451 307.329 Q801.072 307.329 799.127 310.014 Q797.206 312.676 797.206 317.375 Z" fill="#000000" fill-rule="nonzero" fill-opacity="1" /><polyline clip-path="url(#clip900)" style="stroke:#ac8d18; stroke-linecap:round; stroke-linejoin:round; stroke-width:4; stroke-opacity:1; fill:none" points="342.203,364.875 510.381,364.875 "/>
<circle clip-path="url(#clip900)" cx="426.292" cy="364.875" r="20.48" fill="#ac8d18" fill-rule="evenodd" fill-opacity="1" stroke="#000000" stroke-opacity="1" stroke-width="5.68889"/>
<path clip-path="url(#clip900)" d="M562.439 368.127 L562.439 370.21 L542.856 370.21 Q543.133 374.608 545.494 376.923 Q547.879 379.215 552.115 379.215 Q554.568 379.215 556.86 378.613 Q559.175 378.011 561.443 376.807 L561.443 380.835 Q559.152 381.807 556.744 382.317 Q554.337 382.826 551.86 382.826 Q545.656 382.826 542.022 379.215 Q538.411 375.604 538.411 369.446 Q538.411 363.081 541.837 359.354 Q545.286 355.604 551.119 355.604 Q556.351 355.604 559.383 358.983 Q562.439 362.34 562.439 368.127 M558.18 366.877 Q558.133 363.381 556.212 361.298 Q554.314 359.215 551.166 359.215 Q547.601 359.215 545.448 361.229 Q543.318 363.243 542.994 366.9 L558.18 366.877 Z" fill="#000000" fill-rule="nonzero" fill-opacity="1" /><path clip-path="url(#clip900)" d="M590.147 356.229 L580.772 368.844 L590.633 382.155 L585.61 382.155 L578.064 371.969 L570.517 382.155 L565.494 382.155 L575.564 368.59 L566.351 356.229 L571.374 356.229 L578.249 365.465 L585.124 356.229 L590.147 356.229 Z" fill="#000000" fill-rule="nonzero" fill-opacity="1" /><path clip-path="url(#clip900)" d="M600.772 378.266 L600.772 392.016 L596.489 392.016 L596.489 356.229 L600.772 356.229 L600.772 360.164 Q602.114 357.849 604.151 356.738 Q606.212 355.604 609.059 355.604 Q613.781 355.604 616.721 359.354 Q619.684 363.104 619.684 369.215 Q619.684 375.326 616.721 379.076 Q613.781 382.826 609.059 382.826 Q606.212 382.826 604.151 381.715 Q602.114 380.58 600.772 378.266 M615.263 369.215 Q615.263 364.516 613.318 361.854 Q611.397 359.169 608.017 359.169 Q604.638 359.169 602.693 361.854 Q600.772 364.516 600.772 369.215 Q600.772 373.914 602.693 376.599 Q604.638 379.261 608.017 379.261 Q611.397 379.261 613.318 376.599 Q615.263 373.914 615.263 369.215 Z" fill="#000000" fill-rule="nonzero" fill-opacity="1" /><path clip-path="url(#clip900)" d="M643.272 356.993 L643.272 361.02 Q641.466 360.094 639.522 359.631 Q637.577 359.169 635.494 359.169 Q632.323 359.169 630.725 360.141 Q629.151 361.113 629.151 363.057 Q629.151 364.539 630.286 365.395 Q631.42 366.229 634.846 366.993 L636.304 367.317 Q640.841 368.289 642.739 370.071 Q644.661 371.83 644.661 375.002 Q644.661 378.613 641.79 380.719 Q638.943 382.826 633.943 382.826 Q631.86 382.826 629.591 382.409 Q627.346 382.016 624.846 381.205 L624.846 376.807 Q627.207 378.034 629.499 378.659 Q631.79 379.261 634.036 379.261 Q637.045 379.261 638.665 378.242 Q640.286 377.201 640.286 375.326 Q640.286 373.59 639.105 372.664 Q637.948 371.738 633.989 370.881 L632.508 370.534 Q628.55 369.701 626.79 367.988 Q625.031 366.252 625.031 363.243 Q625.031 359.585 627.624 357.594 Q630.216 355.604 634.985 355.604 Q637.346 355.604 639.429 355.951 Q641.512 356.298 643.272 356.993 Z" fill="#000000" fill-rule="nonzero" fill-opacity="1" /><path clip-path="url(#clip900)" d="M651.003 371.923 L651.003 356.229 L655.262 356.229 L655.262 371.761 Q655.262 375.442 656.698 377.293 Q658.133 379.122 661.003 379.122 Q664.452 379.122 666.443 376.923 Q668.457 374.724 668.457 370.928 L668.457 356.229 L672.716 356.229 L672.716 382.155 L668.457 382.155 L668.457 378.173 Q666.906 380.534 664.846 381.692 Q662.809 382.826 660.1 382.826 Q655.633 382.826 653.318 380.048 Q651.003 377.27 651.003 371.923 M661.721 355.604 L661.721 355.604 Z" fill="#000000" fill-rule="nonzero" fill-opacity="1" /><path clip-path="url(#clip900)" d="M701.674 361.206 Q703.271 358.335 705.494 356.969 Q707.716 355.604 710.725 355.604 Q714.776 355.604 716.975 358.451 Q719.174 361.275 719.174 366.506 L719.174 382.155 L714.892 382.155 L714.892 366.645 Q714.892 362.918 713.572 361.113 Q712.253 359.307 709.544 359.307 Q706.234 359.307 704.313 361.506 Q702.392 363.706 702.392 367.502 L702.392 382.155 L698.109 382.155 L698.109 366.645 Q698.109 362.895 696.79 361.113 Q695.47 359.307 692.716 359.307 Q689.452 359.307 687.531 361.53 Q685.609 363.729 685.609 367.502 L685.609 382.155 L681.327 382.155 L681.327 356.229 L685.609 356.229 L685.609 360.256 Q687.068 357.872 689.105 356.738 Q691.142 355.604 693.943 355.604 Q696.767 355.604 698.734 357.039 Q700.725 358.474 701.674 361.206 Z" fill="#000000" fill-rule="nonzero" fill-opacity="1" /><path clip-path="url(#clip900)" d="M747.368 390.025 L747.368 393.335 L722.739 393.335 L722.739 390.025 L747.368 390.025 Z" fill="#000000" fill-rule="nonzero" fill-opacity="1" /><path clip-path="url(#clip900)" d="M755.586 348.868 L755.586 356.229 L764.359 356.229 L764.359 359.539 L755.586 359.539 L755.586 373.613 Q755.586 376.784 756.442 377.687 Q757.322 378.59 759.984 378.59 L764.359 378.59 L764.359 382.155 L759.984 382.155 Q755.053 382.155 753.178 380.326 Q751.303 378.474 751.303 373.613 L751.303 359.539 L748.178 359.539 L748.178 356.229 L751.303 356.229 L751.303 348.868 L755.586 348.868 Z" fill="#000000" fill-rule="nonzero" fill-opacity="1" /><path clip-path="url(#clip900)" d="M788.572 369.215 Q788.572 364.516 786.627 361.854 Q784.706 359.169 781.326 359.169 Q777.947 359.169 776.002 361.854 Q774.081 364.516 774.081 369.215 Q774.081 373.914 776.002 376.599 Q777.947 379.261 781.326 379.261 Q784.706 379.261 786.627 376.599 Q788.572 373.914 788.572 369.215 M774.081 360.164 Q775.424 357.849 777.461 356.738 Q779.521 355.604 782.368 355.604 Q787.09 355.604 790.03 359.354 Q792.993 363.104 792.993 369.215 Q792.993 375.326 790.03 379.076 Q787.09 382.826 782.368 382.826 Q779.521 382.826 777.461 381.715 Q775.424 380.58 774.081 378.266 L774.081 382.155 L769.799 382.155 L769.799 346.136 L774.081 346.136 L774.081 360.164 Z" fill="#000000" fill-rule="nonzero" fill-opacity="1" /><path clip-path="url(#clip900)" d="M818.664 369.215 Q818.664 364.516 816.72 361.854 Q814.799 359.169 811.419 359.169 Q808.039 359.169 806.095 361.854 Q804.174 364.516 804.174 369.215 Q804.174 373.914 806.095 376.599 Q808.039 379.261 811.419 379.261 Q814.799 379.261 816.72 376.599 Q818.664 373.914 818.664 369.215 M804.174 360.164 Q805.516 357.849 807.553 356.738 Q809.613 355.604 812.461 355.604 Q817.183 355.604 820.123 359.354 Q823.086 363.104 823.086 369.215 Q823.086 375.326 820.123 379.076 Q817.183 382.826 812.461 382.826 Q809.613 382.826 807.553 381.715 Q805.516 380.58 804.174 378.266 L804.174 382.155 L799.891 382.155 L799.891 346.136 L804.174 346.136 L804.174 360.164 Z" fill="#000000" fill-rule="nonzero" fill-opacity="1" /><polyline clip-path="url(#clip900)" style="stroke:#00a9ad; stroke-linecap:round; stroke-linejoin:round; stroke-width:4; stroke-opacity:1; fill:none" points="342.203,416.715 510.381,416.715 "/>
<circle clip-path="url(#clip900)" cx="426.292" cy="416.715" r="20.48" fill="#00a9ad" fill-rule="evenodd" fill-opacity="1" stroke="#000000" stroke-opacity="1" stroke-width="5.68889"/>
<path clip-path="url(#clip900)" d="M562.439 419.967 L562.439 422.05 L542.856 422.05 Q543.133 426.448 545.494 428.763 Q547.879 431.055 552.115 431.055 Q554.568 431.055 556.86 430.453 Q559.175 429.851 561.443 428.647 L561.443 432.675 Q559.152 433.647 556.744 434.157 Q554.337 434.666 551.86 434.666 Q545.656 434.666 542.022 431.055 Q538.411 427.444 538.411 421.286 Q538.411 414.921 541.837 411.194 Q545.286 407.444 551.119 407.444 Q556.351 407.444 559.383 410.823 Q562.439 414.18 562.439 419.967 M558.18 418.717 Q558.133 415.221 556.212 413.138 Q554.314 411.055 551.166 411.055 Q547.601 411.055 545.448 413.069 Q543.318 415.083 542.994 418.74 L558.18 418.717 Z" fill="#000000" fill-rule="nonzero" fill-opacity="1" /><path clip-path="url(#clip900)" d="M590.147 408.069 L580.772 420.684 L590.633 433.995 L585.61 433.995 L578.064 423.809 L570.517 433.995 L565.494 433.995 L575.564 420.43 L566.351 408.069 L571.374 408.069 L578.249 417.305 L585.124 408.069 L590.147 408.069 Z" fill="#000000" fill-rule="nonzero" fill-opacity="1" /><path clip-path="url(#clip900)" d="M600.772 430.106 L600.772 443.856 L596.489 443.856 L596.489 408.069 L600.772 408.069 L600.772 412.004 Q602.114 409.689 604.151 408.578 Q606.212 407.444 609.059 407.444 Q613.781 407.444 616.721 411.194 Q619.684 414.944 619.684 421.055 Q619.684 427.166 616.721 430.916 Q613.781 434.666 609.059 434.666 Q606.212 434.666 604.151 433.555 Q602.114 432.42 600.772 430.106 M615.263 421.055 Q615.263 416.356 613.318 413.694 Q611.397 411.009 608.017 411.009 Q604.638 411.009 602.693 413.694 Q600.772 416.356 600.772 421.055 Q600.772 425.754 602.693 428.439 Q604.638 431.101 608.017 431.101 Q611.397 431.101 613.318 428.439 Q615.263 425.754 615.263 421.055 Z" fill="#000000" fill-rule="nonzero" fill-opacity="1" /><path clip-path="url(#clip900)" d="M643.272 408.833 L643.272 412.86 Q641.466 411.934 639.522 411.471 Q637.577 411.009 635.494 411.009 Q632.323 411.009 630.725 411.981 Q629.151 412.953 629.151 414.897 Q629.151 416.379 630.286 417.235 Q631.42 418.069 634.846 418.833 L636.304 419.157 Q640.841 420.129 642.739 421.911 Q644.661 423.67 644.661 426.842 Q644.661 430.453 641.79 432.559 Q638.943 434.666 633.943 434.666 Q631.86 434.666 629.591 434.249 Q627.346 433.856 624.846 433.045 L624.846 428.647 Q627.207 429.874 629.499 430.499 Q631.79 431.101 634.036 431.101 Q637.045 431.101 638.665 430.082 Q640.286 429.041 640.286 427.166 Q640.286 425.43 639.105 424.504 Q637.948 423.578 633.989 422.721 L632.508 422.374 Q628.55 421.541 626.79 419.828 Q625.031 418.092 625.031 415.083 Q625.031 411.425 627.624 409.434 Q630.216 407.444 634.985 407.444 Q637.346 407.444 639.429 407.791 Q641.512 408.138 643.272 408.833 Z" fill="#000000" fill-rule="nonzero" fill-opacity="1" /><path clip-path="url(#clip900)" d="M651.003 423.763 L651.003 408.069 L655.262 408.069 L655.262 423.601 Q655.262 427.282 656.698 429.133 Q658.133 430.962 661.003 430.962 Q664.452 430.962 666.443 428.763 Q668.457 426.564 668.457 422.768 L668.457 408.069 L672.716 408.069 L672.716 433.995 L668.457 433.995 L668.457 430.013 Q666.906 432.374 664.846 433.532 Q662.809 434.666 660.1 434.666 Q655.633 434.666 653.318 431.888 Q651.003 429.11 651.003 423.763 M661.721 407.444 L661.721 407.444 Z" fill="#000000" fill-rule="nonzero" fill-opacity="1" /><path clip-path="url(#clip900)" d="M701.674 413.046 Q703.271 410.175 705.494 408.809 Q707.716 407.444 710.725 407.444 Q714.776 407.444 716.975 410.291 Q719.174 413.115 719.174 418.346 L719.174 433.995 L714.892 433.995 L714.892 418.485 Q714.892 414.758 713.572 412.953 Q712.253 411.147 709.544 411.147 Q706.234 411.147 704.313 413.346 Q702.392 415.546 702.392 419.342 L702.392 433.995 L698.109 433.995 L698.109 418.485 Q698.109 414.735 696.79 412.953 Q695.47 411.147 692.716 411.147 Q689.452 411.147 687.531 413.37 Q685.609 415.569 685.609 419.342 L685.609 433.995 L681.327 433.995 L681.327 408.069 L685.609 408.069 L685.609 412.096 Q687.068 409.712 689.105 408.578 Q691.142 407.444 693.943 407.444 Q696.767 407.444 698.734 408.879 Q700.725 410.314 701.674 413.046 Z" fill="#000000" fill-rule="nonzero" fill-opacity="1" /><path clip-path="url(#clip900)" d="M747.368 441.865 L747.368 445.175 L722.739 445.175 L722.739 441.865 L747.368 441.865 Z" fill="#000000" fill-rule="nonzero" fill-opacity="1" /><path clip-path="url(#clip900)" d="M772.924 408.069 L763.549 420.684 L773.41 433.995 L768.387 433.995 L760.84 423.809 L753.294 433.995 L748.271 433.995 L758.34 420.43 L749.128 408.069 L754.151 408.069 L761.026 417.305 L767.901 408.069 L772.924 408.069 Z" fill="#000000" fill-rule="nonzero" fill-opacity="1" /><path clip-path="url(#clip900)" d="M795.956 408.833 L795.956 412.86 Q794.15 411.934 792.206 411.471 Q790.262 411.009 788.178 411.009 Q785.007 411.009 783.41 411.981 Q781.836 412.953 781.836 414.897 Q781.836 416.379 782.97 417.235 Q784.104 418.069 787.53 418.833 L788.988 419.157 Q793.525 420.129 795.424 421.911 Q797.345 423.67 797.345 426.842 Q797.345 430.453 794.475 432.559 Q791.627 434.666 786.627 434.666 Q784.544 434.666 782.276 434.249 Q780.03 433.856 777.53 433.045 L777.53 428.647 Q779.891 429.874 782.183 430.499 Q784.475 431.101 786.72 431.101 Q789.729 431.101 791.35 430.082 Q792.97 429.041 792.97 427.166 Q792.97 425.43 791.789 424.504 Q790.632 423.578 786.674 422.721 L785.192 422.374 Q781.234 421.541 779.475 419.828 Q777.715 418.092 777.715 415.083 Q777.715 411.425 780.308 409.434 Q782.901 407.444 787.669 407.444 Q790.03 407.444 792.113 407.791 Q794.197 408.138 795.956 408.833 Z" fill="#000000" fill-rule="nonzero" fill-opacity="1" /><path clip-path="url(#clip900)" d="M804.127 408.069 L808.387 408.069 L808.387 433.995 L804.127 433.995 L804.127 408.069 M804.127 397.976 L808.387 397.976 L808.387 403.37 L804.127 403.37 L804.127 397.976 Z" fill="#000000" fill-rule="nonzero" fill-opacity="1" /><path clip-path="url(#clip900)" d="M837.484 413.046 Q839.081 410.175 841.303 408.809 Q843.525 407.444 846.534 407.444 Q850.585 407.444 852.784 410.291 Q854.983 413.115 854.983 418.346 L854.983 433.995 L850.701 433.995 L850.701 418.485 Q850.701 414.758 849.382 412.953 Q848.062 411.147 845.354 411.147 Q842.044 411.147 840.122 413.346 Q838.201 415.546 838.201 419.342 L838.201 433.995 L833.919 433.995 L833.919 418.485 Q833.919 414.735 832.599 412.953 Q831.28 411.147 828.525 411.147 Q825.261 411.147 823.34 413.37 Q821.419 415.569 821.419 419.342 L821.419 433.995 L817.136 433.995 L817.136 408.069 L821.419 408.069 L821.419 412.096 Q822.877 409.712 824.914 408.578 Q826.951 407.444 829.752 407.444 Q832.576 407.444 834.544 408.879 Q836.535 410.314 837.484 413.046 Z" fill="#000000" fill-rule="nonzero" fill-opacity="1" /><path clip-path="url(#clip900)" d="M880.539 412.004 L880.539 397.976 L884.798 397.976 L884.798 433.995 L880.539 433.995 L880.539 430.106 Q879.196 432.42 877.136 433.555 Q875.099 434.666 872.229 434.666 Q867.53 434.666 864.567 430.916 Q861.627 427.166 861.627 421.055 Q861.627 414.944 864.567 411.194 Q867.53 407.444 872.229 407.444 Q875.099 407.444 877.136 408.578 Q879.196 409.689 880.539 412.004 M866.025 421.055 Q866.025 425.754 867.946 428.439 Q869.891 431.101 873.27 431.101 Q876.65 431.101 878.594 428.439 Q880.539 425.754 880.539 421.055 Q880.539 416.356 878.594 413.694 Q876.65 411.009 873.27 411.009 Q869.891 411.009 867.946 413.694 Q866.025 416.356 866.025 421.055 Z" fill="#000000" fill-rule="nonzero" fill-opacity="1" /></svg>
