<?xml version="1.0" encoding="utf-8"?>
<svg xmlns="http://www.w3.org/2000/svg" xmlns:xlink="http://www.w3.org/1999/xlink" width="700" height="500" viewBox="0 0 2800 2000">
<defs>
  <clipPath id="clip650">
    <rect x="0" y="0" width="2800" height="2000"/>
  </clipPath>
</defs>
<path clip-path="url(#clip650)" d="M0 2000 L2800 2000 L2800 0 L0 0  Z" fill="#ffffff" fill-rule="evenodd" fill-opacity="1"/>
<defs>
  <clipPath id="clip651">
    <rect x="560" y="0" width="1961" height="1961"/>
  </clipPath>
</defs>
<path clip-path="url(#clip650)" d="M230.085 1800.16 L2752.76 1800.16 L2752.76 47.2441 L230.085 47.2441  Z" fill="#ffffff" fill-rule="evenodd" fill-opacity="1"/>
<defs>
  <clipPath id="clip652">
    <rect x="230" y="47" width="2524" height="1754"/>
  </clipPath>
</defs>
<polyline clip-path="url(#clip652)" style="stroke:#000000; stroke-linecap:round; stroke-linejoin:round; stroke-width:2; stroke-opacity:0.1; fill:none" points="301.481,1800.16 301.481,47.2441 "/>
<polyline clip-path="url(#clip652)" style="stroke:#000000; stroke-linecap:round; stroke-linejoin:round; stroke-width:2; stroke-opacity:0.1; fill:none" points="981.446,1800.16 981.446,47.2441 "/>
<polyline clip-path="url(#clip652)" style="stroke:#000000; stroke-linecap:round; stroke-linejoin:round; stroke-width:2; stroke-opacity:0.1; fill:none" points="1661.41,1800.16 1661.41,47.2441 "/>
<polyline clip-path="url(#clip652)" style="stroke:#000000; stroke-linecap:round; stroke-linejoin:round; stroke-width:2; stroke-opacity:0.1; fill:none" points="2341.38,1800.16 2341.38,47.2441 "/>
<polyline clip-path="url(#clip652)" style="stroke:#000000; stroke-linecap:round; stroke-linejoin:round; stroke-width:2; stroke-opacity:0.1; fill:none" points="230.085,1526.64 2752.76,1526.64 "/>
<polyline clip-path="url(#clip652)" style="stroke:#000000; stroke-linecap:round; stroke-linejoin:round; stroke-width:2; stroke-opacity:0.1; fill:none" points="230.085,1109.78 2752.76,1109.78 "/>
<polyline clip-path="url(#clip652)" style="stroke:#000000; stroke-linecap:round; stroke-linejoin:round; stroke-width:2; stroke-opacity:0.1; fill:none" points="230.085,692.928 2752.76,692.928 "/>
<polyline clip-path="url(#clip652)" style="stroke:#000000; stroke-linecap:round; stroke-linejoin:round; stroke-width:2; stroke-opacity:0.1; fill:none" points="230.085,276.074 2752.76,276.074 "/>
<polyline clip-path="url(#clip650)" style="stroke:#000000; stroke-linecap:round; stroke-linejoin:round; stroke-width:4; stroke-opacity:1; fill:none" points="230.085,1800.16 2752.76,1800.16 "/>
<polyline clip-path="url(#clip650)" style="stroke:#000000; stroke-linecap:round; stroke-linejoin:round; stroke-width:4; stroke-opacity:1; fill:none" points="301.481,1800.16 301.481,1781.26 "/>
<polyline clip-path="url(#clip650)" style="stroke:#000000; stroke-linecap:round; stroke-linejoin:round; stroke-width:4; stroke-opacity:1; fill:none" points="981.446,1800.16 981.446,1781.26 "/>
<polyline clip-path="url(#clip650)" style="stroke:#000000; stroke-linecap:round; stroke-linejoin:round; stroke-width:4; stroke-opacity:1; fill:none" points="1661.41,1800.16 1661.41,1781.26 "/>
<polyline clip-path="url(#clip650)" style="stroke:#000000; stroke-linecap:round; stroke-linejoin:round; stroke-width:4; stroke-opacity:1; fill:none" points="2341.38,1800.16 2341.38,1781.26 "/>
<path clip-path="url(#clip650)" d="M267.254 1877.48 L274.893 1877.48 L274.893 1851.12 L266.582 1852.78 L266.582 1848.52 L274.846 1846.86 L279.522 1846.86 L279.522 1877.48 L287.161 1877.48 L287.161 1881.42 L267.254 1881.42 L267.254 1877.48 Z" fill="#000000" fill-rule="nonzero" fill-opacity="1" /><path clip-path="url(#clip650)" d="M306.605 1849.94 Q302.994 1849.94 301.166 1853.5 Q299.36 1857.04 299.36 1864.17 Q299.36 1871.28 301.166 1874.84 Q302.994 1878.38 306.605 1878.38 Q310.24 1878.38 312.045 1874.84 Q313.874 1871.28 313.874 1864.17 Q313.874 1857.04 312.045 1853.5 Q310.24 1849.94 306.605 1849.94 M306.605 1846.23 Q312.416 1846.23 315.471 1850.84 Q318.55 1855.42 318.55 1864.17 Q318.55 1872.9 315.471 1877.5 Q312.416 1882.09 306.605 1882.09 Q300.795 1882.09 297.717 1877.5 Q294.661 1872.9 294.661 1864.17 Q294.661 1855.42 297.717 1850.84 Q300.795 1846.23 306.605 1846.23 Z" fill="#000000" fill-rule="nonzero" fill-opacity="1" /><path clip-path="url(#clip650)" d="M323.12 1850.81 L336.38 1850.81 L336.38 1854.01 L318.55 1854.01 L318.55 1850.81 Q320.713 1848.57 324.437 1844.81 Q328.179 1841.03 329.139 1839.94 Q330.963 1837.89 331.678 1836.48 Q332.411 1835.05 332.411 1833.67 Q332.411 1831.44 330.831 1830.03 Q329.27 1828.62 326.75 1828.62 Q324.963 1828.62 322.97 1829.24 Q320.995 1829.86 318.738 1831.12 L318.738 1827.28 Q321.032 1826.36 323.026 1825.89 Q325.02 1825.42 326.675 1825.42 Q331.038 1825.42 333.634 1827.6 Q336.229 1829.78 336.229 1833.43 Q336.229 1835.16 335.571 1836.72 Q334.931 1838.26 333.22 1840.37 Q332.75 1840.92 330.229 1843.53 Q327.709 1846.13 323.12 1850.81 Z" fill="#000000" fill-rule="nonzero" fill-opacity="1" /><path clip-path="url(#clip650)" d="M945.902 1877.48 L953.541 1877.48 L953.541 1851.12 L945.231 1852.78 L945.231 1848.52 L953.495 1846.86 L958.171 1846.86 L958.171 1877.48 L965.81 1877.48 L965.81 1881.42 L945.902 1881.42 L945.902 1877.48 Z" fill="#000000" fill-rule="nonzero" fill-opacity="1" /><path clip-path="url(#clip650)" d="M985.254 1849.94 Q981.643 1849.94 979.814 1853.5 Q978.009 1857.04 978.009 1864.17 Q978.009 1871.28 979.814 1874.84 Q981.643 1878.38 985.254 1878.38 Q988.888 1878.38 990.694 1874.84 Q992.523 1871.28 992.523 1864.17 Q992.523 1857.04 990.694 1853.5 Q988.888 1849.94 985.254 1849.94 M985.254 1846.23 Q991.064 1846.23 994.12 1850.84 Q997.199 1855.42 997.199 1864.17 Q997.199 1872.9 994.12 1877.5 Q991.064 1882.09 985.254 1882.09 Q979.444 1882.09 976.365 1877.5 Q973.31 1872.9 973.31 1864.17 Q973.31 1855.42 976.365 1850.84 Q979.444 1846.23 985.254 1846.23 Z" fill="#000000" fill-rule="nonzero" fill-opacity="1" /><path clip-path="url(#clip650)" d="M1009.87 1829.24 L1000.28 1844.23 L1009.87 1844.23 L1009.87 1829.24 M1008.88 1825.93 L1013.66 1825.93 L1013.66 1844.23 L1017.66 1844.23 L1017.66 1847.39 L1013.66 1847.39 L1013.66 1854.01 L1009.87 1854.01 L1009.87 1847.39 L997.199 1847.39 L997.199 1843.72 L1008.88 1825.93 Z" fill="#000000" fill-rule="nonzero" fill-opacity="1" /><path clip-path="url(#clip650)" d="M1626.4 1877.48 L1634.04 1877.48 L1634.04 1851.12 L1625.73 1852.78 L1625.73 1848.52 L1634 1846.86 L1638.67 1846.86 L1638.67 1877.48 L1646.31 1877.48 L1646.31 1881.42 L1626.4 1881.42 L1626.4 1877.48 Z" fill="#000000" fill-rule="nonzero" fill-opacity="1" /><path clip-path="url(#clip650)" d="M1665.76 1849.94 Q1662.14 1849.94 1660.32 1853.5 Q1658.51 1857.04 1658.51 1864.17 Q1658.51 1871.28 1660.32 1874.84 Q1662.14 1878.38 1665.76 1878.38 Q1669.39 1878.38 1671.2 1874.84 Q1673.02 1871.28 1673.02 1864.17 Q1673.02 1857.04 1671.2 1853.5 Q1669.39 1849.94 1665.76 1849.94 M1665.76 1846.23 Q1671.57 1846.23 1674.62 1850.84 Q1677.7 1855.42 1677.7 1864.17 Q1677.7 1872.9 1674.62 1877.5 Q1671.57 1882.09 1665.76 1882.09 Q1659.95 1882.09 1656.87 1877.5 Q1653.81 1872.9 1653.81 1864.17 Q1653.81 1855.42 1656.87 1850.84 Q1659.95 1846.23 1665.76 1846.23 Z" fill="#000000" fill-rule="nonzero" fill-opacity="1" /><path clip-path="url(#clip650)" d="M1687.72 1838.45 Q1685.17 1838.45 1683.66 1840.2 Q1682.18 1841.95 1682.18 1845 Q1682.18 1848.03 1683.66 1849.79 Q1685.17 1851.54 1687.72 1851.54 Q1690.28 1851.54 1691.77 1849.79 Q1693.27 1848.03 1693.27 1845 Q1693.27 1841.95 1691.77 1840.2 Q1690.28 1838.45 1687.72 1838.45 M1695.27 1826.55 L1695.27 1830.01 Q1693.84 1829.33 1692.37 1828.97 Q1690.92 1828.62 1689.49 1828.62 Q1685.73 1828.62 1683.74 1831.15 Q1681.76 1833.69 1681.48 1838.83 Q1682.59 1837.19 1684.26 1836.33 Q1685.94 1835.44 1687.95 1835.44 Q1692.18 1835.44 1694.63 1838.02 Q1697.09 1840.58 1697.09 1845 Q1697.09 1849.32 1694.53 1851.94 Q1691.97 1854.55 1687.72 1854.55 Q1682.85 1854.55 1680.28 1850.83 Q1677.7 1847.08 1677.7 1839.99 Q1677.7 1833.34 1680.86 1829.39 Q1684.02 1825.42 1689.34 1825.42 Q1690.77 1825.42 1692.22 1825.7 Q1693.69 1825.98 1695.27 1826.55 Z" fill="#000000" fill-rule="nonzero" fill-opacity="1" /><path clip-path="url(#clip650)" d="M2306.43 1877.48 L2314.07 1877.48 L2314.07 1851.12 L2305.76 1852.78 L2305.76 1848.52 L2314.03 1846.86 L2318.7 1846.86 L2318.7 1877.48 L2326.34 1877.48 L2326.34 1881.42 L2306.43 1881.42 L2306.43 1877.48 Z" fill="#000000" fill-rule="nonzero" fill-opacity="1" /><path clip-path="url(#clip650)" d="M2345.79 1849.94 Q2342.18 1849.94 2340.35 1853.5 Q2338.54 1857.04 2338.54 1864.17 Q2338.54 1871.28 2340.35 1874.84 Q2342.18 1878.38 2345.79 1878.38 Q2349.42 1878.38 2351.23 1874.84 Q2353.06 1871.28 2353.06 1864.17 Q2353.06 1857.04 2351.23 1853.5 Q2349.42 1849.94 2345.79 1849.94 M2345.79 1846.23 Q2351.6 1846.23 2354.65 1850.84 Q2357.73 1855.42 2357.73 1864.17 Q2357.73 1872.9 2354.65 1877.5 Q2351.6 1882.09 2345.79 1882.09 Q2339.98 1882.09 2336.9 1877.5 Q2333.84 1872.9 2333.84 1864.17 Q2333.84 1855.42 2336.9 1850.84 Q2339.98 1846.23 2345.79 1846.23 Z" fill="#000000" fill-rule="nonzero" fill-opacity="1" /><path clip-path="url(#clip650)" d="M2367.36 1840.67 Q2364.65 1840.67 2363.09 1842.12 Q2361.55 1843.57 2361.55 1846.11 Q2361.55 1848.65 2363.09 1850.09 Q2364.65 1851.54 2367.36 1851.54 Q2370.07 1851.54 2371.63 1850.09 Q2373.19 1848.63 2373.19 1846.11 Q2373.19 1843.57 2371.63 1842.12 Q2370.09 1840.67 2367.36 1840.67 M2363.56 1839.05 Q2361.12 1838.45 2359.74 1836.78 Q2358.39 1835.1 2358.39 1832.7 Q2358.39 1829.33 2360.78 1827.37 Q2363.19 1825.42 2367.36 1825.42 Q2371.55 1825.42 2373.94 1827.37 Q2376.33 1829.33 2376.33 1832.7 Q2376.33 1835.1 2374.96 1836.78 Q2373.6 1838.45 2371.18 1839.05 Q2373.92 1839.69 2375.45 1841.56 Q2376.99 1843.42 2376.99 1846.11 Q2376.99 1850.19 2374.49 1852.37 Q2372.01 1854.55 2367.36 1854.55 Q2362.72 1854.55 2360.21 1852.37 Q2357.73 1850.19 2357.73 1846.11 Q2357.73 1843.42 2359.27 1841.56 Q2360.82 1839.69 2363.56 1839.05 M2362.17 1833.05 Q2362.17 1835.24 2363.52 1836.46 Q2364.9 1837.68 2367.36 1837.68 Q2369.81 1837.68 2371.18 1836.46 Q2372.57 1835.24 2372.57 1833.05 Q2372.57 1830.87 2371.18 1829.65 Q2369.81 1828.43 2367.36 1828.43 Q2364.9 1828.43 2363.52 1829.65 Q2362.17 1830.87 2362.17 1833.05 Z" fill="#000000" fill-rule="nonzero" fill-opacity="1" /><path clip-path="url(#clip650)" d="M1458.99 1923.48 L1458.99 1929.76 Q1455.33 1928 1452.08 1927.15 Q1448.83 1926.29 1445.81 1926.29 Q1440.56 1926.29 1437.69 1928.32 Q1434.86 1930.36 1434.86 1934.12 Q1434.86 1937.27 1436.74 1938.89 Q1438.65 1940.48 1443.93 1941.47 L1447.82 1942.26 Q1455.01 1943.63 1458.41 1947.1 Q1461.85 1950.54 1461.85 1956.33 Q1461.85 1963.24 1457.2 1966.8 Q1452.59 1970.37 1443.65 1970.37 Q1440.27 1970.37 1436.45 1969.6 Q1432.66 1968.84 1428.59 1967.34 L1428.59 1960.72 Q1432.51 1962.92 1436.26 1964.03 Q1440.02 1965.15 1443.65 1965.15 Q1449.15 1965.15 1452.14 1962.98 Q1455.14 1960.82 1455.14 1956.81 Q1455.14 1953.31 1452.97 1951.33 Q1450.84 1949.36 1445.94 1948.37 L1442.02 1947.61 Q1434.83 1946.18 1431.61 1943.12 Q1428.4 1940.07 1428.4 1934.62 Q1428.4 1928.32 1432.82 1924.69 Q1437.28 1921.07 1445.08 1921.07 Q1448.42 1921.07 1451.89 1921.67 Q1455.36 1922.28 1458.99 1923.48 Z" fill="#000000" fill-rule="nonzero" fill-opacity="1" /><path clip-path="url(#clip650)" d="M1471.62 1933.8 L1477.48 1933.8 L1477.48 1969.45 L1471.62 1969.45 L1471.62 1933.8 M1471.62 1919.92 L1477.48 1919.92 L1477.48 1927.34 L1471.62 1927.34 L1471.62 1919.92 Z" fill="#000000" fill-rule="nonzero" fill-opacity="1" /><path clip-path="url(#clip650)" d="M1487.19 1933.8 L1515.01 1933.8 L1515.01 1939.14 L1492.98 1964.77 L1515.01 1964.77 L1515.01 1969.45 L1486.39 1969.45 L1486.39 1964.1 L1508.42 1938.48 L1487.19 1938.48 L1487.19 1933.8 Z" fill="#000000" fill-rule="nonzero" fill-opacity="1" /><path clip-path="url(#clip650)" d="M1554.44 1950.16 L1554.44 1953.02 L1527.51 1953.02 Q1527.9 1959.07 1531.14 1962.25 Q1534.42 1965.4 1540.25 1965.4 Q1543.62 1965.4 1546.77 1964.58 Q1549.95 1963.75 1553.07 1962.09 L1553.07 1967.63 Q1549.92 1968.97 1546.61 1969.67 Q1543.3 1970.37 1539.9 1970.37 Q1531.37 1970.37 1526.37 1965.4 Q1521.4 1960.44 1521.4 1951.97 Q1521.4 1943.22 1526.11 1938.09 Q1530.86 1932.94 1538.88 1932.94 Q1546.07 1932.94 1550.24 1937.58 Q1554.44 1942.2 1554.44 1950.16 M1548.58 1948.44 Q1548.52 1943.63 1545.88 1940.77 Q1543.27 1937.9 1538.94 1937.9 Q1534.04 1937.9 1531.08 1940.67 Q1528.15 1943.44 1527.7 1948.47 L1548.58 1948.44 Z" fill="#000000" fill-rule="nonzero" fill-opacity="1" /><polyline clip-path="url(#clip650)" style="stroke:#000000; stroke-linecap:round; stroke-linejoin:round; stroke-width:4; stroke-opacity:1; fill:none" points="230.085,1800.16 230.085,47.2441 "/>
<polyline clip-path="url(#clip650)" style="stroke:#000000; stroke-linecap:round; stroke-linejoin:round; stroke-width:4; stroke-opacity:1; fill:none" points="230.085,1526.64 248.982,1526.64 "/>
<polyline clip-path="url(#clip650)" style="stroke:#000000; stroke-linecap:round; stroke-linejoin:round; stroke-width:4; stroke-opacity:1; fill:none" points="230.085,1109.78 248.982,1109.78 "/>
<polyline clip-path="url(#clip650)" style="stroke:#000000; stroke-linecap:round; stroke-linejoin:round; stroke-width:4; stroke-opacity:1; fill:none" points="230.085,692.928 248.982,692.928 "/>
<polyline clip-path="url(#clip650)" style="stroke:#000000; stroke-linecap:round; stroke-linejoin:round; stroke-width:4; stroke-opacity:1; fill:none" points="230.085,276.074 248.982,276.074 "/>
<path clip-path="url(#clip650)" d="M118.959 1546.43 L126.598 1546.43 L126.598 1520.06 L118.288 1521.73 L118.288 1517.47 L126.551 1515.8 L131.227 1515.8 L131.227 1546.43 L138.866 1546.43 L138.866 1550.36 L118.959 1550.36 L118.959 1546.43 Z" fill="#000000" fill-rule="nonzero" fill-opacity="1" /><path clip-path="url(#clip650)" d="M158.31 1518.88 Q154.699 1518.88 152.871 1522.45 Q151.065 1525.99 151.065 1533.12 Q151.065 1540.22 152.871 1543.79 Q154.699 1547.33 158.31 1547.33 Q161.945 1547.33 163.75 1543.79 Q165.579 1540.22 165.579 1533.12 Q165.579 1525.99 163.75 1522.45 Q161.945 1518.88 158.31 1518.88 M158.31 1515.18 Q164.121 1515.18 167.176 1519.78 Q170.255 1524.37 170.255 1533.12 Q170.255 1541.84 167.176 1546.45 Q164.121 1551.03 158.31 1551.03 Q152.5 1551.03 149.422 1546.45 Q146.366 1541.84 146.366 1533.12 Q146.366 1524.37 149.422 1519.78 Q152.5 1515.18 158.31 1515.18 Z" fill="#000000" fill-rule="nonzero" fill-opacity="1" /><path clip-path="url(#clip650)" d="M174.825 1519.76 L188.085 1519.76 L188.085 1522.95 L170.255 1522.95 L170.255 1519.76 Q172.418 1517.52 176.142 1513.76 Q179.884 1509.98 180.844 1508.88 Q182.668 1506.83 183.383 1505.42 Q184.116 1503.99 184.116 1502.62 Q184.116 1500.38 182.536 1498.97 Q180.975 1497.56 178.455 1497.56 Q176.668 1497.56 174.675 1498.18 Q172.7 1498.8 170.443 1500.06 L170.443 1496.23 Q172.737 1495.31 174.731 1494.84 Q176.725 1494.37 178.38 1494.37 Q182.743 1494.37 185.339 1496.55 Q187.934 1498.73 187.934 1502.38 Q187.934 1504.11 187.276 1505.67 Q186.636 1507.21 184.925 1509.32 Q184.455 1509.86 181.934 1512.48 Q179.414 1515.07 174.825 1519.76 Z" fill="#000000" fill-rule="nonzero" fill-opacity="1" /><path clip-path="url(#clip650)" d="M116.326 1129.57 L123.965 1129.57 L123.965 1103.21 L115.654 1104.88 L115.654 1100.62 L123.918 1098.95 L128.594 1098.95 L128.594 1129.57 L136.233 1129.57 L136.233 1133.51 L116.326 1133.51 L116.326 1129.57 Z" fill="#000000" fill-rule="nonzero" fill-opacity="1" /><path clip-path="url(#clip650)" d="M155.677 1102.03 Q152.066 1102.03 150.238 1105.59 Q148.432 1109.13 148.432 1116.26 Q148.432 1123.37 150.238 1126.94 Q152.066 1130.48 155.677 1130.48 Q159.312 1130.48 161.117 1126.94 Q162.946 1123.37 162.946 1116.26 Q162.946 1109.13 161.117 1105.59 Q159.312 1102.03 155.677 1102.03 M155.677 1098.32 Q161.488 1098.32 164.543 1102.93 Q167.622 1107.51 167.622 1116.26 Q167.622 1124.99 164.543 1129.6 Q161.488 1134.18 155.677 1134.18 Q149.867 1134.18 146.789 1129.6 Q143.733 1124.99 143.733 1116.26 Q143.733 1107.51 146.789 1102.93 Q149.867 1098.32 155.677 1098.32 Z" fill="#000000" fill-rule="nonzero" fill-opacity="1" /><path clip-path="url(#clip650)" d="M180.298 1081.33 L170.706 1096.32 L180.298 1096.32 L180.298 1081.33 M179.301 1078.02 L184.079 1078.02 L184.079 1096.32 L188.085 1096.32 L188.085 1099.48 L184.079 1099.48 L184.079 1106.1 L180.298 1106.1 L180.298 1099.48 L167.622 1099.48 L167.622 1095.81 L179.301 1078.02 Z" fill="#000000" fill-rule="nonzero" fill-opacity="1" /><path clip-path="url(#clip650)" d="M117.398 712.72 L125.037 712.72 L125.037 686.354 L116.726 688.021 L116.726 683.762 L124.99 682.095 L129.666 682.095 L129.666 712.72 L137.305 712.72 L137.305 716.655 L117.398 716.655 L117.398 712.72 Z" fill="#000000" fill-rule="nonzero" fill-opacity="1" /><path clip-path="url(#clip650)" d="M156.749 685.174 Q153.138 685.174 151.31 688.739 Q149.504 692.28 149.504 699.41 Q149.504 706.516 151.31 710.081 Q153.138 713.623 156.749 713.623 Q160.384 713.623 162.189 710.081 Q164.018 706.516 164.018 699.41 Q164.018 692.28 162.189 688.739 Q160.384 685.174 156.749 685.174 M156.749 681.47 Q162.56 681.47 165.615 686.077 Q168.694 690.66 168.694 699.41 Q168.694 708.137 165.615 712.743 Q162.56 717.326 156.749 717.326 Q150.939 717.326 147.861 712.743 Q144.805 708.137 144.805 699.41 Q144.805 690.66 147.861 686.077 Q150.939 681.47 156.749 681.47 Z" fill="#000000" fill-rule="nonzero" fill-opacity="1" /><path clip-path="url(#clip650)" d="M178.718 673.691 Q176.16 673.691 174.656 675.44 Q173.17 677.189 173.17 680.236 Q173.17 683.264 174.656 685.032 Q176.16 686.781 178.718 686.781 Q181.276 686.781 182.762 685.032 Q184.267 683.264 184.267 680.236 Q184.267 677.189 182.762 675.44 Q181.276 673.691 178.718 673.691 M186.26 661.785 L186.26 665.246 Q184.831 664.569 183.364 664.212 Q181.916 663.854 180.486 663.854 Q176.725 663.854 174.731 666.393 Q172.756 668.932 172.474 674.067 Q173.584 672.431 175.258 671.565 Q176.932 670.682 178.944 670.682 Q183.176 670.682 185.621 673.258 Q188.085 675.816 188.085 680.236 Q188.085 684.562 185.527 687.176 Q182.969 689.79 178.718 689.79 Q173.847 689.79 171.27 686.066 Q168.694 682.324 168.694 675.233 Q168.694 668.575 171.854 664.625 Q175.013 660.657 180.336 660.657 Q181.765 660.657 183.213 660.939 Q184.68 661.221 186.26 661.785 Z" fill="#000000" fill-rule="nonzero" fill-opacity="1" /><path clip-path="url(#clip650)" d="M117.529 295.866 L125.168 295.866 L125.168 269.5 L116.858 271.167 L116.858 266.908 L125.122 265.241 L129.798 265.241 L129.798 295.866 L137.437 295.866 L137.437 299.801 L117.529 299.801 L117.529 295.866 Z" fill="#000000" fill-rule="nonzero" fill-opacity="1" /><path clip-path="url(#clip650)" d="M156.881 268.32 Q153.27 268.32 151.441 271.885 Q149.636 275.426 149.636 282.556 Q149.636 289.662 151.441 293.227 Q153.27 296.769 156.881 296.769 Q160.515 296.769 162.321 293.227 Q164.15 289.662 164.15 282.556 Q164.15 275.426 162.321 271.885 Q160.515 268.32 156.881 268.32 M156.881 264.616 Q162.691 264.616 165.747 269.223 Q168.825 273.806 168.825 282.556 Q168.825 291.283 165.747 295.889 Q162.691 300.472 156.881 300.472 Q151.071 300.472 147.992 295.889 Q144.937 291.283 144.937 282.556 Q144.937 273.806 147.992 269.223 Q151.071 264.616 156.881 264.616 Z" fill="#000000" fill-rule="nonzero" fill-opacity="1" /><path clip-path="url(#clip650)" d="M178.455 259.056 Q175.747 259.056 174.186 260.504 Q172.643 261.952 172.643 264.491 Q172.643 267.031 174.186 268.479 Q175.747 269.927 178.455 269.927 Q181.163 269.927 182.724 268.479 Q184.285 267.012 184.285 264.491 Q184.285 261.952 182.724 260.504 Q181.182 259.056 178.455 259.056 M174.656 257.439 Q172.211 256.837 170.838 255.163 Q169.484 253.489 169.484 251.082 Q169.484 247.715 171.872 245.759 Q174.28 243.803 178.455 243.803 Q182.649 243.803 185.038 245.759 Q187.426 247.715 187.426 251.082 Q187.426 253.489 186.053 255.163 Q184.699 256.837 182.273 257.439 Q185.019 258.078 186.542 259.94 Q188.085 261.802 188.085 264.491 Q188.085 268.573 185.583 270.754 Q183.101 272.936 178.455 272.936 Q173.81 272.936 171.308 270.754 Q168.825 268.573 168.825 264.491 Q168.825 261.802 170.368 259.94 Q171.91 258.078 174.656 257.439 M173.264 251.439 Q173.264 253.621 174.618 254.843 Q175.991 256.066 178.455 256.066 Q180.9 256.066 182.273 254.843 Q183.665 253.621 183.665 251.439 Q183.665 249.257 182.273 248.035 Q180.9 246.812 178.455 246.812 Q175.991 246.812 174.618 248.035 Q173.264 249.257 173.264 251.439 Z" fill="#000000" fill-rule="nonzero" fill-opacity="1" /><path clip-path="url(#clip650)" d="M15.5387 1038.2 L22.3182 1038.2 Q19.2945 1041.45 17.7986 1045.14 Q16.3026 1048.8 16.3026 1052.94 Q16.3026 1061.09 21.2997 1065.42 Q26.2649 1069.75 35.6862 1069.75 Q45.0756 1069.75 50.0727 1065.42 Q55.0379 1061.09 55.0379 1052.94 Q55.0379 1048.8 53.542 1045.14 Q52.0461 1041.45 49.0223 1038.2 L55.7382 1038.2 Q58.0298 1041.58 59.1756 1045.36 Q60.3215 1049.12 60.3215 1053.32 Q60.3215 1064.11 53.733 1070.32 Q47.1126 1076.52 35.6862 1076.52 Q24.2279 1076.52 17.6394 1070.32 Q11.0191 1064.11 11.0191 1053.32 Q11.0191 1049.06 12.1649 1045.3 Q13.2789 1041.51 15.5387 1038.2 Z" fill="#000000" fill-rule="nonzero" fill-opacity="1" /><path clip-path="url(#clip650)" d="M17.162 1021.84 L35.0178 1021.84 L35.0178 1013.76 Q35.0178 1009.27 32.6943 1006.82 Q30.3708 1004.37 26.074 1004.37 Q21.8089 1004.37 19.4855 1006.82 Q17.162 1009.27 17.162 1013.76 L17.162 1021.84 M11.8784 1028.27 L11.8784 1013.76 Q11.8784 1005.77 15.5069 1001.7 Q19.1035 997.59 26.074 997.59 Q33.1081 997.59 36.7047 1001.7 Q40.3013 1005.77 40.3013 1013.76 L40.3013 1021.84 L59.3984 1021.84 L59.3984 1028.27 L11.8784 1028.27 Z" fill="#000000" fill-rule="nonzero" fill-opacity="1" /><path clip-path="url(#clip650)" d="M11.8784 989.697 L11.8784 983.236 L40.7469 983.236 Q48.3858 983.236 51.7596 980.466 Q55.1016 977.697 55.1016 971.491 Q55.1016 965.316 51.7596 962.547 Q48.3858 959.778 40.7469 959.778 L11.8784 959.778 L11.8784 953.317 L41.5426 953.317 Q50.8366 953.317 55.579 957.932 Q60.3215 962.515 60.3215 971.491 Q60.3215 980.498 55.579 985.113 Q50.8366 989.697 41.5426 989.697 L11.8784 989.697 Z" fill="#000000" fill-rule="nonzero" fill-opacity="1" /><path clip-path="url(#clip650)" d="M11.8784 927.122 L11.8784 886.922 L17.2893 886.922 L17.2893 903.792 L59.3984 903.792 L59.3984 910.253 L17.2893 910.253 L17.2893 927.122 L11.8784 927.122 Z" fill="#000000" fill-rule="nonzero" fill-opacity="1" /><path clip-path="url(#clip650)" d="M23.7505 882.976 L23.7505 877.119 L59.3984 877.119 L59.3984 882.976 L23.7505 882.976 M9.87325 882.976 L9.87325 877.119 L17.2893 877.119 L17.2893 882.976 L9.87325 882.976 Z" fill="#000000" fill-rule="nonzero" fill-opacity="1" /><path clip-path="url(#clip650)" d="M30.5936 837.111 Q26.6469 834.915 24.769 831.859 Q22.8911 828.803 22.8911 824.666 Q22.8911 819.096 26.806 816.072 Q30.6891 813.048 37.8824 813.048 L59.3984 813.048 L59.3984 818.937 L38.0733 818.937 Q32.9489 818.937 30.4663 820.751 Q27.9837 822.565 27.9837 826.289 Q27.9837 830.841 31.0074 833.482 Q34.0311 836.124 39.251 836.124 L59.3984 836.124 L59.3984 842.012 L38.0733 842.012 Q32.9171 842.012 30.4663 843.827 Q27.9837 845.641 27.9837 849.428 Q27.9837 853.916 31.0392 856.558 Q34.0629 859.2 39.251 859.2 L59.3984 859.2 L59.3984 865.088 L23.7505 865.088 L23.7505 859.2 L29.2887 859.2 Q26.0103 857.195 24.4507 854.394 Q22.8911 851.593 22.8911 847.741 Q22.8911 843.858 24.8645 841.153 Q26.8379 838.416 30.5936 837.111 Z" fill="#000000" fill-rule="nonzero" fill-opacity="1" /><path clip-path="url(#clip650)" d="M40.1104 770.876 L42.9749 770.876 L42.9749 797.802 Q49.0223 797.421 52.2052 794.174 Q55.3562 790.896 55.3562 785.071 Q55.3562 781.697 54.5287 778.546 Q53.7011 775.363 52.0461 772.244 L57.5842 772.244 Q58.921 775.395 59.6212 778.705 Q60.3215 782.016 60.3215 785.421 Q60.3215 793.951 55.3562 798.948 Q50.391 803.914 41.9246 803.914 Q33.1717 803.914 28.0473 799.203 Q22.8911 794.46 22.8911 786.44 Q22.8911 779.246 27.5381 775.077 Q32.1532 770.876 40.1104 770.876 M38.3916 776.732 Q33.5855 776.796 30.7209 779.437 Q27.8564 782.047 27.8564 786.376 Q27.8564 791.278 30.6254 794.238 Q33.3945 797.166 38.4234 797.612 L38.3916 776.732 Z" fill="#000000" fill-rule="nonzero" fill-opacity="1" /><polyline clip-path="url(#clip652)" style="stroke:#009af9; stroke-linecap:round; stroke-linejoin:round; stroke-width:4; stroke-opacity:1; fill:none" points="301.481,1750.55 641.464,1584.66 981.446,1327.44 1321.43,1108.72 1661.41,803.733 2001.39,539.078 2341.38,318.246 2681.36,110.081 "/>
<circle clip-path="url(#clip652)" cx="301.481" cy="1750.55" r="14.4" fill="#009af9" fill-rule="evenodd" fill-opacity="1" stroke="#000000" stroke-opacity="1" stroke-width="4"/>
<circle clip-path="url(#clip652)" cx="641.464" cy="1584.66" r="14.4" fill="#009af9" fill-rule="evenodd" fill-opacity="1" stroke="#000000" stroke-opacity="1" stroke-width="4"/>
<circle clip-path="url(#clip652)" cx="981.446" cy="1327.44" r="14.4" fill="#009af9" fill-rule="evenodd" fill-opacity="1" stroke="#000000" stroke-opacity="1" stroke-width="4"/>
<circle clip-path="url(#clip652)" cx="1321.43" cy="1108.72" r="14.4" fill="#009af9" fill-rule="evenodd" fill-opacity="1" stroke="#000000" stroke-opacity="1" stroke-width="4"/>
<circle clip-path="url(#clip652)" cx="1661.41" cy="803.733" r="14.4" fill="#009af9" fill-rule="evenodd" fill-opacity="1" stroke="#000000" stroke-opacity="1" stroke-width="4"/>
<circle clip-path="url(#clip652)" cx="2001.39" cy="539.078" r="14.4" fill="#009af9" fill-rule="evenodd" fill-opacity="1" stroke="#000000" stroke-opacity="1" stroke-width="4"/>
<circle clip-path="url(#clip652)" cx="2341.38" cy="318.246" r="14.4" fill="#009af9" fill-rule="evenodd" fill-opacity="1" stroke="#000000" stroke-opacity="1" stroke-width="4"/>
<circle clip-path="url(#clip652)" cx="2681.36" cy="110.081" r="14.4" fill="#009af9" fill-rule="evenodd" fill-opacity="1" stroke="#000000" stroke-opacity="1" stroke-width="4"/>
<polyline clip-path="url(#clip652)" style="stroke:#e26f46; stroke-linecap:round; stroke-linejoin:round; stroke-width:4; stroke-opacity:1; fill:none" points="301.481,1735.98 641.464,1526.62 981.446,1298.98 1321.43,1084.74 1661.41,803.854 2001.39,538.893 2341.38,318.457 2681.36,110.639 "/>
<circle clip-path="url(#clip652)" cx="301.481" cy="1735.98" r="14.4" fill="#e26f46" fill-rule="evenodd" fill-opacity="1" stroke="#000000" stroke-opacity="1" stroke-width="4"/>
<circle clip-path="url(#clip652)" cx="641.464" cy="1526.62" r="14.4" fill="#e26f46" fill-rule="evenodd" fill-opacity="1" stroke="#000000" stroke-opacity="1" stroke-width="4"/>
<circle clip-path="url(#clip652)" cx="981.446" cy="1298.98" r="14.4" fill="#e26f46" fill-rule="evenodd" fill-opacity="1" stroke="#000000" stroke-opacity="1" stroke-width="4"/>
<circle clip-path="url(#clip652)" cx="1321.43" cy="1084.74" r="14.4" fill="#e26f46" fill-rule="evenodd" fill-opacity="1" stroke="#000000" stroke-opacity="1" stroke-width="4"/>
<circle clip-path="url(#clip652)" cx="1661.41" cy="803.854" r="14.4" fill="#e26f46" fill-rule="evenodd" fill-opacity="1" stroke="#000000" stroke-opacity="1" stroke-width="4"/>
<circle clip-path="url(#clip652)" cx="2001.39" cy="538.893" r="14.4" fill="#e26f46" fill-rule="evenodd" fill-opacity="1" stroke="#000000" stroke-opacity="1" stroke-width="4"/>
<circle clip-path="url(#clip652)" cx="2341.38" cy="318.457" r="14.4" fill="#e26f46" fill-rule="evenodd" fill-opacity="1" stroke="#000000" stroke-opacity="1" stroke-width="4"/>
<circle clip-path="url(#clip652)" cx="2681.36" cy="110.639" r="14.4" fill="#e26f46" fill-rule="evenodd" fill-opacity="1" stroke="#000000" stroke-opacity="1" stroke-width="4"/>
<polyline clip-path="url(#clip652)" style="stroke:#3da44d; stroke-linecap:round; stroke-linejoin:round; stroke-width:4; stroke-opacity:1; fill:none" points="301.481,1190.45 641.464,1187.78 981.446,1183.86 1321.43,1123.69 1661.41,956.013 2001.39,698.648 2341.38,477.882 2681.36,269.133 "/>
<circle clip-path="url(#clip652)" cx="301.481" cy="1190.45" r="14.4" fill="#3da44d" fill-rule="evenodd" fill-opacity="1" stroke="#000000" stroke-opacity="1" stroke-width="4"/>
<circle clip-path="url(#clip652)" cx="641.464" cy="1187.78" r="14.4" fill="#3da44d" fill-rule="evenodd" fill-opacity="1" stroke="#000000" stroke-opacity="1" stroke-width="4"/>
<circle clip-path="url(#clip652)" cx="981.446" cy="1183.86" r="14.4" fill="#3da44d" fill-rule="evenodd" fill-opacity="1" stroke="#000000" stroke-opacity="1" stroke-width="4"/>
<circle clip-path="url(#clip652)" cx="1321.43" cy="1123.69" r="14.4" fill="#3da44d" fill-rule="evenodd" fill-opacity="1" stroke="#000000" stroke-opacity="1" stroke-width="4"/>
<circle clip-path="url(#clip652)" cx="1661.41" cy="956.013" r="14.4" fill="#3da44d" fill-rule="evenodd" fill-opacity="1" stroke="#000000" stroke-opacity="1" stroke-width="4"/>
<circle clip-path="url(#clip652)" cx="2001.39" cy="698.648" r="14.4" fill="#3da44d" fill-rule="evenodd" fill-opacity="1" stroke="#000000" stroke-opacity="1" stroke-width="4"/>
<circle clip-path="url(#clip652)" cx="2341.38" cy="477.882" r="14.4" fill="#3da44d" fill-rule="evenodd" fill-opacity="1" stroke="#000000" stroke-opacity="1" stroke-width="4"/>
<circle clip-path="url(#clip652)" cx="2681.36" cy="269.133" r="14.4" fill="#3da44d" fill-rule="evenodd" fill-opacity="1" stroke="#000000" stroke-opacity="1" stroke-width="4"/>
<polyline clip-path="url(#clip652)" style="stroke:#c271d2; stroke-linecap:round; stroke-linejoin:round; stroke-width:4; stroke-opacity:1; fill:none" points="301.481,1652.9 641.464,1456.01 981.446,1246.04 1321.43,1035.23 1661.41,804.741 2001.39,520.146 2341.38,303.576 2681.36,96.8548 "/>
<circle clip-path="url(#clip652)" cx="301.481" cy="1652.9" r="14.4" fill="#c271d2" fill-rule="evenodd" fill-opacity="1" stroke="#000000" stroke-opacity="1" stroke-width="4"/>
<circle clip-path="url(#clip652)" cx="641.464" cy="1456.01" r="14.4" fill="#c271d2" fill-rule="evenodd" fill-opacity="1" stroke="#000000" stroke-opacity="1" stroke-width="4"/>
<circle clip-path="url(#clip652)" cx="981.446" cy="1246.04" r="14.4" fill="#c271d2" fill-rule="evenodd" fill-opacity="1" stroke="#000000" stroke-opacity="1" stroke-width="4"/>
<circle clip-path="url(#clip652)" cx="1321.43" cy="1035.23" r="14.4" fill="#c271d2" fill-rule="evenodd" fill-opacity="1" stroke="#000000" stroke-opacity="1" stroke-width="4"/>
<circle clip-path="url(#clip652)" cx="1661.41" cy="804.741" r="14.4" fill="#c271d2" fill-rule="evenodd" fill-opacity="1" stroke="#000000" stroke-opacity="1" stroke-width="4"/>
<circle clip-path="url(#clip652)" cx="2001.39" cy="520.146" r="14.4" fill="#c271d2" fill-rule="evenodd" fill-opacity="1" stroke="#000000" stroke-opacity="1" stroke-width="4"/>
<circle clip-path="url(#clip652)" cx="2341.38" cy="303.576" r="14.4" fill="#c271d2" fill-rule="evenodd" fill-opacity="1" stroke="#000000" stroke-opacity="1" stroke-width="4"/>
<circle clip-path="url(#clip652)" cx="2681.36" cy="96.8548" r="14.4" fill="#c271d2" fill-rule="evenodd" fill-opacity="1" stroke="#000000" stroke-opacity="1" stroke-width="4"/>
<polyline clip-path="url(#clip652)" style="stroke:#ac8d18; stroke-linecap:round; stroke-linejoin:round; stroke-width:4; stroke-opacity:1; fill:none" points="301.481,1132.46 641.464,1088.05 981.446,1078.12 1321.43,1032.77 1661.41,926.894 2001.39,697.793 2341.38,477.921 2681.36,268.624 "/>
<circle clip-path="url(#clip652)" cx="301.481" cy="1132.46" r="14.4" fill="#ac8d18" fill-rule="evenodd" fill-opacity="1" stroke="#000000" stroke-opacity="1" stroke-width="4"/>
<circle clip-path="url(#clip652)" cx="641.464" cy="1088.05" r="14.4" fill="#ac8d18" fill-rule="evenodd" fill-opacity="1" stroke="#000000" stroke-opacity="1" stroke-width="4"/>
<circle clip-path="url(#clip652)" cx="981.446" cy="1078.12" r="14.4" fill="#ac8d18" fill-rule="evenodd" fill-opacity="1" stroke="#000000" stroke-opacity="1" stroke-width="4"/>
<circle clip-path="url(#clip652)" cx="1321.43" cy="1032.77" r="14.4" fill="#ac8d18" fill-rule="evenodd" fill-opacity="1" stroke="#000000" stroke-opacity="1" stroke-width="4"/>
<circle clip-path="url(#clip652)" cx="1661.41" cy="926.894" r="14.4" fill="#ac8d18" fill-rule="evenodd" fill-opacity="1" stroke="#000000" stroke-opacity="1" stroke-width="4"/>
<circle clip-path="url(#clip652)" cx="2001.39" cy="697.793" r="14.4" fill="#ac8d18" fill-rule="evenodd" fill-opacity="1" stroke="#000000" stroke-opacity="1" stroke-width="4"/>
<circle clip-path="url(#clip652)" cx="2341.38" cy="477.921" r="14.4" fill="#ac8d18" fill-rule="evenodd" fill-opacity="1" stroke="#000000" stroke-opacity="1" stroke-width="4"/>
<circle clip-path="url(#clip652)" cx="2681.36" cy="268.624" r="14.4" fill="#ac8d18" fill-rule="evenodd" fill-opacity="1" stroke="#000000" stroke-opacity="1" stroke-width="4"/>
<polyline clip-path="url(#clip652)" style="stroke:#00a9ad; stroke-linecap:round; stroke-linejoin:round; stroke-width:4; stroke-opacity:1; fill:none" points="301.481,1733.46 641.464,1526.13 981.446,1299.06 1321.43,1086.64 1661.41,803.682 2001.39,539.149 2341.38,318.814 2681.36,110.495 "/>
<circle clip-path="url(#clip652)" cx="301.481" cy="1733.46" r="14.4" fill="#00a9ad" fill-rule="evenodd" fill-opacity="1" stroke="#000000" stroke-opacity="1" stroke-width="4"/>
<circle clip-path="url(#clip652)" cx="641.464" cy="1526.13" r="14.4" fill="#00a9ad" fill-rule="evenodd" fill-opacity="1" stroke="#000000" stroke-opacity="1" stroke-width="4"/>
<circle clip-path="url(#clip652)" cx="981.446" cy="1299.06" r="14.4" fill="#00a9ad" fill-rule="evenodd" fill-opacity="1" stroke="#000000" stroke-opacity="1" stroke-width="4"/>
<circle clip-path="url(#clip652)" cx="1321.43" cy="1086.64" r="14.4" fill="#00a9ad" fill-rule="evenodd" fill-opacity="1" stroke="#000000" stroke-opacity="1" stroke-width="4"/>
<circle clip-path="url(#clip652)" cx="1661.41" cy="803.682" r="14.4" fill="#00a9ad" fill-rule="evenodd" fill-opacity="1" stroke="#000000" stroke-opacity="1" stroke-width="4"/>
<circle clip-path="url(#clip652)" cx="2001.39" cy="539.149" r="14.4" fill="#00a9ad" fill-rule="evenodd" fill-opacity="1" stroke="#000000" stroke-opacity="1" stroke-width="4"/>
<circle clip-path="url(#clip652)" cx="2341.38" cy="318.814" r="14.4" fill="#00a9ad" fill-rule="evenodd" fill-opacity="1" stroke="#000000" stroke-opacity="1" stroke-width="4"/>
<circle clip-path="url(#clip652)" cx="2681.36" cy="110.495" r="14.4" fill="#00a9ad" fill-rule="evenodd" fill-opacity="1" stroke="#000000" stroke-opacity="1" stroke-width="4"/>
<path clip-path="url(#clip650)" d="M314.174 468.555 L908.707 468.555 L908.707 105.675 L314.174 105.675  Z" fill="#ffffff" fill-rule="evenodd" fill-opacity="1"/>
<polyline clip-path="url(#clip650)" style="stroke:#000000; stroke-linecap:round; stroke-linejoin:round; stroke-width:4; stroke-opacity:1; fill:none" points="314.174,468.555 908.707,468.555 908.707,105.675 314.174,105.675 314.174,468.555 "/>
<polyline clip-path="url(#clip650)" style="stroke:#009af9; stroke-linecap:round; stroke-linejoin:round; stroke-width:4; stroke-opacity:1; fill:none" points="342.203,157.515 510.381,157.515 "/>
<circle clip-path="url(#clip650)" cx="426.292" cy="157.515" r="20.48" fill="#009af9" fill-rule="evenodd" fill-opacity="1" stroke="#000000" stroke-opacity="1" stroke-width="5.68889"/>
<path clip-path="url(#clip650)" d="M560.124 159.146 L560.124 174.795 L555.865 174.795 L555.865 159.285 Q555.865 155.605 554.43 153.776 Q552.994 151.947 550.124 151.947 Q546.675 151.947 544.684 154.146 Q542.693 156.346 542.693 160.142 L542.693 174.795 L538.411 174.795 L538.411 148.869 L542.693 148.869 L542.693 152.896 Q544.221 150.559 546.281 149.401 Q548.365 148.244 551.073 148.244 Q555.541 148.244 557.832 151.021 Q560.124 153.776 560.124 159.146 Z" fill="#000000" fill-rule="nonzero" fill-opacity="1" /><path clip-path="url(#clip650)" d="M583.642 152.85 Q582.925 152.434 582.068 152.248 Q581.235 152.04 580.216 152.04 Q576.605 152.04 574.661 154.401 Q572.74 156.739 572.74 161.137 L572.74 174.795 L568.457 174.795 L568.457 148.869 L572.74 148.869 L572.74 152.896 Q574.082 150.535 576.235 149.401 Q578.388 148.244 581.466 148.244 Q581.906 148.244 582.439 148.313 Q582.971 148.359 583.619 148.475 L583.642 152.85 Z" fill="#000000" fill-rule="nonzero" fill-opacity="1" /><path clip-path="url(#clip650)" d="M607.462 153.846 Q609.059 150.975 611.281 149.609 Q613.503 148.244 616.513 148.244 Q620.563 148.244 622.763 151.091 Q624.962 153.915 624.962 159.146 L624.962 174.795 L620.679 174.795 L620.679 159.285 Q620.679 155.558 619.36 153.753 Q618.04 151.947 615.332 151.947 Q612.022 151.947 610.101 154.146 Q608.179 156.346 608.179 160.142 L608.179 174.795 L603.897 174.795 L603.897 159.285 Q603.897 155.535 602.577 153.753 Q601.258 151.947 598.503 151.947 Q595.24 151.947 593.318 154.17 Q591.397 156.369 591.397 160.142 L591.397 174.795 L587.115 174.795 L587.115 148.869 L591.397 148.869 L591.397 152.896 Q592.855 150.512 594.892 149.378 Q596.929 148.244 599.73 148.244 Q602.554 148.244 604.522 149.679 Q606.513 151.114 607.462 153.846 Z" fill="#000000" fill-rule="nonzero" fill-opacity="1" /><path clip-path="url(#clip650)" d="M638.086 170.859 L654.406 170.859 L654.406 174.795 L632.462 174.795 L632.462 170.859 Q635.124 168.105 639.707 163.475 Q644.313 158.822 645.494 157.48 Q647.739 154.957 648.619 153.221 Q649.522 151.461 649.522 149.771 Q649.522 147.017 647.577 145.281 Q645.656 143.545 642.554 143.545 Q640.355 143.545 637.901 144.309 Q635.471 145.072 632.693 146.623 L632.693 141.901 Q635.517 140.767 637.971 140.188 Q640.424 139.61 642.461 139.61 Q647.832 139.61 651.026 142.295 Q654.221 144.98 654.221 149.471 Q654.221 151.6 653.41 153.521 Q652.623 155.42 650.517 158.012 Q649.938 158.683 646.836 161.901 Q643.735 165.095 638.086 170.859 Z" fill="#000000" fill-rule="nonzero" fill-opacity="1" /><path clip-path="url(#clip650)" d="M683.318 182.665 L683.318 185.975 L658.688 185.975 L658.688 182.665 L683.318 182.665 Z" fill="#000000" fill-rule="nonzero" fill-opacity="1" /><path clip-path="url(#clip650)" d="M709.498 160.767 L709.498 162.85 L689.915 162.85 Q690.193 167.248 692.554 169.563 Q694.938 171.855 699.174 171.855 Q701.628 171.855 703.919 171.253 Q706.234 170.651 708.503 169.447 L708.503 173.475 Q706.211 174.447 703.804 174.957 Q701.396 175.466 698.92 175.466 Q692.716 175.466 689.082 171.855 Q685.47 168.244 685.47 162.086 Q685.47 155.721 688.896 151.994 Q692.345 148.244 698.179 148.244 Q703.41 148.244 706.443 151.623 Q709.498 154.98 709.498 160.767 M705.239 159.517 Q705.193 156.021 703.271 153.938 Q701.373 151.855 698.225 151.855 Q694.66 151.855 692.507 153.869 Q690.378 155.883 690.054 159.54 L705.239 159.517 Z" fill="#000000" fill-rule="nonzero" fill-opacity="1" /><path clip-path="url(#clip650)" d="M716.489 148.869 L720.748 148.869 L720.748 174.795 L716.489 174.795 L716.489 148.869 M716.489 138.776 L720.748 138.776 L720.748 144.17 L716.489 144.17 L716.489 138.776 Z" fill="#000000" fill-rule="nonzero" fill-opacity="1" /><path clip-path="url(#clip650)" d="M746.72 161.531 Q746.72 156.901 744.799 154.355 Q742.901 151.809 739.452 151.809 Q736.026 151.809 734.104 154.355 Q732.206 156.901 732.206 161.531 Q732.206 166.137 734.104 168.683 Q736.026 171.23 739.452 171.23 Q742.901 171.23 744.799 168.683 Q746.72 166.137 746.72 161.531 M750.979 171.577 Q750.979 178.197 748.04 181.415 Q745.1 184.656 739.035 184.656 Q736.79 184.656 734.799 184.308 Q732.808 183.984 730.933 183.29 L730.933 179.146 Q732.808 180.165 734.637 180.651 Q736.466 181.137 738.364 181.137 Q742.554 181.137 744.637 178.938 Q746.72 176.762 746.72 172.341 L746.72 170.234 Q745.401 172.526 743.341 173.66 Q741.28 174.795 738.41 174.795 Q733.642 174.795 730.725 171.16 Q727.808 167.526 727.808 161.531 Q727.808 155.512 730.725 151.878 Q733.642 148.244 738.41 148.244 Q741.28 148.244 743.341 149.378 Q745.401 150.512 746.72 152.804 L746.72 148.869 L750.979 148.869 L750.979 171.577 Z" fill="#000000" fill-rule="nonzero" fill-opacity="1" /><path clip-path="url(#clip650)" d="M781.928 160.767 L781.928 162.85 L762.345 162.85 Q762.623 167.248 764.984 169.563 Q767.368 171.855 771.604 171.855 Q774.058 171.855 776.35 171.253 Q778.664 170.651 780.933 169.447 L780.933 173.475 Q778.641 174.447 776.234 174.957 Q773.827 175.466 771.35 175.466 Q765.146 175.466 761.512 171.855 Q757.901 168.244 757.901 162.086 Q757.901 155.721 761.327 151.994 Q764.776 148.244 770.609 148.244 Q775.84 148.244 778.873 151.623 Q781.928 154.98 781.928 160.767 M777.669 159.517 Q777.623 156.021 775.701 153.938 Q773.803 151.855 770.655 151.855 Q767.09 151.855 764.938 153.869 Q762.808 155.883 762.484 159.54 L777.669 159.517 Z" fill="#000000" fill-rule="nonzero" fill-opacity="1" /><path clip-path="url(#clip650)" d="M810.47 159.146 L810.47 174.795 L806.211 174.795 L806.211 159.285 Q806.211 155.605 804.775 153.776 Q803.34 151.947 800.47 151.947 Q797.021 151.947 795.03 154.146 Q793.039 156.346 793.039 160.142 L793.039 174.795 L788.757 174.795 L788.757 148.869 L793.039 148.869 L793.039 152.896 Q794.567 150.559 796.627 149.401 Q798.711 148.244 801.419 148.244 Q805.887 148.244 808.178 151.021 Q810.47 153.776 810.47 159.146 Z" fill="#000000" fill-rule="nonzero" fill-opacity="1" /><polyline clip-path="url(#clip650)" style="stroke:#e26f46; stroke-linecap:round; stroke-linejoin:round; stroke-width:4; stroke-opacity:1; fill:none" points="342.203,209.355 510.381,209.355 "/>
<circle clip-path="url(#clip650)" cx="426.292" cy="209.355" r="20.48" fill="#e26f46" fill-rule="evenodd" fill-opacity="1" stroke="#000000" stroke-opacity="1" stroke-width="5.68889"/>
<path clip-path="url(#clip650)" d="M560.124 210.986 L560.124 226.635 L555.865 226.635 L555.865 211.125 Q555.865 207.445 554.43 205.616 Q552.994 203.787 550.124 203.787 Q546.675 203.787 544.684 205.986 Q542.693 208.186 542.693 211.982 L542.693 226.635 L538.411 226.635 L538.411 200.709 L542.693 200.709 L542.693 204.736 Q544.221 202.399 546.281 201.241 Q548.365 200.084 551.073 200.084 Q555.541 200.084 557.832 202.861 Q560.124 205.616 560.124 210.986 Z" fill="#000000" fill-rule="nonzero" fill-opacity="1" /><path clip-path="url(#clip650)" d="M583.642 204.69 Q582.925 204.274 582.068 204.088 Q581.235 203.88 580.216 203.88 Q576.605 203.88 574.661 206.241 Q572.74 208.579 572.74 212.977 L572.74 226.635 L568.457 226.635 L568.457 200.709 L572.74 200.709 L572.74 204.736 Q574.082 202.375 576.235 201.241 Q578.388 200.084 581.466 200.084 Q581.906 200.084 582.439 200.153 Q582.971 200.199 583.619 200.315 L583.642 204.69 Z" fill="#000000" fill-rule="nonzero" fill-opacity="1" /><path clip-path="url(#clip650)" d="M607.462 205.686 Q609.059 202.815 611.281 201.449 Q613.503 200.084 616.513 200.084 Q620.563 200.084 622.763 202.931 Q624.962 205.755 624.962 210.986 L624.962 226.635 L620.679 226.635 L620.679 211.125 Q620.679 207.398 619.36 205.593 Q618.04 203.787 615.332 203.787 Q612.022 203.787 610.101 205.986 Q608.179 208.186 608.179 211.982 L608.179 226.635 L603.897 226.635 L603.897 211.125 Q603.897 207.375 602.577 205.593 Q601.258 203.787 598.503 203.787 Q595.24 203.787 593.318 206.01 Q591.397 208.209 591.397 211.982 L591.397 226.635 L587.115 226.635 L587.115 200.709 L591.397 200.709 L591.397 204.736 Q592.855 202.352 594.892 201.218 Q596.929 200.084 599.73 200.084 Q602.554 200.084 604.522 201.519 Q606.513 202.954 607.462 205.686 Z" fill="#000000" fill-rule="nonzero" fill-opacity="1" /><path clip-path="url(#clip650)" d="M638.086 222.699 L654.406 222.699 L654.406 226.635 L632.462 226.635 L632.462 222.699 Q635.124 219.945 639.707 215.315 Q644.313 210.662 645.494 209.32 Q647.739 206.797 648.619 205.061 Q649.522 203.301 649.522 201.611 Q649.522 198.857 647.577 197.121 Q645.656 195.385 642.554 195.385 Q640.355 195.385 637.901 196.149 Q635.471 196.912 632.693 198.463 L632.693 193.741 Q635.517 192.607 637.971 192.028 Q640.424 191.45 642.461 191.45 Q647.832 191.45 651.026 194.135 Q654.221 196.82 654.221 201.311 Q654.221 203.44 653.41 205.361 Q652.623 207.26 650.517 209.852 Q649.938 210.523 646.836 213.741 Q643.735 216.935 638.086 222.699 Z" fill="#000000" fill-rule="nonzero" fill-opacity="1" /><path clip-path="url(#clip650)" d="M683.318 234.505 L683.318 237.815 L658.688 237.815 L658.688 234.505 L683.318 234.505 Z" fill="#000000" fill-rule="nonzero" fill-opacity="1" /><path clip-path="url(#clip650)" d="M708.873 210.986 L708.873 226.635 L704.614 226.635 L704.614 211.125 Q704.614 207.445 703.179 205.616 Q701.744 203.787 698.873 203.787 Q695.424 203.787 693.433 205.986 Q691.443 208.186 691.443 211.982 L691.443 226.635 L687.16 226.635 L687.16 190.616 L691.443 190.616 L691.443 204.736 Q692.97 202.399 695.031 201.241 Q697.114 200.084 699.822 200.084 Q704.29 200.084 706.581 202.861 Q708.873 205.616 708.873 210.986 Z" fill="#000000" fill-rule="nonzero" fill-opacity="1" /><path clip-path="url(#clip650)" d="M717.368 200.709 L721.628 200.709 L721.628 226.635 L717.368 226.635 L717.368 200.709 M717.368 190.616 L721.628 190.616 L721.628 196.01 L717.368 196.01 L717.368 190.616 Z" fill="#000000" fill-rule="nonzero" fill-opacity="1" /><path clip-path="url(#clip650)" d="M747.6 213.371 Q747.6 208.741 745.679 206.195 Q743.78 203.649 740.331 203.649 Q736.905 203.649 734.984 206.195 Q733.086 208.741 733.086 213.371 Q733.086 217.977 734.984 220.523 Q736.905 223.07 740.331 223.07 Q743.78 223.07 745.679 220.523 Q747.6 217.977 747.6 213.371 M751.859 223.417 Q751.859 230.037 748.919 233.255 Q745.979 236.496 739.915 236.496 Q737.669 236.496 735.679 236.148 Q733.688 235.824 731.813 235.13 L731.813 230.986 Q733.688 232.005 735.517 232.491 Q737.345 232.977 739.243 232.977 Q743.433 232.977 745.516 230.778 Q747.6 228.602 747.6 224.181 L747.6 222.074 Q746.28 224.366 744.22 225.5 Q742.16 226.635 739.29 226.635 Q734.521 226.635 731.605 223 Q728.688 219.366 728.688 213.371 Q728.688 207.352 731.605 203.718 Q734.521 200.084 739.29 200.084 Q742.16 200.084 744.22 201.218 Q746.28 202.352 747.6 204.644 L747.6 200.709 L751.859 200.709 L751.859 223.417 Z" fill="#000000" fill-rule="nonzero" fill-opacity="1" /><path clip-path="url(#clip650)" d="M782.183 210.986 L782.183 226.635 L777.924 226.635 L777.924 211.125 Q777.924 207.445 776.489 205.616 Q775.053 203.787 772.183 203.787 Q768.734 203.787 766.743 205.986 Q764.752 208.186 764.752 211.982 L764.752 226.635 L760.47 226.635 L760.47 190.616 L764.752 190.616 L764.752 204.736 Q766.28 202.399 768.34 201.241 Q770.424 200.084 773.132 200.084 Q777.6 200.084 779.891 202.861 Q782.183 205.616 782.183 210.986 Z" fill="#000000" fill-rule="nonzero" fill-opacity="1" /><path clip-path="url(#clip650)" d="M788.201 200.709 L792.461 200.709 L797.785 220.94 L803.086 200.709 L808.109 200.709 L813.433 220.94 L818.734 200.709 L822.993 200.709 L816.211 226.635 L811.187 226.635 L805.609 205.385 L800.007 226.635 L794.984 226.635 L788.201 200.709 Z" fill="#000000" fill-rule="nonzero" fill-opacity="1" /><path clip-path="url(#clip650)" d="M841.234 213.602 Q836.072 213.602 834.081 214.783 Q832.09 215.963 832.09 218.81 Q832.09 221.079 833.572 222.422 Q835.076 223.741 837.646 223.741 Q841.187 223.741 843.317 221.241 Q845.47 218.718 845.47 214.551 L845.47 213.602 L841.234 213.602 M849.729 211.843 L849.729 226.635 L845.47 226.635 L845.47 222.699 Q844.011 225.06 841.835 226.195 Q839.659 227.306 836.511 227.306 Q832.53 227.306 830.169 225.084 Q827.831 222.838 827.831 219.088 Q827.831 214.713 830.747 212.491 Q833.687 210.269 839.497 210.269 L845.47 210.269 L845.47 209.852 Q845.47 206.912 843.525 205.315 Q841.604 203.695 838.109 203.695 Q835.886 203.695 833.78 204.227 Q831.673 204.76 829.729 205.824 L829.729 201.889 Q832.067 200.986 834.266 200.547 Q836.465 200.084 838.548 200.084 Q844.173 200.084 846.951 203 Q849.729 205.917 849.729 211.843 Z" fill="#000000" fill-rule="nonzero" fill-opacity="1" /><path clip-path="url(#clip650)" d="M869.289 229.042 Q867.483 233.672 865.77 235.084 Q864.058 236.496 861.187 236.496 L857.784 236.496 L857.784 232.931 L860.284 232.931 Q862.044 232.931 863.016 232.097 Q863.988 231.264 865.169 228.162 L865.932 226.218 L855.446 200.709 L859.96 200.709 L868.062 220.986 L876.164 200.709 L880.678 200.709 L869.289 229.042 Z" fill="#000000" fill-rule="nonzero" fill-opacity="1" /><polyline clip-path="url(#clip650)" style="stroke:#3da44d; stroke-linecap:round; stroke-linejoin:round; stroke-width:4; stroke-opacity:1; fill:none" points="342.203,261.195 510.381,261.195 "/>
<circle clip-path="url(#clip650)" cx="426.292" cy="261.195" r="20.48" fill="#3da44d" fill-rule="evenodd" fill-opacity="1" stroke="#000000" stroke-opacity="1" stroke-width="5.68889"/>
<path clip-path="url(#clip650)" d="M560.124 262.826 L560.124 278.475 L555.865 278.475 L555.865 262.965 Q555.865 259.285 554.43 257.456 Q552.994 255.627 550.124 255.627 Q546.675 255.627 544.684 257.826 Q542.693 260.026 542.693 263.822 L542.693 278.475 L538.411 278.475 L538.411 252.549 L542.693 252.549 L542.693 256.576 Q544.221 254.239 546.281 253.081 Q548.365 251.924 551.073 251.924 Q555.541 251.924 557.832 254.701 Q560.124 257.456 560.124 262.826 Z" fill="#000000" fill-rule="nonzero" fill-opacity="1" /><path clip-path="url(#clip650)" d="M583.642 256.53 Q582.925 256.114 582.068 255.928 Q581.235 255.72 580.216 255.72 Q576.605 255.72 574.661 258.081 Q572.74 260.419 572.74 264.817 L572.74 278.475 L568.457 278.475 L568.457 252.549 L572.74 252.549 L572.74 256.576 Q574.082 254.215 576.235 253.081 Q578.388 251.924 581.466 251.924 Q581.906 251.924 582.439 251.993 Q582.971 252.039 583.619 252.155 L583.642 256.53 Z" fill="#000000" fill-rule="nonzero" fill-opacity="1" /><path clip-path="url(#clip650)" d="M607.462 257.526 Q609.059 254.655 611.281 253.289 Q613.503 251.924 616.513 251.924 Q620.563 251.924 622.763 254.771 Q624.962 257.595 624.962 262.826 L624.962 278.475 L620.679 278.475 L620.679 262.965 Q620.679 259.238 619.36 257.433 Q618.04 255.627 615.332 255.627 Q612.022 255.627 610.101 257.826 Q608.179 260.026 608.179 263.822 L608.179 278.475 L603.897 278.475 L603.897 262.965 Q603.897 259.215 602.577 257.433 Q601.258 255.627 598.503 255.627 Q595.24 255.627 593.318 257.85 Q591.397 260.049 591.397 263.822 L591.397 278.475 L587.115 278.475 L587.115 252.549 L591.397 252.549 L591.397 256.576 Q592.855 254.192 594.892 253.058 Q596.929 251.924 599.73 251.924 Q602.554 251.924 604.522 253.359 Q606.513 254.794 607.462 257.526 Z" fill="#000000" fill-rule="nonzero" fill-opacity="1" /><path clip-path="url(#clip650)" d="M638.086 274.539 L654.406 274.539 L654.406 278.475 L632.462 278.475 L632.462 274.539 Q635.124 271.785 639.707 267.155 Q644.313 262.502 645.494 261.16 Q647.739 258.637 648.619 256.901 Q649.522 255.141 649.522 253.451 Q649.522 250.697 647.577 248.961 Q645.656 247.225 642.554 247.225 Q640.355 247.225 637.901 247.989 Q635.471 248.752 632.693 250.303 L632.693 245.581 Q635.517 244.447 637.971 243.868 Q640.424 243.29 642.461 243.29 Q647.832 243.29 651.026 245.975 Q654.221 248.66 654.221 253.151 Q654.221 255.28 653.41 257.201 Q652.623 259.1 650.517 261.692 Q649.938 262.363 646.836 265.581 Q643.735 268.775 638.086 274.539 Z" fill="#000000" fill-rule="nonzero" fill-opacity="1" /><path clip-path="url(#clip650)" d="M683.318 286.345 L683.318 289.655 L658.688 289.655 L658.688 286.345 L683.318 286.345 Z" fill="#000000" fill-rule="nonzero" fill-opacity="1" /><path clip-path="url(#clip650)" d="M697.369 255.535 Q693.943 255.535 691.952 258.22 Q689.961 260.882 689.961 265.535 Q689.961 270.188 691.929 272.873 Q693.92 275.535 697.369 275.535 Q700.771 275.535 702.762 272.85 Q704.753 270.164 704.753 265.535 Q704.753 260.928 702.762 258.243 Q700.771 255.535 697.369 255.535 M697.369 251.924 Q702.924 251.924 706.095 255.535 Q709.267 259.146 709.267 265.535 Q709.267 271.9 706.095 275.535 Q702.924 279.146 697.369 279.146 Q691.79 279.146 688.619 275.535 Q685.47 271.9 685.47 265.535 Q685.47 259.146 688.619 255.535 Q691.79 251.924 697.369 251.924 Z" fill="#000000" fill-rule="nonzero" fill-opacity="1" /><path clip-path="url(#clip650)" d="M736.512 257.526 Q738.109 254.655 740.331 253.289 Q742.554 251.924 745.563 251.924 Q749.614 251.924 751.813 254.771 Q754.012 257.595 754.012 262.826 L754.012 278.475 L749.729 278.475 L749.729 262.965 Q749.729 259.238 748.41 257.433 Q747.091 255.627 744.382 255.627 Q741.072 255.627 739.151 257.826 Q737.229 260.026 737.229 263.822 L737.229 278.475 L732.947 278.475 L732.947 262.965 Q732.947 259.215 731.628 257.433 Q730.308 255.627 727.554 255.627 Q724.29 255.627 722.368 257.85 Q720.447 260.049 720.447 263.822 L720.447 278.475 L716.165 278.475 L716.165 252.549 L720.447 252.549 L720.447 256.576 Q721.905 254.192 723.943 253.058 Q725.98 251.924 728.78 251.924 Q731.605 251.924 733.572 253.359 Q735.563 254.794 736.512 257.526 Z" fill="#000000" fill-rule="nonzero" fill-opacity="1" /><path clip-path="url(#clip650)" d="M766.627 274.586 L766.627 288.336 L762.345 288.336 L762.345 252.549 L766.627 252.549 L766.627 256.484 Q767.97 254.169 770.007 253.058 Q772.067 251.924 774.914 251.924 Q779.637 251.924 782.576 255.674 Q785.539 259.424 785.539 265.535 Q785.539 271.646 782.576 275.396 Q779.637 279.146 774.914 279.146 Q772.067 279.146 770.007 278.035 Q767.97 276.9 766.627 274.586 M781.118 265.535 Q781.118 260.836 779.174 258.174 Q777.252 255.489 773.873 255.489 Q770.493 255.489 768.549 258.174 Q766.627 260.836 766.627 265.535 Q766.627 270.234 768.549 272.919 Q770.493 275.581 773.873 275.581 Q777.252 275.581 779.174 272.919 Q781.118 270.234 781.118 265.535 Z" fill="#000000" fill-rule="nonzero" fill-opacity="1" /><polyline clip-path="url(#clip650)" style="stroke:#c271d2; stroke-linecap:round; stroke-linejoin:round; stroke-width:4; stroke-opacity:1; fill:none" points="342.203,313.035 510.381,313.035 "/>
<circle clip-path="url(#clip650)" cx="426.292" cy="313.035" r="20.48" fill="#c271d2" fill-rule="evenodd" fill-opacity="1" stroke="#000000" stroke-opacity="1" stroke-width="5.68889"/>
<path clip-path="url(#clip650)" d="M560.124 314.666 L560.124 330.315 L555.865 330.315 L555.865 314.805 Q555.865 311.125 554.43 309.296 Q552.994 307.467 550.124 307.467 Q546.675 307.467 544.684 309.666 Q542.693 311.866 542.693 315.662 L542.693 330.315 L538.411 330.315 L538.411 304.389 L542.693 304.389 L542.693 308.416 Q544.221 306.079 546.281 304.921 Q548.365 303.764 551.073 303.764 Q555.541 303.764 557.832 306.541 Q560.124 309.296 560.124 314.666 Z" fill="#000000" fill-rule="nonzero" fill-opacity="1" /><path clip-path="url(#clip650)" d="M583.642 308.37 Q582.925 307.954 582.068 307.768 Q581.235 307.56 580.216 307.56 Q576.605 307.56 574.661 309.921 Q572.74 312.259 572.74 316.657 L572.74 330.315 L568.457 330.315 L568.457 304.389 L572.74 304.389 L572.74 308.416 Q574.082 306.055 576.235 304.921 Q578.388 303.764 581.466 303.764 Q581.906 303.764 582.439 303.833 Q582.971 303.879 583.619 303.995 L583.642 308.37 Z" fill="#000000" fill-rule="nonzero" fill-opacity="1" /><path clip-path="url(#clip650)" d="M607.462 309.366 Q609.059 306.495 611.281 305.129 Q613.503 303.764 616.513 303.764 Q620.563 303.764 622.763 306.611 Q624.962 309.435 624.962 314.666 L624.962 330.315 L620.679 330.315 L620.679 314.805 Q620.679 311.078 619.36 309.273 Q618.04 307.467 615.332 307.467 Q612.022 307.467 610.101 309.666 Q608.179 311.866 608.179 315.662 L608.179 330.315 L603.897 330.315 L603.897 314.805 Q603.897 311.055 602.577 309.273 Q601.258 307.467 598.503 307.467 Q595.24 307.467 593.318 309.69 Q591.397 311.889 591.397 315.662 L591.397 330.315 L587.115 330.315 L587.115 304.389 L591.397 304.389 L591.397 308.416 Q592.855 306.032 594.892 304.898 Q596.929 303.764 599.73 303.764 Q602.554 303.764 604.522 305.199 Q606.513 306.634 607.462 309.366 Z" fill="#000000" fill-rule="nonzero" fill-opacity="1" /><path clip-path="url(#clip650)" d="M638.086 326.379 L654.406 326.379 L654.406 330.315 L632.462 330.315 L632.462 326.379 Q635.124 323.625 639.707 318.995 Q644.313 314.342 645.494 313 Q647.739 310.477 648.619 308.741 Q649.522 306.981 649.522 305.291 Q649.522 302.537 647.577 300.801 Q645.656 299.065 642.554 299.065 Q640.355 299.065 637.901 299.829 Q635.471 300.592 632.693 302.143 L632.693 297.421 Q635.517 296.287 637.971 295.708 Q640.424 295.13 642.461 295.13 Q647.832 295.13 651.026 297.815 Q654.221 300.5 654.221 304.991 Q654.221 307.12 653.41 309.041 Q652.623 310.94 650.517 313.532 Q649.938 314.203 646.836 317.421 Q643.735 320.615 638.086 326.379 Z" fill="#000000" fill-rule="nonzero" fill-opacity="1" /><path clip-path="url(#clip650)" d="M683.318 338.185 L683.318 341.495 L658.688 341.495 L658.688 338.185 L683.318 338.185 Z" fill="#000000" fill-rule="nonzero" fill-opacity="1" /><path clip-path="url(#clip650)" d="M703.85 305.153 L703.85 309.18 Q702.044 308.254 700.1 307.791 Q698.156 307.329 696.072 307.329 Q692.901 307.329 691.304 308.301 Q689.73 309.273 689.73 311.217 Q689.73 312.699 690.864 313.555 Q691.998 314.389 695.424 315.153 L696.882 315.477 Q701.419 316.449 703.318 318.231 Q705.239 319.99 705.239 323.162 Q705.239 326.773 702.369 328.879 Q699.521 330.986 694.521 330.986 Q692.438 330.986 690.17 330.569 Q687.924 330.176 685.424 329.365 L685.424 324.967 Q687.785 326.194 690.077 326.819 Q692.369 327.421 694.614 327.421 Q697.623 327.421 699.244 326.402 Q700.864 325.361 700.864 323.486 Q700.864 321.75 699.683 320.824 Q698.526 319.898 694.568 319.041 L693.086 318.694 Q689.128 317.861 687.369 316.148 Q685.609 314.412 685.609 311.403 Q685.609 307.745 688.202 305.754 Q690.795 303.764 695.563 303.764 Q697.924 303.764 700.007 304.111 Q702.091 304.458 703.85 305.153 Z" fill="#000000" fill-rule="nonzero" fill-opacity="1" /><path clip-path="url(#clip650)" d="M716.234 297.028 L716.234 304.389 L725.007 304.389 L725.007 307.699 L716.234 307.699 L716.234 321.773 Q716.234 324.944 717.091 325.847 Q717.97 326.75 720.632 326.75 L725.007 326.75 L725.007 330.315 L720.632 330.315 Q715.702 330.315 713.827 328.486 Q711.952 326.634 711.952 321.773 L711.952 307.699 L708.827 307.699 L708.827 304.389 L711.952 304.389 L711.952 297.028 L716.234 297.028 Z" fill="#000000" fill-rule="nonzero" fill-opacity="1" /><path clip-path="url(#clip650)" d="M747.669 308.324 L747.669 294.296 L751.928 294.296 L751.928 330.315 L747.669 330.315 L747.669 326.426 Q746.327 328.74 744.266 329.875 Q742.229 330.986 739.359 330.986 Q734.66 330.986 731.697 327.236 Q728.757 323.486 728.757 317.375 Q728.757 311.264 731.697 307.514 Q734.66 303.764 739.359 303.764 Q742.229 303.764 744.266 304.898 Q746.327 306.009 747.669 308.324 M733.155 317.375 Q733.155 322.074 735.077 324.759 Q737.021 327.421 740.401 327.421 Q743.78 327.421 745.725 324.759 Q747.669 322.074 747.669 317.375 Q747.669 312.676 745.725 310.014 Q743.78 307.329 740.401 307.329 Q737.021 307.329 735.077 310.014 Q733.155 312.676 733.155 317.375 Z" fill="#000000" fill-rule="nonzero" fill-opacity="1" /><polyline clip-path="url(#clip650)" style="stroke:#ac8d18; stroke-linecap:round; stroke-linejoin:round; stroke-width:4; stroke-opacity:1; fill:none" points="342.203,364.875 510.381,364.875 "/>
<circle clip-path="url(#clip650)" cx="426.292" cy="364.875" r="20.48" fill="#ac8d18" fill-rule="evenodd" fill-opacity="1" stroke="#000000" stroke-opacity="1" stroke-width="5.68889"/>
<path clip-path="url(#clip650)" d="M560.124 366.506 L560.124 382.155 L555.865 382.155 L555.865 366.645 Q555.865 362.965 554.43 361.136 Q552.994 359.307 550.124 359.307 Q546.675 359.307 544.684 361.506 Q542.693 363.706 542.693 367.502 L542.693 382.155 L538.411 382.155 L538.411 356.229 L542.693 356.229 L542.693 360.256 Q544.221 357.919 546.281 356.761 Q548.365 355.604 551.073 355.604 Q555.541 355.604 557.832 358.381 Q560.124 361.136 560.124 366.506 Z" fill="#000000" fill-rule="nonzero" fill-opacity="1" /><path clip-path="url(#clip650)" d="M583.642 360.21 Q582.925 359.794 582.068 359.608 Q581.235 359.4 580.216 359.4 Q576.605 359.4 574.661 361.761 Q572.74 364.099 572.74 368.497 L572.74 382.155 L568.457 382.155 L568.457 356.229 L572.74 356.229 L572.74 360.256 Q574.082 357.895 576.235 356.761 Q578.388 355.604 581.466 355.604 Q581.906 355.604 582.439 355.673 Q582.971 355.719 583.619 355.835 L583.642 360.21 Z" fill="#000000" fill-rule="nonzero" fill-opacity="1" /><path clip-path="url(#clip650)" d="M607.462 361.206 Q609.059 358.335 611.281 356.969 Q613.503 355.604 616.513 355.604 Q620.563 355.604 622.763 358.451 Q624.962 361.275 624.962 366.506 L624.962 382.155 L620.679 382.155 L620.679 366.645 Q620.679 362.918 619.36 361.113 Q618.04 359.307 615.332 359.307 Q612.022 359.307 610.101 361.506 Q608.179 363.706 608.179 367.502 L608.179 382.155 L603.897 382.155 L603.897 366.645 Q603.897 362.895 602.577 361.113 Q601.258 359.307 598.503 359.307 Q595.24 359.307 593.318 361.53 Q591.397 363.729 591.397 367.502 L591.397 382.155 L587.115 382.155 L587.115 356.229 L591.397 356.229 L591.397 360.256 Q592.855 357.872 594.892 356.738 Q596.929 355.604 599.73 355.604 Q602.554 355.604 604.522 357.039 Q606.513 358.474 607.462 361.206 Z" fill="#000000" fill-rule="nonzero" fill-opacity="1" /><path clip-path="url(#clip650)" d="M638.086 378.219 L654.406 378.219 L654.406 382.155 L632.462 382.155 L632.462 378.219 Q635.124 375.465 639.707 370.835 Q644.313 366.182 645.494 364.84 Q647.739 362.317 648.619 360.581 Q649.522 358.821 649.522 357.131 Q649.522 354.377 647.577 352.641 Q645.656 350.905 642.554 350.905 Q640.355 350.905 637.901 351.669 Q635.471 352.432 632.693 353.983 L632.693 349.261 Q635.517 348.127 637.971 347.548 Q640.424 346.97 642.461 346.97 Q647.832 346.97 651.026 349.655 Q654.221 352.34 654.221 356.831 Q654.221 358.96 653.41 360.881 Q652.623 362.78 650.517 365.372 Q649.938 366.043 646.836 369.261 Q643.735 372.455 638.086 378.219 Z" fill="#000000" fill-rule="nonzero" fill-opacity="1" /><path clip-path="url(#clip650)" d="M683.318 390.025 L683.318 393.335 L658.688 393.335 L658.688 390.025 L683.318 390.025 Z" fill="#000000" fill-rule="nonzero" fill-opacity="1" /><path clip-path="url(#clip650)" d="M691.535 348.868 L691.535 356.229 L700.308 356.229 L700.308 359.539 L691.535 359.539 L691.535 373.613 Q691.535 376.784 692.392 377.687 Q693.271 378.59 695.933 378.59 L700.308 378.59 L700.308 382.155 L695.933 382.155 Q691.003 382.155 689.128 380.326 Q687.253 378.474 687.253 373.613 L687.253 359.539 L684.128 359.539 L684.128 356.229 L687.253 356.229 L687.253 348.868 L691.535 348.868 Z" fill="#000000" fill-rule="nonzero" fill-opacity="1" /><path clip-path="url(#clip650)" d="M724.521 369.215 Q724.521 364.516 722.577 361.854 Q720.655 359.169 717.276 359.169 Q713.896 359.169 711.952 361.854 Q710.031 364.516 710.031 369.215 Q710.031 373.914 711.952 376.599 Q713.896 379.261 717.276 379.261 Q720.655 379.261 722.577 376.599 Q724.521 373.914 724.521 369.215 M710.031 360.164 Q711.373 357.849 713.41 356.738 Q715.47 355.604 718.318 355.604 Q723.04 355.604 725.98 359.354 Q728.942 363.104 728.942 369.215 Q728.942 375.326 725.98 379.076 Q723.04 382.826 718.318 382.826 Q715.47 382.826 713.41 381.715 Q711.373 380.58 710.031 378.266 L710.031 382.155 L705.748 382.155 L705.748 346.136 L710.031 346.136 L710.031 360.164 Z" fill="#000000" fill-rule="nonzero" fill-opacity="1" /><path clip-path="url(#clip650)" d="M754.614 369.215 Q754.614 364.516 752.669 361.854 Q750.748 359.169 747.368 359.169 Q743.989 359.169 742.044 361.854 Q740.123 364.516 740.123 369.215 Q740.123 373.914 742.044 376.599 Q743.989 379.261 747.368 379.261 Q750.748 379.261 752.669 376.599 Q754.614 373.914 754.614 369.215 M740.123 360.164 Q741.466 357.849 743.503 356.738 Q745.563 355.604 748.41 355.604 Q753.132 355.604 756.072 359.354 Q759.035 363.104 759.035 369.215 Q759.035 375.326 756.072 379.076 Q753.132 382.826 748.41 382.826 Q745.563 382.826 743.503 381.715 Q741.466 380.58 740.123 378.266 L740.123 382.155 L735.841 382.155 L735.841 346.136 L740.123 346.136 L740.123 360.164 Z" fill="#000000" fill-rule="nonzero" fill-opacity="1" /><polyline clip-path="url(#clip650)" style="stroke:#00a9ad; stroke-linecap:round; stroke-linejoin:round; stroke-width:4; stroke-opacity:1; fill:none" points="342.203,416.715 510.381,416.715 "/>
<circle clip-path="url(#clip650)" cx="426.292" cy="416.715" r="20.48" fill="#00a9ad" fill-rule="evenodd" fill-opacity="1" stroke="#000000" stroke-opacity="1" stroke-width="5.68889"/>
<path clip-path="url(#clip650)" d="M560.124 418.346 L560.124 433.995 L555.865 433.995 L555.865 418.485 Q555.865 414.805 554.43 412.976 Q552.994 411.147 550.124 411.147 Q546.675 411.147 544.684 413.346 Q542.693 415.546 542.693 419.342 L542.693 433.995 L538.411 433.995 L538.411 408.069 L542.693 408.069 L542.693 412.096 Q544.221 409.759 546.281 408.601 Q548.365 407.444 551.073 407.444 Q555.541 407.444 557.832 410.221 Q560.124 412.976 560.124 418.346 Z" fill="#000000" fill-rule="nonzero" fill-opacity="1" /><path clip-path="url(#clip650)" d="M583.642 412.05 Q582.925 411.634 582.068 411.448 Q581.235 411.24 580.216 411.24 Q576.605 411.24 574.661 413.601 Q572.74 415.939 572.74 420.337 L572.74 433.995 L568.457 433.995 L568.457 408.069 L572.74 408.069 L572.74 412.096 Q574.082 409.735 576.235 408.601 Q578.388 407.444 581.466 407.444 Q581.906 407.444 582.439 407.513 Q582.971 407.559 583.619 407.675 L583.642 412.05 Z" fill="#000000" fill-rule="nonzero" fill-opacity="1" /><path clip-path="url(#clip650)" d="M607.462 413.046 Q609.059 410.175 611.281 408.809 Q613.503 407.444 616.513 407.444 Q620.563 407.444 622.763 410.291 Q624.962 413.115 624.962 418.346 L624.962 433.995 L620.679 433.995 L620.679 418.485 Q620.679 414.758 619.36 412.953 Q618.04 411.147 615.332 411.147 Q612.022 411.147 610.101 413.346 Q608.179 415.546 608.179 419.342 L608.179 433.995 L603.897 433.995 L603.897 418.485 Q603.897 414.735 602.577 412.953 Q601.258 411.147 598.503 411.147 Q595.24 411.147 593.318 413.37 Q591.397 415.569 591.397 419.342 L591.397 433.995 L587.115 433.995 L587.115 408.069 L591.397 408.069 L591.397 412.096 Q592.855 409.712 594.892 408.578 Q596.929 407.444 599.73 407.444 Q602.554 407.444 604.522 408.879 Q606.513 410.314 607.462 413.046 Z" fill="#000000" fill-rule="nonzero" fill-opacity="1" /><path clip-path="url(#clip650)" d="M638.086 430.059 L654.406 430.059 L654.406 433.995 L632.462 433.995 L632.462 430.059 Q635.124 427.305 639.707 422.675 Q644.313 418.022 645.494 416.68 Q647.739 414.157 648.619 412.421 Q649.522 410.661 649.522 408.971 Q649.522 406.217 647.577 404.481 Q645.656 402.745 642.554 402.745 Q640.355 402.745 637.901 403.509 Q635.471 404.272 632.693 405.823 L632.693 401.101 Q635.517 399.967 637.971 399.388 Q640.424 398.81 642.461 398.81 Q647.832 398.81 651.026 401.495 Q654.221 404.18 654.221 408.671 Q654.221 410.8 653.41 412.721 Q652.623 414.62 650.517 417.212 Q649.938 417.883 646.836 421.101 Q643.735 424.295 638.086 430.059 Z" fill="#000000" fill-rule="nonzero" fill-opacity="1" /><path clip-path="url(#clip650)" d="M683.318 441.865 L683.318 445.175 L658.688 445.175 L658.688 441.865 L683.318 441.865 Z" fill="#000000" fill-rule="nonzero" fill-opacity="1" /><path clip-path="url(#clip650)" d="M708.873 408.069 L699.498 420.684 L709.359 433.995 L704.336 433.995 L696.79 423.809 L689.244 433.995 L684.221 433.995 L694.29 420.43 L685.077 408.069 L690.1 408.069 L696.975 417.305 L703.85 408.069 L708.873 408.069 Z" fill="#000000" fill-rule="nonzero" fill-opacity="1" /><path clip-path="url(#clip650)" d="M731.905 408.833 L731.905 412.86 Q730.1 411.934 728.155 411.471 Q726.211 411.009 724.128 411.009 Q720.956 411.009 719.359 411.981 Q717.785 412.953 717.785 414.897 Q717.785 416.379 718.919 417.235 Q720.054 418.069 723.48 418.833 L724.938 419.157 Q729.475 420.129 731.373 421.911 Q733.294 423.67 733.294 426.842 Q733.294 430.453 730.424 432.559 Q727.577 434.666 722.577 434.666 Q720.493 434.666 718.225 434.249 Q715.98 433.856 713.48 433.045 L713.48 428.647 Q715.841 429.874 718.132 430.499 Q720.424 431.101 722.669 431.101 Q725.679 431.101 727.299 430.082 Q728.919 429.041 728.919 427.166 Q728.919 425.43 727.739 424.504 Q726.581 423.578 722.623 422.721 L721.142 422.374 Q717.183 421.541 715.424 419.828 Q713.665 418.092 713.665 415.083 Q713.665 411.425 716.257 409.434 Q718.85 407.444 723.618 407.444 Q725.98 407.444 728.063 407.791 Q730.146 408.138 731.905 408.833 Z" fill="#000000" fill-rule="nonzero" fill-opacity="1" /><path clip-path="url(#clip650)" d="M740.077 408.069 L744.336 408.069 L744.336 433.995 L740.077 433.995 L740.077 408.069 M740.077 397.976 L744.336 397.976 L744.336 403.37 L740.077 403.37 L740.077 397.976 Z" fill="#000000" fill-rule="nonzero" fill-opacity="1" /><path clip-path="url(#clip650)" d="M773.433 413.046 Q775.03 410.175 777.252 408.809 Q779.475 407.444 782.484 407.444 Q786.535 407.444 788.734 410.291 Q790.933 413.115 790.933 418.346 L790.933 433.995 L786.651 433.995 L786.651 418.485 Q786.651 414.758 785.331 412.953 Q784.012 411.147 781.303 411.147 Q777.993 411.147 776.072 413.346 Q774.151 415.546 774.151 419.342 L774.151 433.995 L769.868 433.995 L769.868 418.485 Q769.868 414.735 768.549 412.953 Q767.229 411.147 764.475 411.147 Q761.211 411.147 759.29 413.37 Q757.368 415.569 757.368 419.342 L757.368 433.995 L753.086 433.995 L753.086 408.069 L757.368 408.069 L757.368 412.096 Q758.827 409.712 760.864 408.578 Q762.901 407.444 765.702 407.444 Q768.526 407.444 770.493 408.879 Q772.484 410.314 773.433 413.046 Z" fill="#000000" fill-rule="nonzero" fill-opacity="1" /><path clip-path="url(#clip650)" d="M816.488 412.004 L816.488 397.976 L820.748 397.976 L820.748 433.995 L816.488 433.995 L816.488 430.106 Q815.146 432.42 813.086 433.555 Q811.049 434.666 808.178 434.666 Q803.479 434.666 800.516 430.916 Q797.576 427.166 797.576 421.055 Q797.576 414.944 800.516 411.194 Q803.479 407.444 808.178 407.444 Q811.049 407.444 813.086 408.578 Q815.146 409.689 816.488 412.004 M801.975 421.055 Q801.975 425.754 803.896 428.439 Q805.84 431.101 809.22 431.101 Q812.599 431.101 814.544 428.439 Q816.488 425.754 816.488 421.055 Q816.488 416.356 814.544 413.694 Q812.599 411.009 809.22 411.009 Q805.84 411.009 803.896 413.694 Q801.975 416.356 801.975 421.055 Z" fill="#000000" fill-rule="nonzero" fill-opacity="1" /></svg>
