<?xml version="1.0" encoding="utf-8"?>
<svg xmlns="http://www.w3.org/2000/svg" xmlns:xlink="http://www.w3.org/1999/xlink" width="700" height="500" viewBox="0 0 2800 2000">
<defs>
  <clipPath id="clip700">
    <rect x="0" y="0" width="2800" height="2000"/>
  </clipPath>
</defs>
<path clip-path="url(#clip700)" d="M0 2000 L2800 2000 L2800 0 L0 0  Z" fill="#ffffff" fill-rule="evenodd" fill-opacity="1"/>
<defs>
  <clipPath id="clip701">
    <rect x="230" y="47" width="2524" height="1754"/>
  </clipPath>
</defs>
<path clip-path="url(#clip700)" d="M230.085 1800.16 L2752.76 1800.16 L2752.76 47.2441 L230.085 47.2441  Z" fill="#ffffff" fill-rule="evenodd" fill-opacity="1"/>
<polyline clip-path="url(#clip701)" style="stroke:#000000; stroke-linecap:round; stroke-linejoin:round; stroke-width:2; stroke-opacity:0.1; fill:none" points="301.481,1800.16 301.481,47.2441 "/>
<polyline clip-path="url(#clip701)" style="stroke:#000000; stroke-linecap:round; stroke-linejoin:round; stroke-width:2; stroke-opacity:0.1; fill:none" points="981.446,1800.16 981.446,47.2441 "/>
<polyline clip-path="url(#clip701)" style="stroke:#000000; stroke-linecap:round; stroke-linejoin:round; stroke-width:2; stroke-opacity:0.1; fill:none" points="1661.41,1800.16 1661.41,47.2441 "/>
<polyline clip-path="url(#clip701)" style="stroke:#000000; stroke-linecap:round; stroke-linejoin:round; stroke-width:2; stroke-opacity:0.1; fill:none" points="2341.38,1800.16 2341.38,47.2441 "/>
<polyline clip-path="url(#clip701)" style="stroke:#000000; stroke-linecap:round; stroke-linejoin:round; stroke-width:2; stroke-opacity:0.1; fill:none" points="230.085,1540.98 2752.76,1540.98 "/>
<polyline clip-path="url(#clip701)" style="stroke:#000000; stroke-linecap:round; stroke-linejoin:round; stroke-width:2; stroke-opacity:0.1; fill:none" points="230.085,1136.04 2752.76,1136.04 "/>
<polyline clip-path="url(#clip701)" style="stroke:#000000; stroke-linecap:round; stroke-linejoin:round; stroke-width:2; stroke-opacity:0.1; fill:none" points="230.085,731.103 2752.76,731.103 "/>
<polyline clip-path="url(#clip701)" style="stroke:#000000; stroke-linecap:round; stroke-linejoin:round; stroke-width:2; stroke-opacity:0.1; fill:none" points="230.085,326.165 2752.76,326.165 "/>
<polyline clip-path="url(#clip700)" style="stroke:#000000; stroke-linecap:round; stroke-linejoin:round; stroke-width:4; stroke-opacity:1; fill:none" points="230.085,1800.16 2752.76,1800.16 "/>
<polyline clip-path="url(#clip700)" style="stroke:#000000; stroke-linecap:round; stroke-linejoin:round; stroke-width:4; stroke-opacity:1; fill:none" points="301.481,1800.16 301.481,1781.26 "/>
<polyline clip-path="url(#clip700)" style="stroke:#000000; stroke-linecap:round; stroke-linejoin:round; stroke-width:4; stroke-opacity:1; fill:none" points="981.446,1800.16 981.446,1781.26 "/>
<polyline clip-path="url(#clip700)" style="stroke:#000000; stroke-linecap:round; stroke-linejoin:round; stroke-width:4; stroke-opacity:1; fill:none" points="1661.41,1800.16 1661.41,1781.26 "/>
<polyline clip-path="url(#clip700)" style="stroke:#000000; stroke-linecap:round; stroke-linejoin:round; stroke-width:4; stroke-opacity:1; fill:none" points="2341.38,1800.16 2341.38,1781.26 "/>
<path clip-path="url(#clip700)" d="M267.254 1877.48 L274.893 1877.48 L274.893 1851.12 L266.582 1852.78 L266.582 1848.52 L274.846 1846.86 L279.522 1846.86 L279.522 1877.48 L287.161 1877.48 L287.161 1881.42 L267.254 1881.42 L267.254 1877.48 Z" fill="#000000" fill-rule="nonzero" fill-opacity="1" /><path clip-path="url(#clip700)" d="M306.605 1849.94 Q302.994 1849.94 301.166 1853.5 Q299.36 1857.04 299.36 1864.17 Q299.36 1871.28 301.166 1874.84 Q302.994 1878.38 306.605 1878.38 Q310.24 1878.38 312.045 1874.84 Q313.874 1871.28 313.874 1864.17 Q313.874 1857.04 312.045 1853.5 Q310.24 1849.94 306.605 1849.94 M306.605 1846.23 Q312.416 1846.23 315.471 1850.84 Q318.55 1855.42 318.55 1864.17 Q318.55 1872.9 315.471 1877.5 Q312.416 1882.09 306.605 1882.09 Q300.795 1882.09 297.717 1877.5 Q294.661 1872.9 294.661 1864.17 Q294.661 1855.42 297.717 1850.84 Q300.795 1846.23 306.605 1846.23 Z" fill="#000000" fill-rule="nonzero" fill-opacity="1" /><path clip-path="url(#clip700)" d="M323.12 1850.81 L336.38 1850.81 L336.38 1854.01 L318.55 1854.01 L318.55 1850.81 Q320.713 1848.57 324.437 1844.81 Q328.179 1841.03 329.139 1839.94 Q330.963 1837.89 331.678 1836.48 Q332.411 1835.05 332.411 1833.67 Q332.411 1831.44 330.831 1830.03 Q329.27 1828.62 326.75 1828.62 Q324.963 1828.62 322.97 1829.24 Q320.995 1829.86 318.738 1831.12 L318.738 1827.28 Q321.032 1826.36 323.026 1825.89 Q325.02 1825.42 326.675 1825.42 Q331.038 1825.42 333.634 1827.6 Q336.229 1829.78 336.229 1833.43 Q336.229 1835.16 335.571 1836.72 Q334.931 1838.26 333.22 1840.37 Q332.75 1840.92 330.229 1843.53 Q327.709 1846.13 323.12 1850.81 Z" fill="#000000" fill-rule="nonzero" fill-opacity="1" /><path clip-path="url(#clip700)" d="M945.902 1877.48 L953.541 1877.48 L953.541 1851.12 L945.231 1852.78 L945.231 1848.52 L953.495 1846.86 L958.171 1846.86 L958.171 1877.48 L965.81 1877.48 L965.81 1881.42 L945.902 1881.42 L945.902 1877.48 Z" fill="#000000" fill-rule="nonzero" fill-opacity="1" /><path clip-path="url(#clip700)" d="M985.254 1849.94 Q981.643 1849.94 979.814 1853.5 Q978.009 1857.04 978.009 1864.17 Q978.009 1871.28 979.814 1874.84 Q981.643 1878.38 985.254 1878.38 Q988.888 1878.38 990.694 1874.84 Q992.523 1871.28 992.523 1864.17 Q992.523 1857.04 990.694 1853.5 Q988.888 1849.94 985.254 1849.94 M985.254 1846.23 Q991.064 1846.23 994.12 1850.84 Q997.199 1855.42 997.199 1864.17 Q997.199 1872.9 994.12 1877.5 Q991.064 1882.09 985.254 1882.09 Q979.444 1882.09 976.365 1877.5 Q973.31 1872.9 973.31 1864.17 Q973.31 1855.42 976.365 1850.84 Q979.444 1846.23 985.254 1846.23 Z" fill="#000000" fill-rule="nonzero" fill-opacity="1" /><path clip-path="url(#clip700)" d="M1009.87 1829.24 L1000.28 1844.23 L1009.87 1844.23 L1009.87 1829.24 M1008.88 1825.93 L1013.66 1825.93 L1013.66 1844.23 L1017.66 1844.23 L1017.66 1847.39 L1013.66 1847.39 L1013.66 1854.01 L1009.87 1854.01 L1009.87 1847.39 L997.199 1847.39 L997.199 1843.72 L1008.88 1825.93 Z" fill="#000000" fill-rule="nonzero" fill-opacity="1" /><path clip-path="url(#clip700)" d="M1626.4 1877.48 L1634.04 1877.48 L1634.04 1851.12 L1625.73 1852.78 L1625.73 1848.52 L1634 1846.86 L1638.67 1846.86 L1638.67 1877.48 L1646.31 1877.48 L1646.31 1881.42 L1626.4 1881.42 L1626.4 1877.48 Z" fill="#000000" fill-rule="nonzero" fill-opacity="1" /><path clip-path="url(#clip700)" d="M1665.76 1849.94 Q1662.14 1849.94 1660.32 1853.5 Q1658.51 1857.04 1658.51 1864.17 Q1658.51 1871.28 1660.32 1874.84 Q1662.14 1878.38 1665.76 1878.38 Q1669.39 1878.38 1671.2 1874.84 Q1673.02 1871.28 1673.02 1864.17 Q1673.02 1857.04 1671.2 1853.5 Q1669.39 1849.94 1665.76 1849.94 M1665.76 1846.23 Q1671.57 1846.23 1674.62 1850.84 Q1677.7 1855.42 1677.7 1864.17 Q1677.7 1872.9 1674.62 1877.5 Q1671.57 1882.09 1665.76 1882.09 Q1659.95 1882.09 1656.87 1877.5 Q1653.81 1872.9 1653.81 1864.17 Q1653.81 1855.42 1656.87 1850.84 Q1659.95 1846.23 1665.76 1846.23 Z" fill="#000000" fill-rule="nonzero" fill-opacity="1" /><path clip-path="url(#clip700)" d="M1687.72 1838.45 Q1685.17 1838.45 1683.66 1840.2 Q1682.18 1841.95 1682.18 1845 Q1682.18 1848.03 1683.66 1849.79 Q1685.17 1851.54 1687.72 1851.54 Q1690.28 1851.54 1691.77 1849.79 Q1693.27 1848.03 1693.27 1845 Q1693.27 1841.95 1691.77 1840.2 Q1690.28 1838.45 1687.72 1838.45 M1695.27 1826.55 L1695.27 1830.01 Q1693.84 1829.33 1692.37 1828.97 Q1690.92 1828.62 1689.49 1828.62 Q1685.73 1828.62 1683.74 1831.15 Q1681.76 1833.69 1681.48 1838.83 Q1682.59 1837.19 1684.26 1836.33 Q1685.94 1835.44 1687.95 1835.44 Q1692.18 1835.44 1694.63 1838.02 Q1697.09 1840.58 1697.09 1845 Q1697.09 1849.32 1694.53 1851.94 Q1691.97 1854.55 1687.72 1854.55 Q1682.85 1854.55 1680.28 1850.83 Q1677.7 1847.08 1677.7 1839.99 Q1677.7 1833.34 1680.86 1829.39 Q1684.02 1825.42 1689.34 1825.42 Q1690.77 1825.42 1692.22 1825.7 Q1693.69 1825.98 1695.27 1826.55 Z" fill="#000000" fill-rule="nonzero" fill-opacity="1" /><path clip-path="url(#clip700)" d="M2306.43 1877.48 L2314.07 1877.48 L2314.07 1851.12 L2305.76 1852.78 L2305.76 1848.52 L2314.03 1846.86 L2318.7 1846.86 L2318.7 1877.48 L2326.34 1877.48 L2326.34 1881.42 L2306.43 1881.42 L2306.43 1877.48 Z" fill="#000000" fill-rule="nonzero" fill-opacity="1" /><path clip-path="url(#clip700)" d="M2345.79 1849.94 Q2342.18 1849.94 2340.35 1853.5 Q2338.54 1857.04 2338.54 1864.17 Q2338.54 1871.28 2340.35 1874.84 Q2342.18 1878.38 2345.79 1878.38 Q2349.42 1878.38 2351.23 1874.84 Q2353.06 1871.28 2353.06 1864.17 Q2353.06 1857.04 2351.23 1853.5 Q2349.42 1849.94 2345.79 1849.94 M2345.79 1846.23 Q2351.6 1846.23 2354.65 1850.84 Q2357.73 1855.42 2357.73 1864.17 Q2357.73 1872.9 2354.65 1877.5 Q2351.6 1882.09 2345.79 1882.09 Q2339.98 1882.09 2336.9 1877.5 Q2333.84 1872.9 2333.84 1864.17 Q2333.84 1855.42 2336.9 1850.84 Q2339.98 1846.23 2345.79 1846.23 Z" fill="#000000" fill-rule="nonzero" fill-opacity="1" /><path clip-path="url(#clip700)" d="M2367.36 1840.67 Q2364.65 1840.67 2363.09 1842.12 Q2361.55 1843.57 2361.55 1846.11 Q2361.55 1848.65 2363.09 1850.09 Q2364.65 1851.54 2367.36 1851.54 Q2370.07 1851.54 2371.63 1850.09 Q2373.19 1848.63 2373.19 1846.11 Q2373.19 1843.57 2371.63 1842.12 Q2370.09 1840.67 2367.36 1840.67 M2363.56 1839.05 Q2361.12 1838.45 2359.74 1836.78 Q2358.39 1835.1 2358.39 1832.7 Q2358.39 1829.33 2360.78 1827.37 Q2363.19 1825.42 2367.36 1825.42 Q2371.55 1825.42 2373.94 1827.37 Q2376.33 1829.33 2376.33 1832.7 Q2376.33 1835.1 2374.96 1836.78 Q2373.6 1838.45 2371.18 1839.05 Q2373.92 1839.69 2375.45 1841.56 Q2376.99 1843.42 2376.99 1846.11 Q2376.99 1850.19 2374.49 1852.37 Q2372.01 1854.55 2367.36 1854.55 Q2362.72 1854.55 2360.21 1852.37 Q2357.73 1850.19 2357.73 1846.11 Q2357.73 1843.42 2359.27 1841.56 Q2360.82 1839.69 2363.56 1839.05 M2362.17 1833.05 Q2362.17 1835.24 2363.52 1836.46 Q2364.9 1837.68 2367.36 1837.68 Q2369.81 1837.68 2371.18 1836.46 Q2372.57 1835.24 2372.57 1833.05 Q2372.57 1830.87 2371.18 1829.65 Q2369.81 1828.43 2367.36 1828.43 Q2364.9 1828.43 2363.52 1829.65 Q2362.17 1830.87 2362.17 1833.05 Z" fill="#000000" fill-rule="nonzero" fill-opacity="1" /><path clip-path="url(#clip700)" d="M1458.99 1923.48 L1458.99 1929.76 Q1455.33 1928 1452.08 1927.15 Q1448.83 1926.29 1445.81 1926.29 Q1440.56 1926.29 1437.69 1928.32 Q1434.86 1930.36 1434.86 1934.12 Q1434.86 1937.27 1436.74 1938.89 Q1438.65 1940.48 1443.93 1941.47 L1447.82 1942.26 Q1455.01 1943.63 1458.41 1947.1 Q1461.85 1950.54 1461.85 1956.33 Q1461.85 1963.24 1457.2 1966.8 Q1452.59 1970.37 1443.65 1970.37 Q1440.27 1970.37 1436.45 1969.6 Q1432.66 1968.84 1428.59 1967.34 L1428.59 1960.72 Q1432.51 1962.92 1436.26 1964.03 Q1440.02 1965.15 1443.65 1965.15 Q1449.15 1965.15 1452.14 1962.98 Q1455.14 1960.82 1455.14 1956.81 Q1455.14 1953.31 1452.97 1951.33 Q1450.84 1949.36 1445.94 1948.37 L1442.02 1947.61 Q1434.83 1946.18 1431.61 1943.12 Q1428.4 1940.07 1428.4 1934.62 Q1428.4 1928.32 1432.82 1924.69 Q1437.28 1921.07 1445.08 1921.07 Q1448.42 1921.07 1451.89 1921.67 Q1455.36 1922.28 1458.99 1923.48 Z" fill="#000000" fill-rule="nonzero" fill-opacity="1" /><path clip-path="url(#clip700)" d="M1471.62 1933.8 L1477.48 1933.8 L1477.48 1969.45 L1471.62 1969.45 L1471.62 1933.8 M1471.62 1919.92 L1477.48 1919.92 L1477.48 1927.34 L1471.62 1927.34 L1471.62 1919.92 Z" fill="#000000" fill-rule="nonzero" fill-opacity="1" /><path clip-path="url(#clip700)" d="M1487.19 1933.8 L1515.01 1933.8 L1515.01 1939.14 L1492.98 1964.77 L1515.01 1964.77 L1515.01 1969.45 L1486.39 1969.45 L1486.39 1964.1 L1508.42 1938.48 L1487.19 1938.48 L1487.19 1933.8 Z" fill="#000000" fill-rule="nonzero" fill-opacity="1" /><path clip-path="url(#clip700)" d="M1554.44 1950.16 L1554.44 1953.02 L1527.51 1953.02 Q1527.9 1959.07 1531.14 1962.25 Q1534.42 1965.4 1540.25 1965.4 Q1543.62 1965.4 1546.77 1964.58 Q1549.95 1963.75 1553.07 1962.09 L1553.07 1967.63 Q1549.92 1968.97 1546.61 1969.67 Q1543.3 1970.37 1539.9 1970.37 Q1531.37 1970.37 1526.37 1965.4 Q1521.4 1960.44 1521.4 1951.97 Q1521.4 1943.22 1526.11 1938.09 Q1530.86 1932.94 1538.88 1932.94 Q1546.07 1932.94 1550.24 1937.58 Q1554.44 1942.2 1554.44 1950.16 M1548.58 1948.44 Q1548.52 1943.63 1545.88 1940.77 Q1543.27 1937.9 1538.94 1937.9 Q1534.04 1937.9 1531.08 1940.67 Q1528.15 1943.44 1527.7 1948.47 L1548.58 1948.44 Z" fill="#000000" fill-rule="nonzero" fill-opacity="1" /><polyline clip-path="url(#clip700)" style="stroke:#000000; stroke-linecap:round; stroke-linejoin:round; stroke-width:4; stroke-opacity:1; fill:none" points="230.085,1800.16 230.085,47.2441 "/>
<polyline clip-path="url(#clip700)" style="stroke:#000000; stroke-linecap:round; stroke-linejoin:round; stroke-width:4; stroke-opacity:1; fill:none" points="230.085,1540.98 248.982,1540.98 "/>
<polyline clip-path="url(#clip700)" style="stroke:#000000; stroke-linecap:round; stroke-linejoin:round; stroke-width:4; stroke-opacity:1; fill:none" points="230.085,1136.04 248.982,1136.04 "/>
<polyline clip-path="url(#clip700)" style="stroke:#000000; stroke-linecap:round; stroke-linejoin:round; stroke-width:4; stroke-opacity:1; fill:none" points="230.085,731.103 248.982,731.103 "/>
<polyline clip-path="url(#clip700)" style="stroke:#000000; stroke-linecap:round; stroke-linejoin:round; stroke-width:4; stroke-opacity:1; fill:none" points="230.085,326.165 248.982,326.165 "/>
<path clip-path="url(#clip700)" d="M118.959 1560.77 L126.598 1560.77 L126.598 1534.41 L118.288 1536.07 L118.288 1531.81 L126.551 1530.15 L131.227 1530.15 L131.227 1560.77 L138.866 1560.77 L138.866 1564.71 L118.959 1564.71 L118.959 1560.77 Z" fill="#000000" fill-rule="nonzero" fill-opacity="1" /><path clip-path="url(#clip700)" d="M158.31 1533.23 Q154.699 1533.23 152.871 1536.79 Q151.065 1540.33 151.065 1547.46 Q151.065 1554.57 152.871 1558.13 Q154.699 1561.67 158.31 1561.67 Q161.945 1561.67 163.75 1558.13 Q165.579 1554.57 165.579 1547.46 Q165.579 1540.33 163.75 1536.79 Q161.945 1533.23 158.31 1533.23 M158.31 1529.52 Q164.121 1529.52 167.176 1534.13 Q170.255 1538.71 170.255 1547.46 Q170.255 1556.19 167.176 1560.79 Q164.121 1565.38 158.31 1565.38 Q152.5 1565.38 149.422 1560.79 Q146.366 1556.19 146.366 1547.46 Q146.366 1538.71 149.422 1534.13 Q152.5 1529.52 158.31 1529.52 Z" fill="#000000" fill-rule="nonzero" fill-opacity="1" /><path clip-path="url(#clip700)" d="M174.825 1534.1 L188.085 1534.1 L188.085 1537.3 L170.255 1537.3 L170.255 1534.1 Q172.418 1531.86 176.142 1528.1 Q179.884 1524.32 180.844 1523.23 Q182.668 1521.18 183.383 1519.77 Q184.116 1518.34 184.116 1516.97 Q184.116 1514.73 182.536 1513.32 Q180.975 1511.91 178.455 1511.91 Q176.668 1511.91 174.675 1512.53 Q172.7 1513.15 170.443 1514.41 L170.443 1510.57 Q172.737 1509.65 174.731 1509.18 Q176.725 1508.71 178.38 1508.71 Q182.743 1508.71 185.339 1510.89 Q187.934 1513.07 187.934 1516.72 Q187.934 1518.45 187.276 1520.01 Q186.636 1521.55 184.925 1523.66 Q184.455 1524.21 181.934 1526.82 Q179.414 1529.42 174.825 1534.1 Z" fill="#000000" fill-rule="nonzero" fill-opacity="1" /><path clip-path="url(#clip700)" d="M116.326 1155.83 L123.965 1155.83 L123.965 1129.47 L115.654 1131.13 L115.654 1126.88 L123.918 1125.21 L128.594 1125.21 L128.594 1155.83 L136.233 1155.83 L136.233 1159.77 L116.326 1159.77 L116.326 1155.83 Z" fill="#000000" fill-rule="nonzero" fill-opacity="1" /><path clip-path="url(#clip700)" d="M155.677 1128.29 Q152.066 1128.29 150.238 1131.85 Q148.432 1135.39 148.432 1142.52 Q148.432 1149.63 150.238 1153.19 Q152.066 1156.74 155.677 1156.74 Q159.312 1156.74 161.117 1153.19 Q162.946 1149.63 162.946 1142.52 Q162.946 1135.39 161.117 1131.85 Q159.312 1128.29 155.677 1128.29 M155.677 1124.58 Q161.488 1124.58 164.543 1129.19 Q167.622 1133.77 167.622 1142.52 Q167.622 1151.25 164.543 1155.86 Q161.488 1160.44 155.677 1160.44 Q149.867 1160.44 146.789 1155.86 Q143.733 1151.25 143.733 1142.52 Q143.733 1133.77 146.789 1129.19 Q149.867 1124.58 155.677 1124.58 Z" fill="#000000" fill-rule="nonzero" fill-opacity="1" /><path clip-path="url(#clip700)" d="M180.298 1107.59 L170.706 1122.58 L180.298 1122.58 L180.298 1107.59 M179.301 1104.28 L184.079 1104.28 L184.079 1122.58 L188.085 1122.58 L188.085 1125.74 L184.079 1125.74 L184.079 1132.36 L180.298 1132.36 L180.298 1125.74 L167.622 1125.74 L167.622 1122.07 L179.301 1104.28 Z" fill="#000000" fill-rule="nonzero" fill-opacity="1" /><path clip-path="url(#clip700)" d="M117.398 750.896 L125.037 750.896 L125.037 724.53 L116.726 726.197 L116.726 721.937 L124.99 720.271 L129.666 720.271 L129.666 750.896 L137.305 750.896 L137.305 754.831 L117.398 754.831 L117.398 750.896 Z" fill="#000000" fill-rule="nonzero" fill-opacity="1" /><path clip-path="url(#clip700)" d="M156.749 723.349 Q153.138 723.349 151.31 726.914 Q149.504 730.456 149.504 737.585 Q149.504 744.692 151.31 748.257 Q153.138 751.798 156.749 751.798 Q160.384 751.798 162.189 748.257 Q164.018 744.692 164.018 737.585 Q164.018 730.456 162.189 726.914 Q160.384 723.349 156.749 723.349 M156.749 719.646 Q162.56 719.646 165.615 724.252 Q168.694 728.836 168.694 737.585 Q168.694 746.312 165.615 750.919 Q162.56 755.502 156.749 755.502 Q150.939 755.502 147.861 750.919 Q144.805 746.312 144.805 737.585 Q144.805 728.836 147.861 724.252 Q150.939 719.646 156.749 719.646 Z" fill="#000000" fill-rule="nonzero" fill-opacity="1" /><path clip-path="url(#clip700)" d="M178.718 711.866 Q176.16 711.866 174.656 713.615 Q173.17 715.365 173.17 718.411 Q173.17 721.439 174.656 723.207 Q176.16 724.957 178.718 724.957 Q181.276 724.957 182.762 723.207 Q184.267 721.439 184.267 718.411 Q184.267 715.365 182.762 713.615 Q181.276 711.866 178.718 711.866 M186.26 699.961 L186.26 703.422 Q184.831 702.745 183.364 702.387 Q181.916 702.03 180.486 702.03 Q176.725 702.03 174.731 704.569 Q172.756 707.108 172.474 712.242 Q173.584 710.606 175.258 709.741 Q176.932 708.857 178.944 708.857 Q183.176 708.857 185.621 711.434 Q188.085 713.992 188.085 718.411 Q188.085 722.737 185.527 725.351 Q182.969 727.966 178.718 727.966 Q173.847 727.966 171.27 724.242 Q168.694 720.499 168.694 713.409 Q168.694 706.751 171.854 702.801 Q175.013 698.833 180.336 698.833 Q181.765 698.833 183.213 699.115 Q184.68 699.397 186.26 699.961 Z" fill="#000000" fill-rule="nonzero" fill-opacity="1" /><path clip-path="url(#clip700)" d="M117.529 345.958 L125.168 345.958 L125.168 319.592 L116.858 321.259 L116.858 316.999 L125.122 315.333 L129.798 315.333 L129.798 345.958 L137.437 345.958 L137.437 349.893 L117.529 349.893 L117.529 345.958 Z" fill="#000000" fill-rule="nonzero" fill-opacity="1" /><path clip-path="url(#clip700)" d="M156.881 318.411 Q153.27 318.411 151.441 321.976 Q149.636 325.518 149.636 332.647 Q149.636 339.754 151.441 343.319 Q153.27 346.86 156.881 346.86 Q160.515 346.86 162.321 343.319 Q164.15 339.754 164.15 332.647 Q164.15 325.518 162.321 321.976 Q160.515 318.411 156.881 318.411 M156.881 314.708 Q162.691 314.708 165.747 319.314 Q168.825 323.898 168.825 332.647 Q168.825 341.374 165.747 345.981 Q162.691 350.564 156.881 350.564 Q151.071 350.564 147.992 345.981 Q144.937 341.374 144.937 332.647 Q144.937 323.898 147.992 319.314 Q151.071 314.708 156.881 314.708 Z" fill="#000000" fill-rule="nonzero" fill-opacity="1" /><path clip-path="url(#clip700)" d="M178.455 309.148 Q175.747 309.148 174.186 310.596 Q172.643 312.044 172.643 314.583 Q172.643 317.122 174.186 318.57 Q175.747 320.019 178.455 320.019 Q181.163 320.019 182.724 318.57 Q184.285 317.103 184.285 314.583 Q184.285 312.044 182.724 310.596 Q181.182 309.148 178.455 309.148 M174.656 307.53 Q172.211 306.928 170.838 305.254 Q169.484 303.581 169.484 301.173 Q169.484 297.807 171.872 295.851 Q174.28 293.895 178.455 293.895 Q182.649 293.895 185.038 295.851 Q187.426 297.807 187.426 301.173 Q187.426 303.581 186.053 305.254 Q184.699 306.928 182.273 307.53 Q185.019 308.17 186.542 310.032 Q188.085 311.894 188.085 314.583 Q188.085 318.664 185.583 320.846 Q183.101 323.028 178.455 323.028 Q173.81 323.028 171.308 320.846 Q168.825 318.664 168.825 314.583 Q168.825 311.894 170.368 310.032 Q171.91 308.17 174.656 307.53 M173.264 301.531 Q173.264 303.712 174.618 304.935 Q175.991 306.157 178.455 306.157 Q180.9 306.157 182.273 304.935 Q183.665 303.712 183.665 301.531 Q183.665 299.349 182.273 298.126 Q180.9 296.904 178.455 296.904 Q175.991 296.904 174.618 298.126 Q173.264 299.349 173.264 301.531 Z" fill="#000000" fill-rule="nonzero" fill-opacity="1" /><path clip-path="url(#clip700)" d="M15.5387 1038.2 L22.3182 1038.2 Q19.2945 1041.45 17.7986 1045.14 Q16.3026 1048.8 16.3026 1052.94 Q16.3026 1061.09 21.2997 1065.42 Q26.2649 1069.75 35.6862 1069.75 Q45.0756 1069.75 50.0727 1065.42 Q55.0379 1061.09 55.0379 1052.94 Q55.0379 1048.8 53.542 1045.14 Q52.0461 1041.45 49.0223 1038.2 L55.7382 1038.2 Q58.0298 1041.58 59.1756 1045.36 Q60.3215 1049.12 60.3215 1053.32 Q60.3215 1064.11 53.733 1070.32 Q47.1126 1076.52 35.6862 1076.52 Q24.2279 1076.52 17.6394 1070.32 Q11.0191 1064.11 11.0191 1053.32 Q11.0191 1049.06 12.1649 1045.3 Q13.2789 1041.51 15.5387 1038.2 Z" fill="#000000" fill-rule="nonzero" fill-opacity="1" /><path clip-path="url(#clip700)" d="M17.162 1021.84 L35.0178 1021.84 L35.0178 1013.76 Q35.0178 1009.27 32.6943 1006.82 Q30.3708 1004.37 26.074 1004.37 Q21.8089 1004.37 19.4855 1006.82 Q17.162 1009.27 17.162 1013.76 L17.162 1021.84 M11.8784 1028.27 L11.8784 1013.76 Q11.8784 1005.77 15.5069 1001.7 Q19.1035 997.59 26.074 997.59 Q33.1081 997.59 36.7047 1001.7 Q40.3013 1005.77 40.3013 1013.76 L40.3013 1021.84 L59.3984 1021.84 L59.3984 1028.27 L11.8784 1028.27 Z" fill="#000000" fill-rule="nonzero" fill-opacity="1" /><path clip-path="url(#clip700)" d="M11.8784 989.697 L11.8784 983.236 L40.7469 983.236 Q48.3858 983.236 51.7596 980.466 Q55.1016 977.697 55.1016 971.491 Q55.1016 965.316 51.7596 962.547 Q48.3858 959.778 40.7469 959.778 L11.8784 959.778 L11.8784 953.317 L41.5426 953.317 Q50.8366 953.317 55.579 957.932 Q60.3215 962.515 60.3215 971.491 Q60.3215 980.498 55.579 985.113 Q50.8366 989.697 41.5426 989.697 L11.8784 989.697 Z" fill="#000000" fill-rule="nonzero" fill-opacity="1" /><path clip-path="url(#clip700)" d="M11.8784 927.122 L11.8784 886.922 L17.2893 886.922 L17.2893 903.792 L59.3984 903.792 L59.3984 910.253 L17.2893 910.253 L17.2893 927.122 L11.8784 927.122 Z" fill="#000000" fill-rule="nonzero" fill-opacity="1" /><path clip-path="url(#clip700)" d="M23.7505 882.976 L23.7505 877.119 L59.3984 877.119 L59.3984 882.976 L23.7505 882.976 M9.87325 882.976 L9.87325 877.119 L17.2893 877.119 L17.2893 882.976 L9.87325 882.976 Z" fill="#000000" fill-rule="nonzero" fill-opacity="1" /><path clip-path="url(#clip700)" d="M30.5936 837.111 Q26.6469 834.915 24.769 831.859 Q22.8911 828.803 22.8911 824.666 Q22.8911 819.096 26.806 816.072 Q30.6891 813.048 37.8824 813.048 L59.3984 813.048 L59.3984 818.937 L38.0733 818.937 Q32.9489 818.937 30.4663 820.751 Q27.9837 822.565 27.9837 826.289 Q27.9837 830.841 31.0074 833.482 Q34.0311 836.124 39.251 836.124 L59.3984 836.124 L59.3984 842.012 L38.0733 842.012 Q32.9171 842.012 30.4663 843.827 Q27.9837 845.641 27.9837 849.428 Q27.9837 853.916 31.0392 856.558 Q34.0629 859.2 39.251 859.2 L59.3984 859.2 L59.3984 865.088 L23.7505 865.088 L23.7505 859.2 L29.2887 859.2 Q26.0103 857.195 24.4507 854.394 Q22.8911 851.593 22.8911 847.741 Q22.8911 843.858 24.8645 841.153 Q26.8379 838.416 30.5936 837.111 Z" fill="#000000" fill-rule="nonzero" fill-opacity="1" /><path clip-path="url(#clip700)" d="M40.1104 770.876 L42.9749 770.876 L42.9749 797.802 Q49.0223 797.421 52.2052 794.174 Q55.3562 790.896 55.3562 785.071 Q55.3562 781.697 54.5287 778.546 Q53.7011 775.363 52.0461 772.244 L57.5842 772.244 Q58.921 775.395 59.6212 778.705 Q60.3215 782.016 60.3215 785.421 Q60.3215 793.951 55.3562 798.948 Q50.391 803.914 41.9246 803.914 Q33.1717 803.914 28.0473 799.203 Q22.8911 794.46 22.8911 786.44 Q22.8911 779.246 27.5381 775.077 Q32.1532 770.876 40.1104 770.876 M38.3916 776.732 Q33.5855 776.796 30.7209 779.437 Q27.8564 782.047 27.8564 786.376 Q27.8564 791.278 30.6254 794.238 Q33.3945 797.166 38.4234 797.612 L38.3916 776.732 Z" fill="#000000" fill-rule="nonzero" fill-opacity="1" /><polyline clip-path="url(#clip701)" style="stroke:#009af9; stroke-linecap:round; stroke-linejoin:round; stroke-width:4; stroke-opacity:1; fill:none" points="301.481,1750.55 641.464,1575.89 981.446,1288.88 1321.43,985.159 1661.41,773.449 2001.39,523.805 2341.38,316.478 2681.36,113.514 "/>
<circle clip-path="url(#clip701)" cx="301.481" cy="1750.55" r="14.4" fill="#009af9" fill-rule="evenodd" fill-opacity="1" stroke="#000000" stroke-opacity="1" stroke-width="4"/>
<circle clip-path="url(#clip701)" cx="641.464" cy="1575.89" r="14.4" fill="#009af9" fill-rule="evenodd" fill-opacity="1" stroke="#000000" stroke-opacity="1" stroke-width="4"/>
<circle clip-path="url(#clip701)" cx="981.446" cy="1288.88" r="14.4" fill="#009af9" fill-rule="evenodd" fill-opacity="1" stroke="#000000" stroke-opacity="1" stroke-width="4"/>
<circle clip-path="url(#clip701)" cx="1321.43" cy="985.159" r="14.4" fill="#009af9" fill-rule="evenodd" fill-opacity="1" stroke="#000000" stroke-opacity="1" stroke-width="4"/>
<circle clip-path="url(#clip701)" cx="1661.41" cy="773.449" r="14.4" fill="#009af9" fill-rule="evenodd" fill-opacity="1" stroke="#000000" stroke-opacity="1" stroke-width="4"/>
<circle clip-path="url(#clip701)" cx="2001.39" cy="523.805" r="14.4" fill="#009af9" fill-rule="evenodd" fill-opacity="1" stroke="#000000" stroke-opacity="1" stroke-width="4"/>
<circle clip-path="url(#clip701)" cx="2341.38" cy="316.478" r="14.4" fill="#009af9" fill-rule="evenodd" fill-opacity="1" stroke="#000000" stroke-opacity="1" stroke-width="4"/>
<circle clip-path="url(#clip701)" cx="2681.36" cy="113.514" r="14.4" fill="#009af9" fill-rule="evenodd" fill-opacity="1" stroke="#000000" stroke-opacity="1" stroke-width="4"/>
<polyline clip-path="url(#clip701)" style="stroke:#e26f46; stroke-linecap:round; stroke-linejoin:round; stroke-width:4; stroke-opacity:1; fill:none" points="301.481,1747.95 641.464,1536.47 981.446,1286.33 1321.43,984.972 1661.41,776.948 2001.39,524.833 2341.38,316.94 2681.36,113.754 "/>
<circle clip-path="url(#clip701)" cx="301.481" cy="1747.95" r="14.4" fill="#e26f46" fill-rule="evenodd" fill-opacity="1" stroke="#000000" stroke-opacity="1" stroke-width="4"/>
<circle clip-path="url(#clip701)" cx="641.464" cy="1536.47" r="14.4" fill="#e26f46" fill-rule="evenodd" fill-opacity="1" stroke="#000000" stroke-opacity="1" stroke-width="4"/>
<circle clip-path="url(#clip701)" cx="981.446" cy="1286.33" r="14.4" fill="#e26f46" fill-rule="evenodd" fill-opacity="1" stroke="#000000" stroke-opacity="1" stroke-width="4"/>
<circle clip-path="url(#clip701)" cx="1321.43" cy="984.972" r="14.4" fill="#e26f46" fill-rule="evenodd" fill-opacity="1" stroke="#000000" stroke-opacity="1" stroke-width="4"/>
<circle clip-path="url(#clip701)" cx="1661.41" cy="776.948" r="14.4" fill="#e26f46" fill-rule="evenodd" fill-opacity="1" stroke="#000000" stroke-opacity="1" stroke-width="4"/>
<circle clip-path="url(#clip701)" cx="2001.39" cy="524.833" r="14.4" fill="#e26f46" fill-rule="evenodd" fill-opacity="1" stroke="#000000" stroke-opacity="1" stroke-width="4"/>
<circle clip-path="url(#clip701)" cx="2341.38" cy="316.94" r="14.4" fill="#e26f46" fill-rule="evenodd" fill-opacity="1" stroke="#000000" stroke-opacity="1" stroke-width="4"/>
<circle clip-path="url(#clip701)" cx="2681.36" cy="113.754" r="14.4" fill="#e26f46" fill-rule="evenodd" fill-opacity="1" stroke="#000000" stroke-opacity="1" stroke-width="4"/>
<polyline clip-path="url(#clip701)" style="stroke:#3da44d; stroke-linecap:round; stroke-linejoin:round; stroke-width:4; stroke-opacity:1; fill:none" points="301.481,1214.01 641.464,1211.25 981.446,1207.21 1321.43,1147.71 1661.41,945.745 2001.39,666.877 2341.38,457.729 2681.36,255.353 "/>
<circle clip-path="url(#clip701)" cx="301.481" cy="1214.01" r="14.4" fill="#3da44d" fill-rule="evenodd" fill-opacity="1" stroke="#000000" stroke-opacity="1" stroke-width="4"/>
<circle clip-path="url(#clip701)" cx="641.464" cy="1211.25" r="14.4" fill="#3da44d" fill-rule="evenodd" fill-opacity="1" stroke="#000000" stroke-opacity="1" stroke-width="4"/>
<circle clip-path="url(#clip701)" cx="981.446" cy="1207.21" r="14.4" fill="#3da44d" fill-rule="evenodd" fill-opacity="1" stroke="#000000" stroke-opacity="1" stroke-width="4"/>
<circle clip-path="url(#clip701)" cx="1321.43" cy="1147.71" r="14.4" fill="#3da44d" fill-rule="evenodd" fill-opacity="1" stroke="#000000" stroke-opacity="1" stroke-width="4"/>
<circle clip-path="url(#clip701)" cx="1661.41" cy="945.745" r="14.4" fill="#3da44d" fill-rule="evenodd" fill-opacity="1" stroke="#000000" stroke-opacity="1" stroke-width="4"/>
<circle clip-path="url(#clip701)" cx="2001.39" cy="666.877" r="14.4" fill="#3da44d" fill-rule="evenodd" fill-opacity="1" stroke="#000000" stroke-opacity="1" stroke-width="4"/>
<circle clip-path="url(#clip701)" cx="2341.38" cy="457.729" r="14.4" fill="#3da44d" fill-rule="evenodd" fill-opacity="1" stroke="#000000" stroke-opacity="1" stroke-width="4"/>
<circle clip-path="url(#clip701)" cx="2681.36" cy="255.353" r="14.4" fill="#3da44d" fill-rule="evenodd" fill-opacity="1" stroke="#000000" stroke-opacity="1" stroke-width="4"/>
<polyline clip-path="url(#clip701)" style="stroke:#c271d2; stroke-linecap:round; stroke-linejoin:round; stroke-width:4; stroke-opacity:1; fill:none" points="301.481,1654.06 641.464,1452.87 981.446,1250.43 1321.43,985.708 1661.41,775.183 2001.39,503.77 2341.38,300.556 2681.36,96.8548 "/>
<circle clip-path="url(#clip701)" cx="301.481" cy="1654.06" r="14.4" fill="#c271d2" fill-rule="evenodd" fill-opacity="1" stroke="#000000" stroke-opacity="1" stroke-width="4"/>
<circle clip-path="url(#clip701)" cx="641.464" cy="1452.87" r="14.4" fill="#c271d2" fill-rule="evenodd" fill-opacity="1" stroke="#000000" stroke-opacity="1" stroke-width="4"/>
<circle clip-path="url(#clip701)" cx="981.446" cy="1250.43" r="14.4" fill="#c271d2" fill-rule="evenodd" fill-opacity="1" stroke="#000000" stroke-opacity="1" stroke-width="4"/>
<circle clip-path="url(#clip701)" cx="1321.43" cy="985.708" r="14.4" fill="#c271d2" fill-rule="evenodd" fill-opacity="1" stroke="#000000" stroke-opacity="1" stroke-width="4"/>
<circle clip-path="url(#clip701)" cx="1661.41" cy="775.183" r="14.4" fill="#c271d2" fill-rule="evenodd" fill-opacity="1" stroke="#000000" stroke-opacity="1" stroke-width="4"/>
<circle clip-path="url(#clip701)" cx="2001.39" cy="503.77" r="14.4" fill="#c271d2" fill-rule="evenodd" fill-opacity="1" stroke="#000000" stroke-opacity="1" stroke-width="4"/>
<circle clip-path="url(#clip701)" cx="2341.38" cy="300.556" r="14.4" fill="#c271d2" fill-rule="evenodd" fill-opacity="1" stroke="#000000" stroke-opacity="1" stroke-width="4"/>
<circle clip-path="url(#clip701)" cx="2681.36" cy="96.8548" r="14.4" fill="#c271d2" fill-rule="evenodd" fill-opacity="1" stroke="#000000" stroke-opacity="1" stroke-width="4"/>
<polyline clip-path="url(#clip701)" style="stroke:#ac8d18; stroke-linecap:round; stroke-linejoin:round; stroke-width:4; stroke-opacity:1; fill:none" points="301.481,1160.29 641.464,1116.25 981.446,1109.18 1321.43,1061.44 1661.41,941.931 2001.39,666.816 2341.38,457.915 2681.36,255.287 "/>
<circle clip-path="url(#clip701)" cx="301.481" cy="1160.29" r="14.4" fill="#ac8d18" fill-rule="evenodd" fill-opacity="1" stroke="#000000" stroke-opacity="1" stroke-width="4"/>
<circle clip-path="url(#clip701)" cx="641.464" cy="1116.25" r="14.4" fill="#ac8d18" fill-rule="evenodd" fill-opacity="1" stroke="#000000" stroke-opacity="1" stroke-width="4"/>
<circle clip-path="url(#clip701)" cx="981.446" cy="1109.18" r="14.4" fill="#ac8d18" fill-rule="evenodd" fill-opacity="1" stroke="#000000" stroke-opacity="1" stroke-width="4"/>
<circle clip-path="url(#clip701)" cx="1321.43" cy="1061.44" r="14.4" fill="#ac8d18" fill-rule="evenodd" fill-opacity="1" stroke="#000000" stroke-opacity="1" stroke-width="4"/>
<circle clip-path="url(#clip701)" cx="1661.41" cy="941.931" r="14.4" fill="#ac8d18" fill-rule="evenodd" fill-opacity="1" stroke="#000000" stroke-opacity="1" stroke-width="4"/>
<circle clip-path="url(#clip701)" cx="2001.39" cy="666.816" r="14.4" fill="#ac8d18" fill-rule="evenodd" fill-opacity="1" stroke="#000000" stroke-opacity="1" stroke-width="4"/>
<circle clip-path="url(#clip701)" cx="2341.38" cy="457.915" r="14.4" fill="#ac8d18" fill-rule="evenodd" fill-opacity="1" stroke="#000000" stroke-opacity="1" stroke-width="4"/>
<circle clip-path="url(#clip701)" cx="2681.36" cy="255.287" r="14.4" fill="#ac8d18" fill-rule="evenodd" fill-opacity="1" stroke="#000000" stroke-opacity="1" stroke-width="4"/>
<polyline clip-path="url(#clip701)" style="stroke:#00a9ad; stroke-linecap:round; stroke-linejoin:round; stroke-width:4; stroke-opacity:1; fill:none" points="301.481,1745.11 641.464,1536.06 981.446,1286.25 1321.43,984.972 1661.41,776.141 2001.39,524.961 2341.38,314.453 2681.36,111.23 "/>
<circle clip-path="url(#clip701)" cx="301.481" cy="1745.11" r="14.4" fill="#00a9ad" fill-rule="evenodd" fill-opacity="1" stroke="#000000" stroke-opacity="1" stroke-width="4"/>
<circle clip-path="url(#clip701)" cx="641.464" cy="1536.06" r="14.4" fill="#00a9ad" fill-rule="evenodd" fill-opacity="1" stroke="#000000" stroke-opacity="1" stroke-width="4"/>
<circle clip-path="url(#clip701)" cx="981.446" cy="1286.25" r="14.4" fill="#00a9ad" fill-rule="evenodd" fill-opacity="1" stroke="#000000" stroke-opacity="1" stroke-width="4"/>
<circle clip-path="url(#clip701)" cx="1321.43" cy="984.972" r="14.4" fill="#00a9ad" fill-rule="evenodd" fill-opacity="1" stroke="#000000" stroke-opacity="1" stroke-width="4"/>
<circle clip-path="url(#clip701)" cx="1661.41" cy="776.141" r="14.4" fill="#00a9ad" fill-rule="evenodd" fill-opacity="1" stroke="#000000" stroke-opacity="1" stroke-width="4"/>
<circle clip-path="url(#clip701)" cx="2001.39" cy="524.961" r="14.4" fill="#00a9ad" fill-rule="evenodd" fill-opacity="1" stroke="#000000" stroke-opacity="1" stroke-width="4"/>
<circle clip-path="url(#clip701)" cx="2341.38" cy="314.453" r="14.4" fill="#00a9ad" fill-rule="evenodd" fill-opacity="1" stroke="#000000" stroke-opacity="1" stroke-width="4"/>
<circle clip-path="url(#clip701)" cx="2681.36" cy="111.23" r="14.4" fill="#00a9ad" fill-rule="evenodd" fill-opacity="1" stroke="#000000" stroke-opacity="1" stroke-width="4"/>
<path clip-path="url(#clip700)" d="M314.174 468.555 L863.036 468.555 L863.036 105.675 L314.174 105.675  Z" fill="#ffffff" fill-rule="evenodd" fill-opacity="1"/>
<polyline clip-path="url(#clip700)" style="stroke:#000000; stroke-linecap:round; stroke-linejoin:round; stroke-width:4; stroke-opacity:1; fill:none" points="314.174,468.555 863.036,468.555 863.036,105.675 314.174,105.675 314.174,468.555 "/>
<polyline clip-path="url(#clip700)" style="stroke:#009af9; stroke-linecap:round; stroke-linejoin:round; stroke-width:4; stroke-opacity:1; fill:none" points="342.203,157.515 510.381,157.515 "/>
<circle clip-path="url(#clip700)" cx="426.292" cy="157.515" r="20.48" fill="#009af9" fill-rule="evenodd" fill-opacity="1" stroke="#000000" stroke-opacity="1" stroke-width="5.68889"/>
<path clip-path="url(#clip700)" d="M557.323 152.804 L557.323 138.776 L561.582 138.776 L561.582 174.795 L557.323 174.795 L557.323 170.906 Q555.98 173.22 553.92 174.355 Q551.883 175.466 549.013 175.466 Q544.314 175.466 541.351 171.716 Q538.411 167.966 538.411 161.855 Q538.411 155.744 541.351 151.994 Q544.314 148.244 549.013 148.244 Q551.883 148.244 553.92 149.378 Q555.98 150.489 557.323 152.804 M542.809 161.855 Q542.809 166.554 544.731 169.239 Q546.675 171.901 550.055 171.901 Q553.434 171.901 555.379 169.239 Q557.323 166.554 557.323 161.855 Q557.323 157.156 555.379 154.494 Q553.434 151.809 550.055 151.809 Q546.675 151.809 544.731 154.494 Q542.809 157.156 542.809 161.855 Z" fill="#000000" fill-rule="nonzero" fill-opacity="1" /><path clip-path="url(#clip700)" d="M580.402 151.855 Q576.976 151.855 574.985 154.54 Q572.994 157.202 572.994 161.855 Q572.994 166.508 574.962 169.193 Q576.953 171.855 580.402 171.855 Q583.804 171.855 585.795 169.17 Q587.786 166.484 587.786 161.855 Q587.786 157.248 585.795 154.563 Q583.804 151.855 580.402 151.855 M580.402 148.244 Q585.957 148.244 589.128 151.855 Q592.3 155.466 592.3 161.855 Q592.3 168.22 589.128 171.855 Q585.957 175.466 580.402 175.466 Q574.823 175.466 571.652 171.855 Q568.504 168.22 568.504 161.855 Q568.504 155.466 571.652 151.855 Q574.823 148.244 580.402 148.244 Z" fill="#000000" fill-rule="nonzero" fill-opacity="1" /><path clip-path="url(#clip700)" d="M603.573 141.508 L603.573 148.869 L612.346 148.869 L612.346 152.179 L603.573 152.179 L603.573 166.253 Q603.573 169.424 604.429 170.327 Q605.309 171.23 607.971 171.23 L612.346 171.23 L612.346 174.795 L607.971 174.795 Q603.04 174.795 601.165 172.966 Q599.29 171.114 599.29 166.253 L599.29 152.179 L596.165 152.179 L596.165 148.869 L599.29 148.869 L599.29 141.508 L603.573 141.508 Z" fill="#000000" fill-rule="nonzero" fill-opacity="1" /><path clip-path="url(#clip700)" d="M637.647 182.665 L637.647 185.975 L613.017 185.975 L613.017 182.665 L637.647 182.665 Z" fill="#000000" fill-rule="nonzero" fill-opacity="1" /><path clip-path="url(#clip700)" d="M663.827 160.767 L663.827 162.85 L644.244 162.85 Q644.522 167.248 646.883 169.563 Q649.267 171.855 653.503 171.855 Q655.957 171.855 658.248 171.253 Q660.563 170.651 662.832 169.447 L662.832 173.475 Q660.54 174.447 658.133 174.957 Q655.725 175.466 653.248 175.466 Q647.045 175.466 643.411 171.855 Q639.799 168.244 639.799 162.086 Q639.799 155.721 643.225 151.994 Q646.674 148.244 652.508 148.244 Q657.739 148.244 660.772 151.623 Q663.827 154.98 663.827 160.767 M659.568 159.517 Q659.522 156.021 657.6 153.938 Q655.702 151.855 652.554 151.855 Q648.989 151.855 646.836 153.869 Q644.707 155.883 644.383 159.54 L659.568 159.517 Z" fill="#000000" fill-rule="nonzero" fill-opacity="1" /><path clip-path="url(#clip700)" d="M670.818 148.869 L675.077 148.869 L675.077 174.795 L670.818 174.795 L670.818 148.869 M670.818 138.776 L675.077 138.776 L675.077 144.17 L670.818 144.17 L670.818 138.776 Z" fill="#000000" fill-rule="nonzero" fill-opacity="1" /><path clip-path="url(#clip700)" d="M701.049 161.531 Q701.049 156.901 699.128 154.355 Q697.23 151.809 693.781 151.809 Q690.355 151.809 688.433 154.355 Q686.535 156.901 686.535 161.531 Q686.535 166.137 688.433 168.683 Q690.355 171.23 693.781 171.23 Q697.23 171.23 699.128 168.683 Q701.049 166.137 701.049 161.531 M705.308 171.577 Q705.308 178.197 702.369 181.415 Q699.429 184.656 693.364 184.656 Q691.119 184.656 689.128 184.308 Q687.137 183.984 685.262 183.29 L685.262 179.146 Q687.137 180.165 688.966 180.651 Q690.795 181.137 692.693 181.137 Q696.882 181.137 698.966 178.938 Q701.049 176.762 701.049 172.341 L701.049 170.234 Q699.73 172.526 697.67 173.66 Q695.609 174.795 692.739 174.795 Q687.97 174.795 685.054 171.16 Q682.137 167.526 682.137 161.531 Q682.137 155.512 685.054 151.878 Q687.97 148.244 692.739 148.244 Q695.609 148.244 697.67 149.378 Q699.73 150.512 701.049 152.804 L701.049 148.869 L705.308 148.869 L705.308 171.577 Z" fill="#000000" fill-rule="nonzero" fill-opacity="1" /><path clip-path="url(#clip700)" d="M736.257 160.767 L736.257 162.85 L716.674 162.85 Q716.952 167.248 719.313 169.563 Q721.697 171.855 725.933 171.855 Q728.387 171.855 730.679 171.253 Q732.993 170.651 735.262 169.447 L735.262 173.475 Q732.97 174.447 730.563 174.957 Q728.155 175.466 725.679 175.466 Q719.475 175.466 715.841 171.855 Q712.23 168.244 712.23 162.086 Q712.23 155.721 715.656 151.994 Q719.105 148.244 724.938 148.244 Q730.169 148.244 733.202 151.623 Q736.257 154.98 736.257 160.767 M731.998 159.517 Q731.952 156.021 730.03 153.938 Q728.132 151.855 724.984 151.855 Q721.419 151.855 719.267 153.869 Q717.137 155.883 716.813 159.54 L731.998 159.517 Z" fill="#000000" fill-rule="nonzero" fill-opacity="1" /><path clip-path="url(#clip700)" d="M764.799 159.146 L764.799 174.795 L760.54 174.795 L760.54 159.285 Q760.54 155.605 759.104 153.776 Q757.669 151.947 754.799 151.947 Q751.35 151.947 749.359 154.146 Q747.368 156.346 747.368 160.142 L747.368 174.795 L743.086 174.795 L743.086 148.869 L747.368 148.869 L747.368 152.896 Q748.896 150.559 750.956 149.401 Q753.04 148.244 755.748 148.244 Q760.215 148.244 762.507 151.021 Q764.799 153.776 764.799 159.146 Z" fill="#000000" fill-rule="nonzero" fill-opacity="1" /><polyline clip-path="url(#clip700)" style="stroke:#e26f46; stroke-linecap:round; stroke-linejoin:round; stroke-width:4; stroke-opacity:1; fill:none" points="342.203,209.355 510.381,209.355 "/>
<circle clip-path="url(#clip700)" cx="426.292" cy="209.355" r="20.48" fill="#e26f46" fill-rule="evenodd" fill-opacity="1" stroke="#000000" stroke-opacity="1" stroke-width="5.68889"/>
<path clip-path="url(#clip700)" d="M557.323 204.644 L557.323 190.616 L561.582 190.616 L561.582 226.635 L557.323 226.635 L557.323 222.746 Q555.98 225.06 553.92 226.195 Q551.883 227.306 549.013 227.306 Q544.314 227.306 541.351 223.556 Q538.411 219.806 538.411 213.695 Q538.411 207.584 541.351 203.834 Q544.314 200.084 549.013 200.084 Q551.883 200.084 553.92 201.218 Q555.98 202.329 557.323 204.644 M542.809 213.695 Q542.809 218.394 544.731 221.079 Q546.675 223.741 550.055 223.741 Q553.434 223.741 555.379 221.079 Q557.323 218.394 557.323 213.695 Q557.323 208.996 555.379 206.334 Q553.434 203.649 550.055 203.649 Q546.675 203.649 544.731 206.334 Q542.809 208.996 542.809 213.695 Z" fill="#000000" fill-rule="nonzero" fill-opacity="1" /><path clip-path="url(#clip700)" d="M580.402 203.695 Q576.976 203.695 574.985 206.38 Q572.994 209.042 572.994 213.695 Q572.994 218.348 574.962 221.033 Q576.953 223.695 580.402 223.695 Q583.804 223.695 585.795 221.01 Q587.786 218.324 587.786 213.695 Q587.786 209.088 585.795 206.403 Q583.804 203.695 580.402 203.695 M580.402 200.084 Q585.957 200.084 589.128 203.695 Q592.3 207.306 592.3 213.695 Q592.3 220.06 589.128 223.695 Q585.957 227.306 580.402 227.306 Q574.823 227.306 571.652 223.695 Q568.504 220.06 568.504 213.695 Q568.504 207.306 571.652 203.695 Q574.823 200.084 580.402 200.084 Z" fill="#000000" fill-rule="nonzero" fill-opacity="1" /><path clip-path="url(#clip700)" d="M603.573 193.348 L603.573 200.709 L612.346 200.709 L612.346 204.019 L603.573 204.019 L603.573 218.093 Q603.573 221.264 604.429 222.167 Q605.309 223.07 607.971 223.07 L612.346 223.07 L612.346 226.635 L607.971 226.635 Q603.04 226.635 601.165 224.806 Q599.29 222.954 599.29 218.093 L599.29 204.019 L596.165 204.019 L596.165 200.709 L599.29 200.709 L599.29 193.348 L603.573 193.348 Z" fill="#000000" fill-rule="nonzero" fill-opacity="1" /><path clip-path="url(#clip700)" d="M637.647 234.505 L637.647 237.815 L613.017 237.815 L613.017 234.505 L637.647 234.505 Z" fill="#000000" fill-rule="nonzero" fill-opacity="1" /><path clip-path="url(#clip700)" d="M663.202 210.986 L663.202 226.635 L658.943 226.635 L658.943 211.125 Q658.943 207.445 657.508 205.616 Q656.073 203.787 653.202 203.787 Q649.753 203.787 647.762 205.986 Q645.772 208.186 645.772 211.982 L645.772 226.635 L641.489 226.635 L641.489 190.616 L645.772 190.616 L645.772 204.736 Q647.299 202.399 649.36 201.241 Q651.443 200.084 654.151 200.084 Q658.619 200.084 660.91 202.861 Q663.202 205.616 663.202 210.986 Z" fill="#000000" fill-rule="nonzero" fill-opacity="1" /><path clip-path="url(#clip700)" d="M671.697 200.709 L675.957 200.709 L675.957 226.635 L671.697 226.635 L671.697 200.709 M671.697 190.616 L675.957 190.616 L675.957 196.01 L671.697 196.01 L671.697 190.616 Z" fill="#000000" fill-rule="nonzero" fill-opacity="1" /><path clip-path="url(#clip700)" d="M701.929 213.371 Q701.929 208.741 700.007 206.195 Q698.109 203.649 694.66 203.649 Q691.234 203.649 689.313 206.195 Q687.415 208.741 687.415 213.371 Q687.415 217.977 689.313 220.523 Q691.234 223.07 694.66 223.07 Q698.109 223.07 700.007 220.523 Q701.929 217.977 701.929 213.371 M706.188 223.417 Q706.188 230.037 703.248 233.255 Q700.308 236.496 694.244 236.496 Q691.998 236.496 690.008 236.148 Q688.017 235.824 686.142 235.13 L686.142 230.986 Q688.017 232.005 689.845 232.491 Q691.674 232.977 693.572 232.977 Q697.762 232.977 699.845 230.778 Q701.929 228.602 701.929 224.181 L701.929 222.074 Q700.609 224.366 698.549 225.5 Q696.489 226.635 693.619 226.635 Q688.85 226.635 685.933 223 Q683.017 219.366 683.017 213.371 Q683.017 207.352 685.933 203.718 Q688.85 200.084 693.619 200.084 Q696.489 200.084 698.549 201.218 Q700.609 202.352 701.929 204.644 L701.929 200.709 L706.188 200.709 L706.188 223.417 Z" fill="#000000" fill-rule="nonzero" fill-opacity="1" /><path clip-path="url(#clip700)" d="M736.512 210.986 L736.512 226.635 L732.253 226.635 L732.253 211.125 Q732.253 207.445 730.817 205.616 Q729.382 203.787 726.512 203.787 Q723.063 203.787 721.072 205.986 Q719.081 208.186 719.081 211.982 L719.081 226.635 L714.799 226.635 L714.799 190.616 L719.081 190.616 L719.081 204.736 Q720.609 202.399 722.669 201.241 Q724.753 200.084 727.461 200.084 Q731.929 200.084 734.22 202.861 Q736.512 205.616 736.512 210.986 Z" fill="#000000" fill-rule="nonzero" fill-opacity="1" /><path clip-path="url(#clip700)" d="M742.53 200.709 L746.79 200.709 L752.114 220.94 L757.415 200.709 L762.438 200.709 L767.762 220.94 L773.063 200.709 L777.322 200.709 L770.539 226.635 L765.516 226.635 L759.938 205.385 L754.336 226.635 L749.313 226.635 L742.53 200.709 Z" fill="#000000" fill-rule="nonzero" fill-opacity="1" /><path clip-path="url(#clip700)" d="M795.563 213.602 Q790.4 213.602 788.41 214.783 Q786.419 215.963 786.419 218.81 Q786.419 221.079 787.901 222.422 Q789.405 223.741 791.975 223.741 Q795.516 223.741 797.646 221.241 Q799.799 218.718 799.799 214.551 L799.799 213.602 L795.563 213.602 M804.058 211.843 L804.058 226.635 L799.799 226.635 L799.799 222.699 Q798.34 225.06 796.164 226.195 Q793.988 227.306 790.84 227.306 Q786.859 227.306 784.498 225.084 Q782.16 222.838 782.16 219.088 Q782.16 214.713 785.076 212.491 Q788.016 210.269 793.826 210.269 L799.799 210.269 L799.799 209.852 Q799.799 206.912 797.854 205.315 Q795.933 203.695 792.438 203.695 Q790.215 203.695 788.109 204.227 Q786.002 204.76 784.058 205.824 L784.058 201.889 Q786.396 200.986 788.595 200.547 Q790.794 200.084 792.877 200.084 Q798.502 200.084 801.28 203 Q804.058 205.917 804.058 211.843 Z" fill="#000000" fill-rule="nonzero" fill-opacity="1" /><path clip-path="url(#clip700)" d="M823.618 229.042 Q821.812 233.672 820.099 235.084 Q818.386 236.496 815.516 236.496 L812.113 236.496 L812.113 232.931 L814.613 232.931 Q816.373 232.931 817.345 232.097 Q818.317 231.264 819.498 228.162 L820.261 226.218 L809.775 200.709 L814.289 200.709 L822.391 220.986 L830.493 200.709 L835.007 200.709 L823.618 229.042 Z" fill="#000000" fill-rule="nonzero" fill-opacity="1" /><polyline clip-path="url(#clip700)" style="stroke:#3da44d; stroke-linecap:round; stroke-linejoin:round; stroke-width:4; stroke-opacity:1; fill:none" points="342.203,261.195 510.381,261.195 "/>
<circle clip-path="url(#clip700)" cx="426.292" cy="261.195" r="20.48" fill="#3da44d" fill-rule="evenodd" fill-opacity="1" stroke="#000000" stroke-opacity="1" stroke-width="5.68889"/>
<path clip-path="url(#clip700)" d="M557.323 256.484 L557.323 242.456 L561.582 242.456 L561.582 278.475 L557.323 278.475 L557.323 274.586 Q555.98 276.9 553.92 278.035 Q551.883 279.146 549.013 279.146 Q544.314 279.146 541.351 275.396 Q538.411 271.646 538.411 265.535 Q538.411 259.424 541.351 255.674 Q544.314 251.924 549.013 251.924 Q551.883 251.924 553.92 253.058 Q555.98 254.169 557.323 256.484 M542.809 265.535 Q542.809 270.234 544.731 272.919 Q546.675 275.581 550.055 275.581 Q553.434 275.581 555.379 272.919 Q557.323 270.234 557.323 265.535 Q557.323 260.836 555.379 258.174 Q553.434 255.489 550.055 255.489 Q546.675 255.489 544.731 258.174 Q542.809 260.836 542.809 265.535 Z" fill="#000000" fill-rule="nonzero" fill-opacity="1" /><path clip-path="url(#clip700)" d="M580.402 255.535 Q576.976 255.535 574.985 258.22 Q572.994 260.882 572.994 265.535 Q572.994 270.188 574.962 272.873 Q576.953 275.535 580.402 275.535 Q583.804 275.535 585.795 272.85 Q587.786 270.164 587.786 265.535 Q587.786 260.928 585.795 258.243 Q583.804 255.535 580.402 255.535 M580.402 251.924 Q585.957 251.924 589.128 255.535 Q592.3 259.146 592.3 265.535 Q592.3 271.9 589.128 275.535 Q585.957 279.146 580.402 279.146 Q574.823 279.146 571.652 275.535 Q568.504 271.9 568.504 265.535 Q568.504 259.146 571.652 255.535 Q574.823 251.924 580.402 251.924 Z" fill="#000000" fill-rule="nonzero" fill-opacity="1" /><path clip-path="url(#clip700)" d="M603.573 245.188 L603.573 252.549 L612.346 252.549 L612.346 255.859 L603.573 255.859 L603.573 269.933 Q603.573 273.104 604.429 274.007 Q605.309 274.91 607.971 274.91 L612.346 274.91 L612.346 278.475 L607.971 278.475 Q603.04 278.475 601.165 276.646 Q599.29 274.794 599.29 269.933 L599.29 255.859 L596.165 255.859 L596.165 252.549 L599.29 252.549 L599.29 245.188 L603.573 245.188 Z" fill="#000000" fill-rule="nonzero" fill-opacity="1" /><path clip-path="url(#clip700)" d="M637.647 286.345 L637.647 289.655 L613.017 289.655 L613.017 286.345 L637.647 286.345 Z" fill="#000000" fill-rule="nonzero" fill-opacity="1" /><path clip-path="url(#clip700)" d="M651.698 255.535 Q648.272 255.535 646.281 258.22 Q644.29 260.882 644.29 265.535 Q644.29 270.188 646.258 272.873 Q648.248 275.535 651.698 275.535 Q655.1 275.535 657.091 272.85 Q659.082 270.164 659.082 265.535 Q659.082 260.928 657.091 258.243 Q655.1 255.535 651.698 255.535 M651.698 251.924 Q657.253 251.924 660.424 255.535 Q663.596 259.146 663.596 265.535 Q663.596 271.9 660.424 275.535 Q657.253 279.146 651.698 279.146 Q646.119 279.146 642.948 275.535 Q639.799 271.9 639.799 265.535 Q639.799 259.146 642.948 255.535 Q646.119 251.924 651.698 251.924 Z" fill="#000000" fill-rule="nonzero" fill-opacity="1" /><path clip-path="url(#clip700)" d="M690.841 257.526 Q692.438 254.655 694.66 253.289 Q696.882 251.924 699.892 251.924 Q703.943 251.924 706.142 254.771 Q708.341 257.595 708.341 262.826 L708.341 278.475 L704.058 278.475 L704.058 262.965 Q704.058 259.238 702.739 257.433 Q701.419 255.627 698.711 255.627 Q695.401 255.627 693.48 257.826 Q691.558 260.026 691.558 263.822 L691.558 278.475 L687.276 278.475 L687.276 262.965 Q687.276 259.215 685.957 257.433 Q684.637 255.627 681.883 255.627 Q678.619 255.627 676.697 257.85 Q674.776 260.049 674.776 263.822 L674.776 278.475 L670.494 278.475 L670.494 252.549 L674.776 252.549 L674.776 256.576 Q676.234 254.192 678.271 253.058 Q680.308 251.924 683.109 251.924 Q685.933 251.924 687.901 253.359 Q689.892 254.794 690.841 257.526 Z" fill="#000000" fill-rule="nonzero" fill-opacity="1" /><path clip-path="url(#clip700)" d="M720.956 274.586 L720.956 288.336 L716.674 288.336 L716.674 252.549 L720.956 252.549 L720.956 256.484 Q722.299 254.169 724.336 253.058 Q726.396 251.924 729.243 251.924 Q733.966 251.924 736.905 255.674 Q739.868 259.424 739.868 265.535 Q739.868 271.646 736.905 275.396 Q733.966 279.146 729.243 279.146 Q726.396 279.146 724.336 278.035 Q722.299 276.9 720.956 274.586 M735.447 265.535 Q735.447 260.836 733.503 258.174 Q731.581 255.489 728.202 255.489 Q724.822 255.489 722.878 258.174 Q720.956 260.836 720.956 265.535 Q720.956 270.234 722.878 272.919 Q724.822 275.581 728.202 275.581 Q731.581 275.581 733.503 272.919 Q735.447 270.234 735.447 265.535 Z" fill="#000000" fill-rule="nonzero" fill-opacity="1" /><polyline clip-path="url(#clip700)" style="stroke:#c271d2; stroke-linecap:round; stroke-linejoin:round; stroke-width:4; stroke-opacity:1; fill:none" points="342.203,313.035 510.381,313.035 "/>
<circle clip-path="url(#clip700)" cx="426.292" cy="313.035" r="20.48" fill="#c271d2" fill-rule="evenodd" fill-opacity="1" stroke="#000000" stroke-opacity="1" stroke-width="5.68889"/>
<path clip-path="url(#clip700)" d="M557.323 308.324 L557.323 294.296 L561.582 294.296 L561.582 330.315 L557.323 330.315 L557.323 326.426 Q555.98 328.74 553.92 329.875 Q551.883 330.986 549.013 330.986 Q544.314 330.986 541.351 327.236 Q538.411 323.486 538.411 317.375 Q538.411 311.264 541.351 307.514 Q544.314 303.764 549.013 303.764 Q551.883 303.764 553.92 304.898 Q555.98 306.009 557.323 308.324 M542.809 317.375 Q542.809 322.074 544.731 324.759 Q546.675 327.421 550.055 327.421 Q553.434 327.421 555.379 324.759 Q557.323 322.074 557.323 317.375 Q557.323 312.676 555.379 310.014 Q553.434 307.329 550.055 307.329 Q546.675 307.329 544.731 310.014 Q542.809 312.676 542.809 317.375 Z" fill="#000000" fill-rule="nonzero" fill-opacity="1" /><path clip-path="url(#clip700)" d="M580.402 307.375 Q576.976 307.375 574.985 310.06 Q572.994 312.722 572.994 317.375 Q572.994 322.028 574.962 324.713 Q576.953 327.375 580.402 327.375 Q583.804 327.375 585.795 324.69 Q587.786 322.004 587.786 317.375 Q587.786 312.768 585.795 310.083 Q583.804 307.375 580.402 307.375 M580.402 303.764 Q585.957 303.764 589.128 307.375 Q592.3 310.986 592.3 317.375 Q592.3 323.74 589.128 327.375 Q585.957 330.986 580.402 330.986 Q574.823 330.986 571.652 327.375 Q568.504 323.74 568.504 317.375 Q568.504 310.986 571.652 307.375 Q574.823 303.764 580.402 303.764 Z" fill="#000000" fill-rule="nonzero" fill-opacity="1" /><path clip-path="url(#clip700)" d="M603.573 297.028 L603.573 304.389 L612.346 304.389 L612.346 307.699 L603.573 307.699 L603.573 321.773 Q603.573 324.944 604.429 325.847 Q605.309 326.75 607.971 326.75 L612.346 326.75 L612.346 330.315 L607.971 330.315 Q603.04 330.315 601.165 328.486 Q599.29 326.634 599.29 321.773 L599.29 307.699 L596.165 307.699 L596.165 304.389 L599.29 304.389 L599.29 297.028 L603.573 297.028 Z" fill="#000000" fill-rule="nonzero" fill-opacity="1" /><path clip-path="url(#clip700)" d="M637.647 338.185 L637.647 341.495 L613.017 341.495 L613.017 338.185 L637.647 338.185 Z" fill="#000000" fill-rule="nonzero" fill-opacity="1" /><path clip-path="url(#clip700)" d="M658.179 305.153 L658.179 309.18 Q656.373 308.254 654.429 307.791 Q652.485 307.329 650.401 307.329 Q647.23 307.329 645.633 308.301 Q644.059 309.273 644.059 311.217 Q644.059 312.699 645.193 313.555 Q646.327 314.389 649.753 315.153 L651.211 315.477 Q655.748 316.449 657.647 318.231 Q659.568 319.99 659.568 323.162 Q659.568 326.773 656.698 328.879 Q653.85 330.986 648.85 330.986 Q646.767 330.986 644.498 330.569 Q642.253 330.176 639.753 329.365 L639.753 324.967 Q642.114 326.194 644.406 326.819 Q646.698 327.421 648.943 327.421 Q651.952 327.421 653.573 326.402 Q655.193 325.361 655.193 323.486 Q655.193 321.75 654.012 320.824 Q652.855 319.898 648.897 319.041 L647.415 318.694 Q643.457 317.861 641.698 316.148 Q639.938 314.412 639.938 311.403 Q639.938 307.745 642.531 305.754 Q645.123 303.764 649.892 303.764 Q652.253 303.764 654.336 304.111 Q656.42 304.458 658.179 305.153 Z" fill="#000000" fill-rule="nonzero" fill-opacity="1" /><path clip-path="url(#clip700)" d="M670.563 297.028 L670.563 304.389 L679.336 304.389 L679.336 307.699 L670.563 307.699 L670.563 321.773 Q670.563 324.944 671.42 325.847 Q672.299 326.75 674.961 326.75 L679.336 326.75 L679.336 330.315 L674.961 330.315 Q670.031 330.315 668.156 328.486 Q666.281 326.634 666.281 321.773 L666.281 307.699 L663.156 307.699 L663.156 304.389 L666.281 304.389 L666.281 297.028 L670.563 297.028 Z" fill="#000000" fill-rule="nonzero" fill-opacity="1" /><path clip-path="url(#clip700)" d="M701.998 308.324 L701.998 294.296 L706.257 294.296 L706.257 330.315 L701.998 330.315 L701.998 326.426 Q700.656 328.74 698.595 329.875 Q696.558 330.986 693.688 330.986 Q688.989 330.986 686.026 327.236 Q683.086 323.486 683.086 317.375 Q683.086 311.264 686.026 307.514 Q688.989 303.764 693.688 303.764 Q696.558 303.764 698.595 304.898 Q700.656 306.009 701.998 308.324 M687.484 317.375 Q687.484 322.074 689.406 324.759 Q691.35 327.421 694.73 327.421 Q698.109 327.421 700.054 324.759 Q701.998 322.074 701.998 317.375 Q701.998 312.676 700.054 310.014 Q698.109 307.329 694.73 307.329 Q691.35 307.329 689.406 310.014 Q687.484 312.676 687.484 317.375 Z" fill="#000000" fill-rule="nonzero" fill-opacity="1" /><polyline clip-path="url(#clip700)" style="stroke:#ac8d18; stroke-linecap:round; stroke-linejoin:round; stroke-width:4; stroke-opacity:1; fill:none" points="342.203,364.875 510.381,364.875 "/>
<circle clip-path="url(#clip700)" cx="426.292" cy="364.875" r="20.48" fill="#ac8d18" fill-rule="evenodd" fill-opacity="1" stroke="#000000" stroke-opacity="1" stroke-width="5.68889"/>
<path clip-path="url(#clip700)" d="M557.323 360.164 L557.323 346.136 L561.582 346.136 L561.582 382.155 L557.323 382.155 L557.323 378.266 Q555.98 380.58 553.92 381.715 Q551.883 382.826 549.013 382.826 Q544.314 382.826 541.351 379.076 Q538.411 375.326 538.411 369.215 Q538.411 363.104 541.351 359.354 Q544.314 355.604 549.013 355.604 Q551.883 355.604 553.92 356.738 Q555.98 357.849 557.323 360.164 M542.809 369.215 Q542.809 373.914 544.731 376.599 Q546.675 379.261 550.055 379.261 Q553.434 379.261 555.379 376.599 Q557.323 373.914 557.323 369.215 Q557.323 364.516 555.379 361.854 Q553.434 359.169 550.055 359.169 Q546.675 359.169 544.731 361.854 Q542.809 364.516 542.809 369.215 Z" fill="#000000" fill-rule="nonzero" fill-opacity="1" /><path clip-path="url(#clip700)" d="M580.402 359.215 Q576.976 359.215 574.985 361.9 Q572.994 364.562 572.994 369.215 Q572.994 373.868 574.962 376.553 Q576.953 379.215 580.402 379.215 Q583.804 379.215 585.795 376.53 Q587.786 373.844 587.786 369.215 Q587.786 364.608 585.795 361.923 Q583.804 359.215 580.402 359.215 M580.402 355.604 Q585.957 355.604 589.128 359.215 Q592.3 362.826 592.3 369.215 Q592.3 375.58 589.128 379.215 Q585.957 382.826 580.402 382.826 Q574.823 382.826 571.652 379.215 Q568.504 375.58 568.504 369.215 Q568.504 362.826 571.652 359.215 Q574.823 355.604 580.402 355.604 Z" fill="#000000" fill-rule="nonzero" fill-opacity="1" /><path clip-path="url(#clip700)" d="M603.573 348.868 L603.573 356.229 L612.346 356.229 L612.346 359.539 L603.573 359.539 L603.573 373.613 Q603.573 376.784 604.429 377.687 Q605.309 378.59 607.971 378.59 L612.346 378.59 L612.346 382.155 L607.971 382.155 Q603.04 382.155 601.165 380.326 Q599.29 378.474 599.29 373.613 L599.29 359.539 L596.165 359.539 L596.165 356.229 L599.29 356.229 L599.29 348.868 L603.573 348.868 Z" fill="#000000" fill-rule="nonzero" fill-opacity="1" /><path clip-path="url(#clip700)" d="M637.647 390.025 L637.647 393.335 L613.017 393.335 L613.017 390.025 L637.647 390.025 Z" fill="#000000" fill-rule="nonzero" fill-opacity="1" /><path clip-path="url(#clip700)" d="M645.864 348.868 L645.864 356.229 L654.637 356.229 L654.637 359.539 L645.864 359.539 L645.864 373.613 Q645.864 376.784 646.721 377.687 Q647.6 378.59 650.262 378.59 L654.637 378.59 L654.637 382.155 L650.262 382.155 Q645.332 382.155 643.457 380.326 Q641.582 378.474 641.582 373.613 L641.582 359.539 L638.457 359.539 L638.457 356.229 L641.582 356.229 L641.582 348.868 L645.864 348.868 Z" fill="#000000" fill-rule="nonzero" fill-opacity="1" /><path clip-path="url(#clip700)" d="M678.85 369.215 Q678.85 364.516 676.906 361.854 Q674.984 359.169 671.605 359.169 Q668.225 359.169 666.281 361.854 Q664.36 364.516 664.36 369.215 Q664.36 373.914 666.281 376.599 Q668.225 379.261 671.605 379.261 Q674.984 379.261 676.906 376.599 Q678.85 373.914 678.85 369.215 M664.36 360.164 Q665.702 357.849 667.739 356.738 Q669.799 355.604 672.646 355.604 Q677.369 355.604 680.308 359.354 Q683.271 363.104 683.271 369.215 Q683.271 375.326 680.308 379.076 Q677.369 382.826 672.646 382.826 Q669.799 382.826 667.739 381.715 Q665.702 380.58 664.36 378.266 L664.36 382.155 L660.077 382.155 L660.077 346.136 L664.36 346.136 L664.36 360.164 Z" fill="#000000" fill-rule="nonzero" fill-opacity="1" /><path clip-path="url(#clip700)" d="M708.943 369.215 Q708.943 364.516 706.998 361.854 Q705.077 359.169 701.697 359.169 Q698.318 359.169 696.373 361.854 Q694.452 364.516 694.452 369.215 Q694.452 373.914 696.373 376.599 Q698.318 379.261 701.697 379.261 Q705.077 379.261 706.998 376.599 Q708.943 373.914 708.943 369.215 M694.452 360.164 Q695.795 357.849 697.832 356.738 Q699.892 355.604 702.739 355.604 Q707.461 355.604 710.401 359.354 Q713.364 363.104 713.364 369.215 Q713.364 375.326 710.401 379.076 Q707.461 382.826 702.739 382.826 Q699.892 382.826 697.832 381.715 Q695.795 380.58 694.452 378.266 L694.452 382.155 L690.17 382.155 L690.17 346.136 L694.452 346.136 L694.452 360.164 Z" fill="#000000" fill-rule="nonzero" fill-opacity="1" /><polyline clip-path="url(#clip700)" style="stroke:#00a9ad; stroke-linecap:round; stroke-linejoin:round; stroke-width:4; stroke-opacity:1; fill:none" points="342.203,416.715 510.381,416.715 "/>
<circle clip-path="url(#clip700)" cx="426.292" cy="416.715" r="20.48" fill="#00a9ad" fill-rule="evenodd" fill-opacity="1" stroke="#000000" stroke-opacity="1" stroke-width="5.68889"/>
<path clip-path="url(#clip700)" d="M557.323 412.004 L557.323 397.976 L561.582 397.976 L561.582 433.995 L557.323 433.995 L557.323 430.106 Q555.98 432.42 553.92 433.555 Q551.883 434.666 549.013 434.666 Q544.314 434.666 541.351 430.916 Q538.411 427.166 538.411 421.055 Q538.411 414.944 541.351 411.194 Q544.314 407.444 549.013 407.444 Q551.883 407.444 553.92 408.578 Q555.98 409.689 557.323 412.004 M542.809 421.055 Q542.809 425.754 544.731 428.439 Q546.675 431.101 550.055 431.101 Q553.434 431.101 555.379 428.439 Q557.323 425.754 557.323 421.055 Q557.323 416.356 555.379 413.694 Q553.434 411.009 550.055 411.009 Q546.675 411.009 544.731 413.694 Q542.809 416.356 542.809 421.055 Z" fill="#000000" fill-rule="nonzero" fill-opacity="1" /><path clip-path="url(#clip700)" d="M580.402 411.055 Q576.976 411.055 574.985 413.74 Q572.994 416.402 572.994 421.055 Q572.994 425.708 574.962 428.393 Q576.953 431.055 580.402 431.055 Q583.804 431.055 585.795 428.37 Q587.786 425.684 587.786 421.055 Q587.786 416.448 585.795 413.763 Q583.804 411.055 580.402 411.055 M580.402 407.444 Q585.957 407.444 589.128 411.055 Q592.3 414.666 592.3 421.055 Q592.3 427.42 589.128 431.055 Q585.957 434.666 580.402 434.666 Q574.823 434.666 571.652 431.055 Q568.504 427.42 568.504 421.055 Q568.504 414.666 571.652 411.055 Q574.823 407.444 580.402 407.444 Z" fill="#000000" fill-rule="nonzero" fill-opacity="1" /><path clip-path="url(#clip700)" d="M603.573 400.708 L603.573 408.069 L612.346 408.069 L612.346 411.379 L603.573 411.379 L603.573 425.453 Q603.573 428.624 604.429 429.527 Q605.309 430.43 607.971 430.43 L612.346 430.43 L612.346 433.995 L607.971 433.995 Q603.04 433.995 601.165 432.166 Q599.29 430.314 599.29 425.453 L599.29 411.379 L596.165 411.379 L596.165 408.069 L599.29 408.069 L599.29 400.708 L603.573 400.708 Z" fill="#000000" fill-rule="nonzero" fill-opacity="1" /><path clip-path="url(#clip700)" d="M637.647 441.865 L637.647 445.175 L613.017 445.175 L613.017 441.865 L637.647 441.865 Z" fill="#000000" fill-rule="nonzero" fill-opacity="1" /><path clip-path="url(#clip700)" d="M663.202 408.069 L653.827 420.684 L663.688 433.995 L658.665 433.995 L651.119 423.809 L643.573 433.995 L638.549 433.995 L648.619 420.43 L639.406 408.069 L644.429 408.069 L651.304 417.305 L658.179 408.069 L663.202 408.069 Z" fill="#000000" fill-rule="nonzero" fill-opacity="1" /><path clip-path="url(#clip700)" d="M686.234 408.833 L686.234 412.86 Q684.429 411.934 682.484 411.471 Q680.54 411.009 678.457 411.009 Q675.285 411.009 673.688 411.981 Q672.114 412.953 672.114 414.897 Q672.114 416.379 673.248 417.235 Q674.383 418.069 677.809 418.833 L679.267 419.157 Q683.804 420.129 685.702 421.911 Q687.623 423.67 687.623 426.842 Q687.623 430.453 684.753 432.559 Q681.906 434.666 676.906 434.666 Q674.822 434.666 672.554 434.249 Q670.309 433.856 667.809 433.045 L667.809 428.647 Q670.17 429.874 672.461 430.499 Q674.753 431.101 676.998 431.101 Q680.008 431.101 681.628 430.082 Q683.248 429.041 683.248 427.166 Q683.248 425.43 682.068 424.504 Q680.91 423.578 676.952 422.721 L675.471 422.374 Q671.512 421.541 669.753 419.828 Q667.994 418.092 667.994 415.083 Q667.994 411.425 670.586 409.434 Q673.179 407.444 677.947 407.444 Q680.308 407.444 682.392 407.791 Q684.475 408.138 686.234 408.833 Z" fill="#000000" fill-rule="nonzero" fill-opacity="1" /><path clip-path="url(#clip700)" d="M694.406 408.069 L698.665 408.069 L698.665 433.995 L694.406 433.995 L694.406 408.069 M694.406 397.976 L698.665 397.976 L698.665 403.37 L694.406 403.37 L694.406 397.976 Z" fill="#000000" fill-rule="nonzero" fill-opacity="1" /><path clip-path="url(#clip700)" d="M727.762 413.046 Q729.359 410.175 731.581 408.809 Q733.804 407.444 736.813 407.444 Q740.864 407.444 743.063 410.291 Q745.262 413.115 745.262 418.346 L745.262 433.995 L740.979 433.995 L740.979 418.485 Q740.979 414.758 739.66 412.953 Q738.341 411.147 735.632 411.147 Q732.322 411.147 730.401 413.346 Q728.48 415.546 728.48 419.342 L728.48 433.995 L724.197 433.995 L724.197 418.485 Q724.197 414.735 722.878 412.953 Q721.558 411.147 718.804 411.147 Q715.54 411.147 713.618 413.37 Q711.697 415.569 711.697 419.342 L711.697 433.995 L707.415 433.995 L707.415 408.069 L711.697 408.069 L711.697 412.096 Q713.156 409.712 715.193 408.578 Q717.23 407.444 720.03 407.444 Q722.855 407.444 724.822 408.879 Q726.813 410.314 727.762 413.046 Z" fill="#000000" fill-rule="nonzero" fill-opacity="1" /><path clip-path="url(#clip700)" d="M770.817 412.004 L770.817 397.976 L775.077 397.976 L775.077 433.995 L770.817 433.995 L770.817 430.106 Q769.475 432.42 767.415 433.555 Q765.377 434.666 762.507 434.666 Q757.808 434.666 754.845 430.916 Q751.905 427.166 751.905 421.055 Q751.905 414.944 754.845 411.194 Q757.808 407.444 762.507 407.444 Q765.377 407.444 767.415 408.578 Q769.475 409.689 770.817 412.004 M756.303 421.055 Q756.303 425.754 758.225 428.439 Q760.169 431.101 763.549 431.101 Q766.928 431.101 768.873 428.439 Q770.817 425.754 770.817 421.055 Q770.817 416.356 768.873 413.694 Q766.928 411.009 763.549 411.009 Q760.169 411.009 758.225 413.694 Q756.303 416.356 756.303 421.055 Z" fill="#000000" fill-rule="nonzero" fill-opacity="1" /></svg>
