<?xml version="1.0" encoding="utf-8"?>
<svg xmlns="http://www.w3.org/2000/svg" xmlns:xlink="http://www.w3.org/1999/xlink" width="700" height="500" viewBox="0 0 2800 2000">
<defs>
  <clipPath id="clip750">
    <rect x="0" y="0" width="2800" height="2000"/>
  </clipPath>
</defs>
<path clip-path="url(#clip750)" d="M0 2000 L2800 2000 L2800 0 L0 0  Z" fill="#ffffff" fill-rule="evenodd" fill-opacity="1"/>
<defs>
  <clipPath id="clip751">
    <rect x="230" y="47" width="2524" height="1754"/>
  </clipPath>
</defs>
<path clip-path="url(#clip750)" d="M230.085 1800.16 L2752.76 1800.16 L2752.76 47.2441 L230.085 47.2441  Z" fill="#ffffff" fill-rule="evenodd" fill-opacity="1"/>
<polyline clip-path="url(#clip751)" style="stroke:#000000; stroke-linecap:round; stroke-linejoin:round; stroke-width:2; stroke-opacity:0.1; fill:none" points="301.481,1800.16 301.481,47.2441 "/>
<polyline clip-path="url(#clip751)" style="stroke:#000000; stroke-linecap:round; stroke-linejoin:round; stroke-width:2; stroke-opacity:0.1; fill:none" points="981.446,1800.16 981.446,47.2441 "/>
<polyline clip-path="url(#clip751)" style="stroke:#000000; stroke-linecap:round; stroke-linejoin:round; stroke-width:2; stroke-opacity:0.1; fill:none" points="1661.41,1800.16 1661.41,47.2441 "/>
<polyline clip-path="url(#clip751)" style="stroke:#000000; stroke-linecap:round; stroke-linejoin:round; stroke-width:2; stroke-opacity:0.1; fill:none" points="2341.38,1800.16 2341.38,47.2441 "/>
<polyline clip-path="url(#clip751)" style="stroke:#000000; stroke-linecap:round; stroke-linejoin:round; stroke-width:2; stroke-opacity:0.1; fill:none" points="230.085,1527.84 2752.76,1527.84 "/>
<polyline clip-path="url(#clip751)" style="stroke:#000000; stroke-linecap:round; stroke-linejoin:round; stroke-width:2; stroke-opacity:0.1; fill:none" points="230.085,1125.14 2752.76,1125.14 "/>
<polyline clip-path="url(#clip751)" style="stroke:#000000; stroke-linecap:round; stroke-linejoin:round; stroke-width:2; stroke-opacity:0.1; fill:none" points="230.085,722.448 2752.76,722.448 "/>
<polyline clip-path="url(#clip751)" style="stroke:#000000; stroke-linecap:round; stroke-linejoin:round; stroke-width:2; stroke-opacity:0.1; fill:none" points="230.085,319.754 2752.76,319.754 "/>
<polyline clip-path="url(#clip750)" style="stroke:#000000; stroke-linecap:round; stroke-linejoin:round; stroke-width:4; stroke-opacity:1; fill:none" points="230.085,1800.16 2752.76,1800.16 "/>
<polyline clip-path="url(#clip750)" style="stroke:#000000; stroke-linecap:round; stroke-linejoin:round; stroke-width:4; stroke-opacity:1; fill:none" points="301.481,1800.16 301.481,1781.26 "/>
<polyline clip-path="url(#clip750)" style="stroke:#000000; stroke-linecap:round; stroke-linejoin:round; stroke-width:4; stroke-opacity:1; fill:none" points="981.446,1800.16 981.446,1781.26 "/>
<polyline clip-path="url(#clip750)" style="stroke:#000000; stroke-linecap:round; stroke-linejoin:round; stroke-width:4; stroke-opacity:1; fill:none" points="1661.41,1800.16 1661.41,1781.26 "/>
<polyline clip-path="url(#clip750)" style="stroke:#000000; stroke-linecap:round; stroke-linejoin:round; stroke-width:4; stroke-opacity:1; fill:none" points="2341.38,1800.16 2341.38,1781.26 "/>
<path clip-path="url(#clip750)" d="M267.254 1877.48 L274.893 1877.48 L274.893 1851.12 L266.582 1852.78 L266.582 1848.52 L274.846 1846.86 L279.522 1846.86 L279.522 1877.48 L287.161 1877.48 L287.161 1881.42 L267.254 1881.42 L267.254 1877.48 Z" fill="#000000" fill-rule="nonzero" fill-opacity="1" /><path clip-path="url(#clip750)" d="M306.605 1849.94 Q302.994 1849.94 301.166 1853.5 Q299.36 1857.04 299.36 1864.17 Q299.36 1871.28 301.166 1874.84 Q302.994 1878.38 306.605 1878.38 Q310.24 1878.38 312.045 1874.84 Q313.874 1871.28 313.874 1864.17 Q313.874 1857.04 312.045 1853.5 Q310.24 1849.94 306.605 1849.94 M306.605 1846.23 Q312.416 1846.23 315.471 1850.84 Q318.55 1855.42 318.55 1864.17 Q318.55 1872.9 315.471 1877.5 Q312.416 1882.09 306.605 1882.09 Q300.795 1882.09 297.717 1877.5 Q294.661 1872.9 294.661 1864.17 Q294.661 1855.42 297.717 1850.84 Q300.795 1846.23 306.605 1846.23 Z" fill="#000000" fill-rule="nonzero" fill-opacity="1" /><path clip-path="url(#clip750)" d="M323.12 1850.81 L336.38 1850.81 L336.38 1854.01 L318.55 1854.01 L318.55 1850.81 Q320.713 1848.57 324.437 1844.81 Q328.179 1841.03 329.139 1839.94 Q330.963 1837.89 331.678 1836.48 Q332.411 1835.05 332.411 1833.67 Q332.411 1831.44 330.831 1830.03 Q329.27 1828.62 326.75 1828.62 Q324.963 1828.62 322.97 1829.24 Q320.995 1829.86 318.738 1831.12 L318.738 1827.28 Q321.032 1826.36 323.026 1825.89 Q325.02 1825.42 326.675 1825.42 Q331.038 1825.42 333.634 1827.6 Q336.229 1829.78 336.229 1833.43 Q336.229 1835.16 335.571 1836.72 Q334.931 1838.26 333.22 1840.37 Q332.75 1840.92 330.229 1843.53 Q327.709 1846.13 323.12 1850.81 Z" fill="#000000" fill-rule="nonzero" fill-opacity="1" /><path clip-path="url(#clip750)" d="M945.902 1877.48 L953.541 1877.48 L953.541 1851.12 L945.231 1852.78 L945.231 1848.52 L953.495 1846.86 L958.171 1846.86 L958.171 1877.48 L965.81 1877.48 L965.81 1881.42 L945.902 1881.42 L945.902 1877.48 Z" fill="#000000" fill-rule="nonzero" fill-opacity="1" /><path clip-path="url(#clip750)" d="M985.254 1849.94 Q981.643 1849.94 979.814 1853.5 Q978.009 1857.04 978.009 1864.17 Q978.009 1871.28 979.814 1874.84 Q981.643 1878.38 985.254 1878.38 Q988.888 1878.38 990.694 1874.84 Q992.523 1871.28 992.523 1864.17 Q992.523 1857.04 990.694 1853.5 Q988.888 1849.94 985.254 1849.94 M985.254 1846.23 Q991.064 1846.23 994.12 1850.84 Q997.199 1855.42 997.199 1864.17 Q997.199 1872.9 994.12 1877.5 Q991.064 1882.09 985.254 1882.09 Q979.444 1882.09 976.365 1877.5 Q973.31 1872.9 973.31 1864.17 Q973.31 1855.42 976.365 1850.84 Q979.444 1846.23 985.254 1846.23 Z" fill="#000000" fill-rule="nonzero" fill-opacity="1" /><path clip-path="url(#clip750)" d="M1009.87 1829.24 L1000.28 1844.23 L1009.87 1844.23 L1009.87 1829.24 M1008.88 1825.93 L1013.66 1825.93 L1013.66 1844.23 L1017.66 1844.23 L1017.66 1847.39 L1013.66 1847.39 L1013.66 1854.01 L1009.87 1854.01 L1009.87 1847.39 L997.199 1847.39 L997.199 1843.72 L1008.88 1825.93 Z" fill="#000000" fill-rule="nonzero" fill-opacity="1" /><path clip-path="url(#clip750)" d="M1626.4 1877.48 L1634.04 1877.48 L1634.04 1851.12 L1625.73 1852.78 L1625.73 1848.52 L1634 1846.86 L1638.67 1846.86 L1638.67 1877.48 L1646.31 1877.48 L1646.31 1881.42 L1626.4 1881.42 L1626.4 1877.48 Z" fill="#000000" fill-rule="nonzero" fill-opacity="1" /><path clip-path="url(#clip750)" d="M1665.76 1849.94 Q1662.14 1849.94 1660.32 1853.5 Q1658.51 1857.04 1658.51 1864.17 Q1658.51 1871.28 1660.32 1874.84 Q1662.14 1878.38 1665.76 1878.38 Q1669.39 1878.38 1671.2 1874.84 Q1673.02 1871.28 1673.02 1864.17 Q1673.02 1857.04 1671.2 1853.5 Q1669.39 1849.94 1665.76 1849.94 M1665.76 1846.23 Q1671.57 1846.23 1674.62 1850.84 Q1677.7 1855.42 1677.7 1864.17 Q1677.7 1872.9 1674.62 1877.5 Q1671.57 1882.09 1665.76 1882.09 Q1659.95 1882.09 1656.87 1877.5 Q1653.81 1872.9 1653.81 1864.17 Q1653.81 1855.42 1656.87 1850.84 Q1659.95 1846.23 1665.76 1846.23 Z" fill="#000000" fill-rule="nonzero" fill-opacity="1" /><path clip-path="url(#clip750)" d="M1687.72 1838.45 Q1685.17 1838.45 1683.66 1840.2 Q1682.18 1841.95 1682.18 1845 Q1682.18 1848.03 1683.66 1849.79 Q1685.17 1851.54 1687.72 1851.54 Q1690.28 1851.54 1691.77 1849.79 Q1693.27 1848.03 1693.27 1845 Q1693.27 1841.95 1691.77 1840.2 Q1690.28 1838.45 1687.72 1838.45 M1695.27 1826.55 L1695.27 1830.01 Q1693.84 1829.33 1692.37 1828.97 Q1690.92 1828.62 1689.49 1828.62 Q1685.73 1828.62 1683.74 1831.15 Q1681.76 1833.69 1681.48 1838.83 Q1682.59 1837.19 1684.26 1836.33 Q1685.94 1835.44 1687.95 1835.44 Q1692.18 1835.44 1694.63 1838.02 Q1697.09 1840.58 1697.09 1845 Q1697.09 1849.32 1694.53 1851.94 Q1691.97 1854.55 1687.72 1854.55 Q1682.85 1854.55 1680.28 1850.83 Q1677.7 1847.08 1677.7 1839.99 Q1677.7 1833.34 1680.86 1829.39 Q1684.02 1825.42 1689.34 1825.42 Q1690.77 1825.42 1692.22 1825.7 Q1693.69 1825.98 1695.27 1826.55 Z" fill="#000000" fill-rule="nonzero" fill-opacity="1" /><path clip-path="url(#clip750)" d="M2306.43 1877.48 L2314.07 1877.48 L2314.07 1851.12 L2305.76 1852.78 L2305.76 1848.52 L2314.03 1846.86 L2318.7 1846.86 L2318.7 1877.48 L2326.34 1877.48 L2326.34 1881.42 L2306.43 1881.42 L2306.43 1877.48 Z" fill="#000000" fill-rule="nonzero" fill-opacity="1" /><path clip-path="url(#clip750)" d="M2345.79 1849.94 Q2342.18 1849.94 2340.35 1853.5 Q2338.54 1857.04 2338.54 1864.17 Q2338.54 1871.28 2340.35 1874.84 Q2342.18 1878.38 2345.79 1878.38 Q2349.42 1878.38 2351.23 1874.84 Q2353.06 1871.28 2353.06 1864.17 Q2353.06 1857.04 2351.23 1853.5 Q2349.42 1849.94 2345.79 1849.94 M2345.79 1846.23 Q2351.6 1846.23 2354.65 1850.84 Q2357.73 1855.42 2357.73 1864.17 Q2357.73 1872.9 2354.65 1877.5 Q2351.6 1882.09 2345.79 1882.09 Q2339.98 1882.09 2336.9 1877.5 Q2333.84 1872.9 2333.84 1864.17 Q2333.84 1855.42 2336.9 1850.84 Q2339.98 1846.23 2345.79 1846.23 Z" fill="#000000" fill-rule="nonzero" fill-opacity="1" /><path clip-path="url(#clip750)" d="M2367.36 1840.67 Q2364.65 1840.67 2363.09 1842.12 Q2361.55 1843.57 2361.55 1846.11 Q2361.55 1848.65 2363.09 1850.09 Q2364.65 1851.54 2367.36 1851.54 Q2370.07 1851.54 2371.63 1850.09 Q2373.19 1848.63 2373.19 1846.11 Q2373.19 1843.57 2371.63 1842.12 Q2370.09 1840.67 2367.36 1840.67 M2363.56 1839.05 Q2361.12 1838.45 2359.74 1836.78 Q2358.39 1835.1 2358.39 1832.7 Q2358.39 1829.33 2360.78 1827.37 Q2363.19 1825.42 2367.36 1825.42 Q2371.55 1825.42 2373.94 1827.37 Q2376.33 1829.33 2376.33 1832.7 Q2376.33 1835.1 2374.96 1836.78 Q2373.6 1838.45 2371.18 1839.05 Q2373.92 1839.69 2375.45 1841.56 Q2376.99 1843.42 2376.99 1846.11 Q2376.99 1850.19 2374.49 1852.37 Q2372.01 1854.55 2367.36 1854.55 Q2362.72 1854.55 2360.21 1852.37 Q2357.73 1850.19 2357.73 1846.11 Q2357.73 1843.42 2359.27 1841.56 Q2360.82 1839.69 2363.56 1839.05 M2362.17 1833.05 Q2362.17 1835.24 2363.52 1836.46 Q2364.9 1837.68 2367.36 1837.68 Q2369.81 1837.68 2371.18 1836.46 Q2372.57 1835.24 2372.57 1833.05 Q2372.57 1830.87 2371.18 1829.65 Q2369.81 1828.43 2367.36 1828.43 Q2364.9 1828.43 2363.52 1829.65 Q2362.17 1830.87 2362.17 1833.05 Z" fill="#000000" fill-rule="nonzero" fill-opacity="1" /><path clip-path="url(#clip750)" d="M1458.99 1923.48 L1458.99 1929.76 Q1455.33 1928 1452.08 1927.15 Q1448.83 1926.29 1445.81 1926.29 Q1440.56 1926.29 1437.69 1928.32 Q1434.86 1930.36 1434.86 1934.12 Q1434.86 1937.27 1436.74 1938.89 Q1438.65 1940.48 1443.93 1941.47 L1447.82 1942.26 Q1455.01 1943.63 1458.41 1947.1 Q1461.85 1950.54 1461.85 1956.33 Q1461.85 1963.24 1457.2 1966.8 Q1452.59 1970.37 1443.65 1970.37 Q1440.27 1970.37 1436.45 1969.6 Q1432.66 1968.84 1428.59 1967.34 L1428.59 1960.72 Q1432.51 1962.92 1436.26 1964.03 Q1440.02 1965.15 1443.65 1965.15 Q1449.15 1965.15 1452.14 1962.98 Q1455.14 1960.82 1455.14 1956.81 Q1455.14 1953.31 1452.97 1951.33 Q1450.84 1949.36 1445.94 1948.37 L1442.02 1947.61 Q1434.83 1946.18 1431.61 1943.12 Q1428.4 1940.07 1428.4 1934.62 Q1428.4 1928.32 1432.82 1924.69 Q1437.28 1921.07 1445.08 1921.07 Q1448.42 1921.07 1451.89 1921.67 Q1455.36 1922.28 1458.99 1923.48 Z" fill="#000000" fill-rule="nonzero" fill-opacity="1" /><path clip-path="url(#clip750)" d="M1471.62 1933.8 L1477.48 1933.8 L1477.48 1969.45 L1471.62 1969.45 L1471.62 1933.8 M1471.62 1919.92 L1477.48 1919.92 L1477.48 1927.34 L1471.62 1927.34 L1471.62 1919.92 Z" fill="#000000" fill-rule="nonzero" fill-opacity="1" /><path clip-path="url(#clip750)" d="M1487.19 1933.8 L1515.01 1933.8 L1515.01 1939.14 L1492.98 1964.77 L1515.01 1964.77 L1515.01 1969.45 L1486.39 1969.45 L1486.39 1964.1 L1508.42 1938.48 L1487.19 1938.48 L1487.19 1933.8 Z" fill="#000000" fill-rule="nonzero" fill-opacity="1" /><path clip-path="url(#clip750)" d="M1554.44 1950.16 L1554.44 1953.02 L1527.51 1953.02 Q1527.9 1959.07 1531.14 1962.25 Q1534.42 1965.4 1540.25 1965.4 Q1543.62 1965.4 1546.77 1964.58 Q1549.95 1963.75 1553.07 1962.09 L1553.07 1967.63 Q1549.92 1968.97 1546.61 1969.67 Q1543.3 1970.37 1539.9 1970.37 Q1531.37 1970.37 1526.37 1965.4 Q1521.4 1960.44 1521.4 1951.97 Q1521.4 1943.22 1526.11 1938.09 Q1530.86 1932.94 1538.88 1932.94 Q1546.07 1932.94 1550.24 1937.58 Q1554.44 1942.2 1554.44 1950.16 M1548.58 1948.44 Q1548.52 1943.63 1545.88 1940.77 Q1543.27 1937.9 1538.94 1937.9 Q1534.04 1937.9 1531.08 1940.67 Q1528.15 1943.44 1527.7 1948.47 L1548.58 1948.44 Z" fill="#000000" fill-rule="nonzero" fill-opacity="1" /><polyline clip-path="url(#clip750)" style="stroke:#000000; stroke-linecap:round; stroke-linejoin:round; stroke-width:4; stroke-opacity:1; fill:none" points="230.085,1800.16 230.085,47.2441 "/>
<polyline clip-path="url(#clip750)" style="stroke:#000000; stroke-linecap:round; stroke-linejoin:round; stroke-width:4; stroke-opacity:1; fill:none" points="230.085,1527.84 248.982,1527.84 "/>
<polyline clip-path="url(#clip750)" style="stroke:#000000; stroke-linecap:round; stroke-linejoin:round; stroke-width:4; stroke-opacity:1; fill:none" points="230.085,1125.14 248.982,1125.14 "/>
<polyline clip-path="url(#clip750)" style="stroke:#000000; stroke-linecap:round; stroke-linejoin:round; stroke-width:4; stroke-opacity:1; fill:none" points="230.085,722.448 248.982,722.448 "/>
<polyline clip-path="url(#clip750)" style="stroke:#000000; stroke-linecap:round; stroke-linejoin:round; stroke-width:4; stroke-opacity:1; fill:none" points="230.085,319.754 248.982,319.754 "/>
<path clip-path="url(#clip750)" d="M118.959 1547.63 L126.598 1547.63 L126.598 1521.26 L118.288 1522.93 L118.288 1518.67 L126.551 1517 L131.227 1517 L131.227 1547.63 L138.866 1547.63 L138.866 1551.56 L118.959 1551.56 L118.959 1547.63 Z" fill="#000000" fill-rule="nonzero" fill-opacity="1" /><path clip-path="url(#clip750)" d="M158.31 1520.08 Q154.699 1520.08 152.871 1523.65 Q151.065 1527.19 151.065 1534.32 Q151.065 1541.43 152.871 1544.99 Q154.699 1548.53 158.31 1548.53 Q161.945 1548.53 163.75 1544.99 Q165.579 1541.43 165.579 1534.32 Q165.579 1527.19 163.75 1523.65 Q161.945 1520.08 158.31 1520.08 M158.31 1516.38 Q164.121 1516.38 167.176 1520.99 Q170.255 1525.57 170.255 1534.32 Q170.255 1543.05 167.176 1547.65 Q164.121 1552.24 158.31 1552.24 Q152.5 1552.24 149.422 1547.65 Q146.366 1543.05 146.366 1534.32 Q146.366 1525.57 149.422 1520.99 Q152.5 1516.38 158.31 1516.38 Z" fill="#000000" fill-rule="nonzero" fill-opacity="1" /><path clip-path="url(#clip750)" d="M174.825 1520.96 L188.085 1520.96 L188.085 1524.15 L170.255 1524.15 L170.255 1520.96 Q172.418 1518.72 176.142 1514.96 Q179.884 1511.18 180.844 1510.09 Q182.668 1508.04 183.383 1506.63 Q184.116 1505.2 184.116 1503.82 Q184.116 1501.59 182.536 1500.17 Q180.975 1498.76 178.455 1498.76 Q176.668 1498.76 174.675 1499.38 Q172.7 1500.01 170.443 1501.27 L170.443 1497.43 Q172.737 1496.51 174.731 1496.04 Q176.725 1495.57 178.38 1495.57 Q182.743 1495.57 185.339 1497.75 Q187.934 1499.93 187.934 1503.58 Q187.934 1505.31 187.276 1506.87 Q186.636 1508.41 184.925 1510.52 Q184.455 1511.06 181.934 1513.68 Q179.414 1516.27 174.825 1520.96 Z" fill="#000000" fill-rule="nonzero" fill-opacity="1" /><path clip-path="url(#clip750)" d="M116.326 1144.94 L123.965 1144.94 L123.965 1118.57 L115.654 1120.24 L115.654 1115.98 L123.918 1114.31 L128.594 1114.31 L128.594 1144.94 L136.233 1144.94 L136.233 1148.87 L116.326 1148.87 L116.326 1144.94 Z" fill="#000000" fill-rule="nonzero" fill-opacity="1" /><path clip-path="url(#clip750)" d="M155.677 1117.39 Q152.066 1117.39 150.238 1120.95 Q148.432 1124.5 148.432 1131.63 Q148.432 1138.73 150.238 1142.3 Q152.066 1145.84 155.677 1145.84 Q159.312 1145.84 161.117 1142.3 Q162.946 1138.73 162.946 1131.63 Q162.946 1124.5 161.117 1120.95 Q159.312 1117.39 155.677 1117.39 M155.677 1113.69 Q161.488 1113.69 164.543 1118.29 Q167.622 1122.88 167.622 1131.63 Q167.622 1140.35 164.543 1144.96 Q161.488 1149.54 155.677 1149.54 Q149.867 1149.54 146.789 1144.96 Q143.733 1140.35 143.733 1131.63 Q143.733 1122.88 146.789 1118.29 Q149.867 1113.69 155.677 1113.69 Z" fill="#000000" fill-rule="nonzero" fill-opacity="1" /><path clip-path="url(#clip750)" d="M180.298 1096.69 L170.706 1111.68 L180.298 1111.68 L180.298 1096.69 M179.301 1093.38 L184.079 1093.38 L184.079 1111.68 L188.085 1111.68 L188.085 1114.84 L184.079 1114.84 L184.079 1121.46 L180.298 1121.46 L180.298 1114.84 L167.622 1114.84 L167.622 1111.17 L179.301 1093.38 Z" fill="#000000" fill-rule="nonzero" fill-opacity="1" /><path clip-path="url(#clip750)" d="M117.398 742.241 L125.037 742.241 L125.037 715.875 L116.726 717.542 L116.726 713.282 L124.99 711.616 L129.666 711.616 L129.666 742.241 L137.305 742.241 L137.305 746.176 L117.398 746.176 L117.398 742.241 Z" fill="#000000" fill-rule="nonzero" fill-opacity="1" /><path clip-path="url(#clip750)" d="M156.749 714.694 Q153.138 714.694 151.31 718.259 Q149.504 721.801 149.504 728.931 Q149.504 736.037 151.31 739.602 Q153.138 743.143 156.749 743.143 Q160.384 743.143 162.189 739.602 Q164.018 736.037 164.018 728.931 Q164.018 721.801 162.189 718.259 Q160.384 714.694 156.749 714.694 M156.749 710.991 Q162.56 710.991 165.615 715.597 Q168.694 720.181 168.694 728.931 Q168.694 737.657 165.615 742.264 Q162.56 746.847 156.749 746.847 Q150.939 746.847 147.861 742.264 Q144.805 737.657 144.805 728.931 Q144.805 720.181 147.861 715.597 Q150.939 710.991 156.749 710.991 Z" fill="#000000" fill-rule="nonzero" fill-opacity="1" /><path clip-path="url(#clip750)" d="M178.718 703.211 Q176.16 703.211 174.656 704.96 Q173.17 706.71 173.17 709.756 Q173.17 712.785 174.656 714.552 Q176.16 716.302 178.718 716.302 Q181.276 716.302 182.762 714.552 Q184.267 712.785 184.267 709.756 Q184.267 706.71 182.762 704.96 Q181.276 703.211 178.718 703.211 M186.26 691.306 L186.26 694.767 Q184.831 694.09 183.364 693.732 Q181.916 693.375 180.486 693.375 Q176.725 693.375 174.731 695.914 Q172.756 698.453 172.474 703.588 Q173.584 701.951 175.258 701.086 Q176.932 700.202 178.944 700.202 Q183.176 700.202 185.621 702.779 Q188.085 705.337 188.085 709.756 Q188.085 714.082 185.527 716.697 Q182.969 719.311 178.718 719.311 Q173.847 719.311 171.27 715.587 Q168.694 711.844 168.694 704.754 Q168.694 698.096 171.854 694.146 Q175.013 690.178 180.336 690.178 Q181.765 690.178 183.213 690.46 Q184.68 690.742 186.26 691.306 Z" fill="#000000" fill-rule="nonzero" fill-opacity="1" /><path clip-path="url(#clip750)" d="M117.529 339.546 L125.168 339.546 L125.168 313.181 L116.858 314.847 L116.858 310.588 L125.122 308.921 L129.798 308.921 L129.798 339.546 L137.437 339.546 L137.437 343.481 L117.529 343.481 L117.529 339.546 Z" fill="#000000" fill-rule="nonzero" fill-opacity="1" /><path clip-path="url(#clip750)" d="M156.881 312 Q153.27 312 151.441 315.565 Q149.636 319.106 149.636 326.236 Q149.636 333.342 151.441 336.907 Q153.27 340.449 156.881 340.449 Q160.515 340.449 162.321 336.907 Q164.15 333.342 164.15 326.236 Q164.15 319.106 162.321 315.565 Q160.515 312 156.881 312 M156.881 308.296 Q162.691 308.296 165.747 312.903 Q168.825 317.486 168.825 326.236 Q168.825 334.963 165.747 339.569 Q162.691 344.153 156.881 344.153 Q151.071 344.153 147.992 339.569 Q144.937 334.963 144.937 326.236 Q144.937 317.486 147.992 312.903 Q151.071 308.296 156.881 308.296 Z" fill="#000000" fill-rule="nonzero" fill-opacity="1" /><path clip-path="url(#clip750)" d="M178.455 302.736 Q175.747 302.736 174.186 304.184 Q172.643 305.633 172.643 308.172 Q172.643 310.711 174.186 312.159 Q175.747 313.607 178.455 313.607 Q181.163 313.607 182.724 312.159 Q184.285 310.692 184.285 308.172 Q184.285 305.633 182.724 304.184 Q181.182 302.736 178.455 302.736 M174.656 301.119 Q172.211 300.517 170.838 298.843 Q169.484 297.169 169.484 294.762 Q169.484 291.395 171.872 289.439 Q174.28 287.483 178.455 287.483 Q182.649 287.483 185.038 289.439 Q187.426 291.395 187.426 294.762 Q187.426 297.169 186.053 298.843 Q184.699 300.517 182.273 301.119 Q185.019 301.758 186.542 303.62 Q188.085 305.482 188.085 308.172 Q188.085 312.253 185.583 314.435 Q183.101 316.616 178.455 316.616 Q173.81 316.616 171.308 314.435 Q168.825 312.253 168.825 308.172 Q168.825 305.482 170.368 303.62 Q171.91 301.758 174.656 301.119 M173.264 295.119 Q173.264 297.301 174.618 298.523 Q175.991 299.746 178.455 299.746 Q180.9 299.746 182.273 298.523 Q183.665 297.301 183.665 295.119 Q183.665 292.937 182.273 291.715 Q180.9 290.492 178.455 290.492 Q175.991 290.492 174.618 291.715 Q173.264 292.937 173.264 295.119 Z" fill="#000000" fill-rule="nonzero" fill-opacity="1" /><path clip-path="url(#clip750)" d="M15.5387 1038.2 L22.3182 1038.2 Q19.2945 1041.45 17.7986 1045.14 Q16.3026 1048.8 16.3026 1052.94 Q16.3026 1061.09 21.2997 1065.42 Q26.2649 1069.75 35.6862 1069.75 Q45.0756 1069.75 50.0727 1065.42 Q55.0379 1061.09 55.0379 1052.94 Q55.0379 1048.8 53.542 1045.14 Q52.0461 1041.45 49.0223 1038.2 L55.7382 1038.2 Q58.0298 1041.58 59.1756 1045.36 Q60.3215 1049.12 60.3215 1053.32 Q60.3215 1064.11 53.733 1070.32 Q47.1126 1076.52 35.6862 1076.52 Q24.2279 1076.52 17.6394 1070.32 Q11.0191 1064.11 11.0191 1053.32 Q11.0191 1049.06 12.1649 1045.3 Q13.2789 1041.51 15.5387 1038.2 Z" fill="#000000" fill-rule="nonzero" fill-opacity="1" /><path clip-path="url(#clip750)" d="M17.162 1021.84 L35.0178 1021.84 L35.0178 1013.76 Q35.0178 1009.27 32.6943 1006.82 Q30.3708 1004.37 26.074 1004.37 Q21.8089 1004.37 19.4855 1006.82 Q17.162 1009.27 17.162 1013.76 L17.162 1021.84 M11.8784 1028.27 L11.8784 1013.76 Q11.8784 1005.77 15.5069 1001.7 Q19.1035 997.59 26.074 997.59 Q33.1081 997.59 36.7047 1001.7 Q40.3013 1005.77 40.3013 1013.76 L40.3013 1021.84 L59.3984 1021.84 L59.3984 1028.27 L11.8784 1028.27 Z" fill="#000000" fill-rule="nonzero" fill-opacity="1" /><path clip-path="url(#clip750)" d="M11.8784 989.697 L11.8784 983.236 L40.7469 983.236 Q48.3858 983.236 51.7596 980.466 Q55.1016 977.697 55.1016 971.491 Q55.1016 965.316 51.7596 962.547 Q48.3858 959.778 40.7469 959.778 L11.8784 959.778 L11.8784 953.317 L41.5426 953.317 Q50.8366 953.317 55.579 957.932 Q60.3215 962.515 60.3215 971.491 Q60.3215 980.498 55.579 985.113 Q50.8366 989.697 41.5426 989.697 L11.8784 989.697 Z" fill="#000000" fill-rule="nonzero" fill-opacity="1" /><path clip-path="url(#clip750)" d="M11.8784 927.122 L11.8784 886.922 L17.2893 886.922 L17.2893 903.792 L59.3984 903.792 L59.3984 910.253 L17.2893 910.253 L17.2893 927.122 L11.8784 927.122 Z" fill="#000000" fill-rule="nonzero" fill-opacity="1" /><path clip-path="url(#clip750)" d="M23.7505 882.976 L23.7505 877.119 L59.3984 877.119 L59.3984 882.976 L23.7505 882.976 M9.87325 882.976 L9.87325 877.119 L17.2893 877.119 L17.2893 882.976 L9.87325 882.976 Z" fill="#000000" fill-rule="nonzero" fill-opacity="1" /><path clip-path="url(#clip750)" d="M30.5936 837.111 Q26.6469 834.915 24.769 831.859 Q22.8911 828.803 22.8911 824.666 Q22.8911 819.096 26.806 816.072 Q30.6891 813.048 37.8824 813.048 L59.3984 813.048 L59.3984 818.937 L38.0733 818.937 Q32.9489 818.937 30.4663 820.751 Q27.9837 822.565 27.9837 826.289 Q27.9837 830.841 31.0074 833.482 Q34.0311 836.124 39.251 836.124 L59.3984 836.124 L59.3984 842.012 L38.0733 842.012 Q32.9171 842.012 30.4663 843.827 Q27.9837 845.641 27.9837 849.428 Q27.9837 853.916 31.0392 856.558 Q34.0629 859.2 39.251 859.2 L59.3984 859.2 L59.3984 865.088 L23.7505 865.088 L23.7505 859.2 L29.2887 859.2 Q26.0103 857.195 24.4507 854.394 Q22.8911 851.593 22.8911 847.741 Q22.8911 843.858 24.8645 841.153 Q26.8379 838.416 30.5936 837.111 Z" fill="#000000" fill-rule="nonzero" fill-opacity="1" /><path clip-path="url(#clip750)" d="M40.1104 770.876 L42.9749 770.876 L42.9749 797.802 Q49.0223 797.421 52.2052 794.174 Q55.3562 790.896 55.3562 785.071 Q55.3562 781.697 54.5287 778.546 Q53.7011 775.363 52.0461 772.244 L57.5842 772.244 Q58.921 775.395 59.6212 778.705 Q60.3215 782.016 60.3215 785.421 Q60.3215 793.951 55.3562 798.948 Q50.391 803.914 41.9246 803.914 Q33.1717 803.914 28.0473 799.203 Q22.8911 794.46 22.8911 786.44 Q22.8911 779.246 27.5381 775.077 Q32.1532 770.876 40.1104 770.876 M38.3916 776.732 Q33.5855 776.796 30.7209 779.437 Q27.8564 782.047 27.8564 786.376 Q27.8564 791.278 30.6254 794.238 Q33.3945 797.166 38.4234 797.612 L38.3916 776.732 Z" fill="#000000" fill-rule="nonzero" fill-opacity="1" /><polyline clip-path="url(#clip751)" style="stroke:#009af9; stroke-linecap:round; stroke-linejoin:round; stroke-width:4; stroke-opacity:1; fill:none" points="301.481,1750.55 641.464,1542.47 981.446,1282.72 1321.43,986.87 1661.41,761.023 2001.39,509.011 2341.38,302.042 2681.36,100.72 "/>
<circle clip-path="url(#clip751)" cx="301.481" cy="1750.55" r="14.4" fill="#009af9" fill-rule="evenodd" fill-opacity="1" stroke="#000000" stroke-opacity="1" stroke-width="4"/>
<circle clip-path="url(#clip751)" cx="641.464" cy="1542.47" r="14.4" fill="#009af9" fill-rule="evenodd" fill-opacity="1" stroke="#000000" stroke-opacity="1" stroke-width="4"/>
<circle clip-path="url(#clip751)" cx="981.446" cy="1282.72" r="14.4" fill="#009af9" fill-rule="evenodd" fill-opacity="1" stroke="#000000" stroke-opacity="1" stroke-width="4"/>
<circle clip-path="url(#clip751)" cx="1321.43" cy="986.87" r="14.4" fill="#009af9" fill-rule="evenodd" fill-opacity="1" stroke="#000000" stroke-opacity="1" stroke-width="4"/>
<circle clip-path="url(#clip751)" cx="1661.41" cy="761.023" r="14.4" fill="#009af9" fill-rule="evenodd" fill-opacity="1" stroke="#000000" stroke-opacity="1" stroke-width="4"/>
<circle clip-path="url(#clip751)" cx="2001.39" cy="509.011" r="14.4" fill="#009af9" fill-rule="evenodd" fill-opacity="1" stroke="#000000" stroke-opacity="1" stroke-width="4"/>
<circle clip-path="url(#clip751)" cx="2341.38" cy="302.042" r="14.4" fill="#009af9" fill-rule="evenodd" fill-opacity="1" stroke="#000000" stroke-opacity="1" stroke-width="4"/>
<circle clip-path="url(#clip751)" cx="2681.36" cy="100.72" r="14.4" fill="#009af9" fill-rule="evenodd" fill-opacity="1" stroke="#000000" stroke-opacity="1" stroke-width="4"/>
<polyline clip-path="url(#clip751)" style="stroke:#e26f46; stroke-linecap:round; stroke-linejoin:round; stroke-width:4; stroke-opacity:1; fill:none" points="301.481,1714.58 641.464,1517.54 981.446,1273.55 1321.43,975.026 1661.41,761.87 2001.39,510.694 2341.38,304.229 2681.36,98.884 "/>
<circle clip-path="url(#clip751)" cx="301.481" cy="1714.58" r="14.4" fill="#e26f46" fill-rule="evenodd" fill-opacity="1" stroke="#000000" stroke-opacity="1" stroke-width="4"/>
<circle clip-path="url(#clip751)" cx="641.464" cy="1517.54" r="14.4" fill="#e26f46" fill-rule="evenodd" fill-opacity="1" stroke="#000000" stroke-opacity="1" stroke-width="4"/>
<circle clip-path="url(#clip751)" cx="981.446" cy="1273.55" r="14.4" fill="#e26f46" fill-rule="evenodd" fill-opacity="1" stroke="#000000" stroke-opacity="1" stroke-width="4"/>
<circle clip-path="url(#clip751)" cx="1321.43" cy="975.026" r="14.4" fill="#e26f46" fill-rule="evenodd" fill-opacity="1" stroke="#000000" stroke-opacity="1" stroke-width="4"/>
<circle clip-path="url(#clip751)" cx="1661.41" cy="761.87" r="14.4" fill="#e26f46" fill-rule="evenodd" fill-opacity="1" stroke="#000000" stroke-opacity="1" stroke-width="4"/>
<circle clip-path="url(#clip751)" cx="2001.39" cy="510.694" r="14.4" fill="#e26f46" fill-rule="evenodd" fill-opacity="1" stroke="#000000" stroke-opacity="1" stroke-width="4"/>
<circle clip-path="url(#clip751)" cx="2341.38" cy="304.229" r="14.4" fill="#e26f46" fill-rule="evenodd" fill-opacity="1" stroke="#000000" stroke-opacity="1" stroke-width="4"/>
<circle clip-path="url(#clip751)" cx="2681.36" cy="98.884" r="14.4" fill="#e26f46" fill-rule="evenodd" fill-opacity="1" stroke="#000000" stroke-opacity="1" stroke-width="4"/>
<polyline clip-path="url(#clip751)" style="stroke:#3da44d; stroke-linecap:round; stroke-linejoin:round; stroke-width:4; stroke-opacity:1; fill:none" points="301.481,1219.68 641.464,1221.09 981.446,1213.1 1321.43,1176.37 1661.41,943.343 2001.39,618.964 2341.38,409.792 2681.36,209.026 "/>
<circle clip-path="url(#clip751)" cx="301.481" cy="1219.68" r="14.4" fill="#3da44d" fill-rule="evenodd" fill-opacity="1" stroke="#000000" stroke-opacity="1" stroke-width="4"/>
<circle clip-path="url(#clip751)" cx="641.464" cy="1221.09" r="14.4" fill="#3da44d" fill-rule="evenodd" fill-opacity="1" stroke="#000000" stroke-opacity="1" stroke-width="4"/>
<circle clip-path="url(#clip751)" cx="981.446" cy="1213.1" r="14.4" fill="#3da44d" fill-rule="evenodd" fill-opacity="1" stroke="#000000" stroke-opacity="1" stroke-width="4"/>
<circle clip-path="url(#clip751)" cx="1321.43" cy="1176.37" r="14.4" fill="#3da44d" fill-rule="evenodd" fill-opacity="1" stroke="#000000" stroke-opacity="1" stroke-width="4"/>
<circle clip-path="url(#clip751)" cx="1661.41" cy="943.343" r="14.4" fill="#3da44d" fill-rule="evenodd" fill-opacity="1" stroke="#000000" stroke-opacity="1" stroke-width="4"/>
<circle clip-path="url(#clip751)" cx="2001.39" cy="618.964" r="14.4" fill="#3da44d" fill-rule="evenodd" fill-opacity="1" stroke="#000000" stroke-opacity="1" stroke-width="4"/>
<circle clip-path="url(#clip751)" cx="2341.38" cy="409.792" r="14.4" fill="#3da44d" fill-rule="evenodd" fill-opacity="1" stroke="#000000" stroke-opacity="1" stroke-width="4"/>
<circle clip-path="url(#clip751)" cx="2681.36" cy="209.026" r="14.4" fill="#3da44d" fill-rule="evenodd" fill-opacity="1" stroke="#000000" stroke-opacity="1" stroke-width="4"/>
<polyline clip-path="url(#clip751)" style="stroke:#c271d2; stroke-linecap:round; stroke-linejoin:round; stroke-width:4; stroke-opacity:1; fill:none" points="301.481,1717.21 641.464,1508.77 981.446,1257.9 1321.43,975.519 1661.41,762.891 2001.39,503.991 2341.38,299.963 2681.36,96.8548 "/>
<circle clip-path="url(#clip751)" cx="301.481" cy="1717.21" r="14.4" fill="#c271d2" fill-rule="evenodd" fill-opacity="1" stroke="#000000" stroke-opacity="1" stroke-width="4"/>
<circle clip-path="url(#clip751)" cx="641.464" cy="1508.77" r="14.4" fill="#c271d2" fill-rule="evenodd" fill-opacity="1" stroke="#000000" stroke-opacity="1" stroke-width="4"/>
<circle clip-path="url(#clip751)" cx="981.446" cy="1257.9" r="14.4" fill="#c271d2" fill-rule="evenodd" fill-opacity="1" stroke="#000000" stroke-opacity="1" stroke-width="4"/>
<circle clip-path="url(#clip751)" cx="1321.43" cy="975.519" r="14.4" fill="#c271d2" fill-rule="evenodd" fill-opacity="1" stroke="#000000" stroke-opacity="1" stroke-width="4"/>
<circle clip-path="url(#clip751)" cx="1661.41" cy="762.891" r="14.4" fill="#c271d2" fill-rule="evenodd" fill-opacity="1" stroke="#000000" stroke-opacity="1" stroke-width="4"/>
<circle clip-path="url(#clip751)" cx="2001.39" cy="503.991" r="14.4" fill="#c271d2" fill-rule="evenodd" fill-opacity="1" stroke="#000000" stroke-opacity="1" stroke-width="4"/>
<circle clip-path="url(#clip751)" cx="2341.38" cy="299.963" r="14.4" fill="#c271d2" fill-rule="evenodd" fill-opacity="1" stroke="#000000" stroke-opacity="1" stroke-width="4"/>
<circle clip-path="url(#clip751)" cx="2681.36" cy="96.8548" r="14.4" fill="#c271d2" fill-rule="evenodd" fill-opacity="1" stroke="#000000" stroke-opacity="1" stroke-width="4"/>
<polyline clip-path="url(#clip751)" style="stroke:#ac8d18; stroke-linecap:round; stroke-linejoin:round; stroke-width:4; stroke-opacity:1; fill:none" points="301.481,1150.2 641.464,1110.57 981.446,1098.7 1321.43,1033.13 1661.41,943.667 2001.39,617.193 2341.38,409.816 2681.36,209.206 "/>
<circle clip-path="url(#clip751)" cx="301.481" cy="1150.2" r="14.4" fill="#ac8d18" fill-rule="evenodd" fill-opacity="1" stroke="#000000" stroke-opacity="1" stroke-width="4"/>
<circle clip-path="url(#clip751)" cx="641.464" cy="1110.57" r="14.4" fill="#ac8d18" fill-rule="evenodd" fill-opacity="1" stroke="#000000" stroke-opacity="1" stroke-width="4"/>
<circle clip-path="url(#clip751)" cx="981.446" cy="1098.7" r="14.4" fill="#ac8d18" fill-rule="evenodd" fill-opacity="1" stroke="#000000" stroke-opacity="1" stroke-width="4"/>
<circle clip-path="url(#clip751)" cx="1321.43" cy="1033.13" r="14.4" fill="#ac8d18" fill-rule="evenodd" fill-opacity="1" stroke="#000000" stroke-opacity="1" stroke-width="4"/>
<circle clip-path="url(#clip751)" cx="1661.41" cy="943.667" r="14.4" fill="#ac8d18" fill-rule="evenodd" fill-opacity="1" stroke="#000000" stroke-opacity="1" stroke-width="4"/>
<circle clip-path="url(#clip751)" cx="2001.39" cy="617.193" r="14.4" fill="#ac8d18" fill-rule="evenodd" fill-opacity="1" stroke="#000000" stroke-opacity="1" stroke-width="4"/>
<circle clip-path="url(#clip751)" cx="2341.38" cy="409.816" r="14.4" fill="#ac8d18" fill-rule="evenodd" fill-opacity="1" stroke="#000000" stroke-opacity="1" stroke-width="4"/>
<circle clip-path="url(#clip751)" cx="2681.36" cy="209.206" r="14.4" fill="#ac8d18" fill-rule="evenodd" fill-opacity="1" stroke="#000000" stroke-opacity="1" stroke-width="4"/>
<polyline clip-path="url(#clip751)" style="stroke:#00a9ad; stroke-linecap:round; stroke-linejoin:round; stroke-width:4; stroke-opacity:1; fill:none" points="301.481,1712.39 641.464,1517.33 981.446,1273.41 1321.43,975.287 1661.41,760.656 2001.39,508.086 2341.38,303.019 2681.36,100.474 "/>
<circle clip-path="url(#clip751)" cx="301.481" cy="1712.39" r="14.4" fill="#00a9ad" fill-rule="evenodd" fill-opacity="1" stroke="#000000" stroke-opacity="1" stroke-width="4"/>
<circle clip-path="url(#clip751)" cx="641.464" cy="1517.33" r="14.4" fill="#00a9ad" fill-rule="evenodd" fill-opacity="1" stroke="#000000" stroke-opacity="1" stroke-width="4"/>
<circle clip-path="url(#clip751)" cx="981.446" cy="1273.41" r="14.4" fill="#00a9ad" fill-rule="evenodd" fill-opacity="1" stroke="#000000" stroke-opacity="1" stroke-width="4"/>
<circle clip-path="url(#clip751)" cx="1321.43" cy="975.287" r="14.4" fill="#00a9ad" fill-rule="evenodd" fill-opacity="1" stroke="#000000" stroke-opacity="1" stroke-width="4"/>
<circle clip-path="url(#clip751)" cx="1661.41" cy="760.656" r="14.4" fill="#00a9ad" fill-rule="evenodd" fill-opacity="1" stroke="#000000" stroke-opacity="1" stroke-width="4"/>
<circle clip-path="url(#clip751)" cx="2001.39" cy="508.086" r="14.4" fill="#00a9ad" fill-rule="evenodd" fill-opacity="1" stroke="#000000" stroke-opacity="1" stroke-width="4"/>
<circle clip-path="url(#clip751)" cx="2341.38" cy="303.019" r="14.4" fill="#00a9ad" fill-rule="evenodd" fill-opacity="1" stroke="#000000" stroke-opacity="1" stroke-width="4"/>
<circle clip-path="url(#clip751)" cx="2681.36" cy="100.474" r="14.4" fill="#00a9ad" fill-rule="evenodd" fill-opacity="1" stroke="#000000" stroke-opacity="1" stroke-width="4"/>
<path clip-path="url(#clip750)" d="M314.174 468.555 L900.374 468.555 L900.374 105.675 L314.174 105.675  Z" fill="#ffffff" fill-rule="evenodd" fill-opacity="1"/>
<polyline clip-path="url(#clip750)" style="stroke:#000000; stroke-linecap:round; stroke-linejoin:round; stroke-width:4; stroke-opacity:1; fill:none" points="314.174,468.555 900.374,468.555 900.374,105.675 314.174,105.675 314.174,468.555 "/>
<polyline clip-path="url(#clip750)" style="stroke:#009af9; stroke-linecap:round; stroke-linejoin:round; stroke-width:4; stroke-opacity:1; fill:none" points="342.203,157.515 510.381,157.515 "/>
<circle clip-path="url(#clip750)" cx="426.292" cy="157.515" r="20.48" fill="#009af9" fill-rule="evenodd" fill-opacity="1" stroke="#000000" stroke-opacity="1" stroke-width="5.68889"/>
<path clip-path="url(#clip750)" d="M551.814 161.762 Q546.652 161.762 544.661 162.943 Q542.67 164.123 542.67 166.97 Q542.67 169.239 544.152 170.582 Q545.656 171.901 548.226 171.901 Q551.768 171.901 553.897 169.401 Q556.05 166.878 556.05 162.711 L556.05 161.762 L551.814 161.762 M560.309 160.003 L560.309 174.795 L556.05 174.795 L556.05 170.859 Q554.592 173.22 552.416 174.355 Q550.24 175.466 547.092 175.466 Q543.11 175.466 540.749 173.244 Q538.411 170.998 538.411 167.248 Q538.411 162.873 541.328 160.651 Q544.268 158.429 550.078 158.429 L556.05 158.429 L556.05 158.012 Q556.05 155.072 554.105 153.475 Q552.184 151.855 548.689 151.855 Q546.467 151.855 544.36 152.387 Q542.254 152.92 540.309 153.984 L540.309 150.049 Q542.647 149.146 544.846 148.707 Q547.045 148.244 549.129 148.244 Q554.754 148.244 557.531 151.16 Q560.309 154.077 560.309 160.003 Z" fill="#000000" fill-rule="nonzero" fill-opacity="1" /><path clip-path="url(#clip750)" d="M590.633 148.869 L581.258 161.484 L591.119 174.795 L586.096 174.795 L578.55 164.609 L571.004 174.795 L565.98 174.795 L576.05 161.23 L566.837 148.869 L571.86 148.869 L578.735 158.105 L585.61 148.869 L590.633 148.869 Z" fill="#000000" fill-rule="nonzero" fill-opacity="1" /><path clip-path="url(#clip750)" d="M601.258 170.906 L601.258 184.656 L596.976 184.656 L596.976 148.869 L601.258 148.869 L601.258 152.804 Q602.601 150.489 604.638 149.378 Q606.698 148.244 609.545 148.244 Q614.267 148.244 617.207 151.994 Q620.17 155.744 620.17 161.855 Q620.17 167.966 617.207 171.716 Q614.267 175.466 609.545 175.466 Q606.698 175.466 604.638 174.355 Q602.601 173.22 601.258 170.906 M615.749 161.855 Q615.749 157.156 613.804 154.494 Q611.883 151.809 608.503 151.809 Q605.124 151.809 603.179 154.494 Q601.258 157.156 601.258 161.855 Q601.258 166.554 603.179 169.239 Q605.124 171.901 608.503 171.901 Q611.883 171.901 613.804 169.239 Q615.749 166.554 615.749 161.855 Z" fill="#000000" fill-rule="nonzero" fill-opacity="1" /><path clip-path="url(#clip750)" d="M638.017 177.202 Q636.212 181.832 634.499 183.244 Q632.786 184.656 629.915 184.656 L626.512 184.656 L626.512 181.091 L629.012 181.091 Q630.772 181.091 631.744 180.257 Q632.716 179.424 633.897 176.322 L634.661 174.378 L624.175 148.869 L628.688 148.869 L636.79 169.146 L644.892 148.869 L649.406 148.869 L638.017 177.202 Z" fill="#000000" fill-rule="nonzero" fill-opacity="1" /><path clip-path="url(#clip750)" d="M674.984 182.665 L674.984 185.975 L650.355 185.975 L650.355 182.665 L674.984 182.665 Z" fill="#000000" fill-rule="nonzero" fill-opacity="1" /><path clip-path="url(#clip750)" d="M701.165 160.767 L701.165 162.85 L681.582 162.85 Q681.859 167.248 684.221 169.563 Q686.605 171.855 690.841 171.855 Q693.295 171.855 695.586 171.253 Q697.901 170.651 700.169 169.447 L700.169 173.475 Q697.878 174.447 695.47 174.957 Q693.063 175.466 690.586 175.466 Q684.383 175.466 680.748 171.855 Q677.137 168.244 677.137 162.086 Q677.137 155.721 680.563 151.994 Q684.012 148.244 689.845 148.244 Q695.077 148.244 698.109 151.623 Q701.165 154.98 701.165 160.767 M696.906 159.517 Q696.859 156.021 694.938 153.938 Q693.04 151.855 689.892 151.855 Q686.327 151.855 684.174 153.869 Q682.045 155.883 681.721 159.54 L696.906 159.517 Z" fill="#000000" fill-rule="nonzero" fill-opacity="1" /><path clip-path="url(#clip750)" d="M708.156 148.869 L712.415 148.869 L712.415 174.795 L708.156 174.795 L708.156 148.869 M708.156 138.776 L712.415 138.776 L712.415 144.17 L708.156 144.17 L708.156 138.776 Z" fill="#000000" fill-rule="nonzero" fill-opacity="1" /><path clip-path="url(#clip750)" d="M738.387 161.531 Q738.387 156.901 736.466 154.355 Q734.567 151.809 731.118 151.809 Q727.692 151.809 725.771 154.355 Q723.873 156.901 723.873 161.531 Q723.873 166.137 725.771 168.683 Q727.692 171.23 731.118 171.23 Q734.567 171.23 736.466 168.683 Q738.387 166.137 738.387 161.531 M742.646 171.577 Q742.646 178.197 739.706 181.415 Q736.767 184.656 730.702 184.656 Q728.456 184.656 726.466 184.308 Q724.475 183.984 722.6 183.29 L722.6 179.146 Q724.475 180.165 726.304 180.651 Q728.132 181.137 730.03 181.137 Q734.22 181.137 736.304 178.938 Q738.387 176.762 738.387 172.341 L738.387 170.234 Q737.067 172.526 735.007 173.66 Q732.947 174.795 730.077 174.795 Q725.308 174.795 722.392 171.16 Q719.475 167.526 719.475 161.531 Q719.475 155.512 722.392 151.878 Q725.308 148.244 730.077 148.244 Q732.947 148.244 735.007 149.378 Q737.067 150.512 738.387 152.804 L738.387 148.869 L742.646 148.869 L742.646 171.577 Z" fill="#000000" fill-rule="nonzero" fill-opacity="1" /><path clip-path="url(#clip750)" d="M773.595 160.767 L773.595 162.85 L754.012 162.85 Q754.29 167.248 756.651 169.563 Q759.035 171.855 763.271 171.855 Q765.725 171.855 768.016 171.253 Q770.331 170.651 772.6 169.447 L772.6 173.475 Q770.308 174.447 767.901 174.957 Q765.493 175.466 763.016 175.466 Q756.813 175.466 753.178 171.855 Q749.567 168.244 749.567 162.086 Q749.567 155.721 752.993 151.994 Q756.442 148.244 762.276 148.244 Q767.507 148.244 770.539 151.623 Q773.595 154.98 773.595 160.767 M769.336 159.517 Q769.289 156.021 767.368 153.938 Q765.47 151.855 762.322 151.855 Q758.757 151.855 756.604 153.869 Q754.475 155.883 754.151 159.54 L769.336 159.517 Z" fill="#000000" fill-rule="nonzero" fill-opacity="1" /><path clip-path="url(#clip750)" d="M802.137 159.146 L802.137 174.795 L797.877 174.795 L797.877 159.285 Q797.877 155.605 796.442 153.776 Q795.007 151.947 792.137 151.947 Q788.688 151.947 786.697 154.146 Q784.706 156.346 784.706 160.142 L784.706 174.795 L780.424 174.795 L780.424 148.869 L784.706 148.869 L784.706 152.896 Q786.234 150.559 788.294 149.401 Q790.377 148.244 793.086 148.244 Q797.553 148.244 799.845 151.021 Q802.137 153.776 802.137 159.146 Z" fill="#000000" fill-rule="nonzero" fill-opacity="1" /><polyline clip-path="url(#clip750)" style="stroke:#e26f46; stroke-linecap:round; stroke-linejoin:round; stroke-width:4; stroke-opacity:1; fill:none" points="342.203,209.355 510.381,209.355 "/>
<circle clip-path="url(#clip750)" cx="426.292" cy="209.355" r="20.48" fill="#e26f46" fill-rule="evenodd" fill-opacity="1" stroke="#000000" stroke-opacity="1" stroke-width="5.68889"/>
<path clip-path="url(#clip750)" d="M551.814 213.602 Q546.652 213.602 544.661 214.783 Q542.67 215.963 542.67 218.81 Q542.67 221.079 544.152 222.422 Q545.656 223.741 548.226 223.741 Q551.768 223.741 553.897 221.241 Q556.05 218.718 556.05 214.551 L556.05 213.602 L551.814 213.602 M560.309 211.843 L560.309 226.635 L556.05 226.635 L556.05 222.699 Q554.592 225.06 552.416 226.195 Q550.24 227.306 547.092 227.306 Q543.11 227.306 540.749 225.084 Q538.411 222.838 538.411 219.088 Q538.411 214.713 541.328 212.491 Q544.268 210.269 550.078 210.269 L556.05 210.269 L556.05 209.852 Q556.05 206.912 554.105 205.315 Q552.184 203.695 548.689 203.695 Q546.467 203.695 544.36 204.227 Q542.254 204.76 540.309 205.824 L540.309 201.889 Q542.647 200.986 544.846 200.547 Q547.045 200.084 549.129 200.084 Q554.754 200.084 557.531 203 Q560.309 205.917 560.309 211.843 Z" fill="#000000" fill-rule="nonzero" fill-opacity="1" /><path clip-path="url(#clip750)" d="M590.633 200.709 L581.258 213.324 L591.119 226.635 L586.096 226.635 L578.55 216.449 L571.004 226.635 L565.98 226.635 L576.05 213.07 L566.837 200.709 L571.86 200.709 L578.735 209.945 L585.61 200.709 L590.633 200.709 Z" fill="#000000" fill-rule="nonzero" fill-opacity="1" /><path clip-path="url(#clip750)" d="M601.258 222.746 L601.258 236.496 L596.976 236.496 L596.976 200.709 L601.258 200.709 L601.258 204.644 Q602.601 202.329 604.638 201.218 Q606.698 200.084 609.545 200.084 Q614.267 200.084 617.207 203.834 Q620.17 207.584 620.17 213.695 Q620.17 219.806 617.207 223.556 Q614.267 227.306 609.545 227.306 Q606.698 227.306 604.638 226.195 Q602.601 225.06 601.258 222.746 M615.749 213.695 Q615.749 208.996 613.804 206.334 Q611.883 203.649 608.503 203.649 Q605.124 203.649 603.179 206.334 Q601.258 208.996 601.258 213.695 Q601.258 218.394 603.179 221.079 Q605.124 223.741 608.503 223.741 Q611.883 223.741 613.804 221.079 Q615.749 218.394 615.749 213.695 Z" fill="#000000" fill-rule="nonzero" fill-opacity="1" /><path clip-path="url(#clip750)" d="M638.017 229.042 Q636.212 233.672 634.499 235.084 Q632.786 236.496 629.915 236.496 L626.512 236.496 L626.512 232.931 L629.012 232.931 Q630.772 232.931 631.744 232.097 Q632.716 231.264 633.897 228.162 L634.661 226.218 L624.175 200.709 L628.688 200.709 L636.79 220.986 L644.892 200.709 L649.406 200.709 L638.017 229.042 Z" fill="#000000" fill-rule="nonzero" fill-opacity="1" /><path clip-path="url(#clip750)" d="M674.984 234.505 L674.984 237.815 L650.355 237.815 L650.355 234.505 L674.984 234.505 Z" fill="#000000" fill-rule="nonzero" fill-opacity="1" /><path clip-path="url(#clip750)" d="M700.54 210.986 L700.54 226.635 L696.281 226.635 L696.281 211.125 Q696.281 207.445 694.845 205.616 Q693.41 203.787 690.54 203.787 Q687.091 203.787 685.1 205.986 Q683.109 208.186 683.109 211.982 L683.109 226.635 L678.827 226.635 L678.827 190.616 L683.109 190.616 L683.109 204.736 Q684.637 202.399 686.697 201.241 Q688.781 200.084 691.489 200.084 Q695.957 200.084 698.248 202.861 Q700.54 205.616 700.54 210.986 Z" fill="#000000" fill-rule="nonzero" fill-opacity="1" /><path clip-path="url(#clip750)" d="M709.035 200.709 L713.294 200.709 L713.294 226.635 L709.035 226.635 L709.035 200.709 M709.035 190.616 L713.294 190.616 L713.294 196.01 L709.035 196.01 L709.035 190.616 Z" fill="#000000" fill-rule="nonzero" fill-opacity="1" /><path clip-path="url(#clip750)" d="M739.267 213.371 Q739.267 208.741 737.345 206.195 Q735.447 203.649 731.998 203.649 Q728.572 203.649 726.651 206.195 Q724.753 208.741 724.753 213.371 Q724.753 217.977 726.651 220.523 Q728.572 223.07 731.998 223.07 Q735.447 223.07 737.345 220.523 Q739.267 217.977 739.267 213.371 M743.526 223.417 Q743.526 230.037 740.586 233.255 Q737.646 236.496 731.581 236.496 Q729.336 236.496 727.345 236.148 Q725.355 235.824 723.48 235.13 L723.48 230.986 Q725.355 232.005 727.183 232.491 Q729.012 232.977 730.91 232.977 Q735.1 232.977 737.183 230.778 Q739.267 228.602 739.267 224.181 L739.267 222.074 Q737.947 224.366 735.887 225.5 Q733.827 226.635 730.956 226.635 Q726.188 226.635 723.271 223 Q720.355 219.366 720.355 213.371 Q720.355 207.352 723.271 203.718 Q726.188 200.084 730.956 200.084 Q733.827 200.084 735.887 201.218 Q737.947 202.352 739.267 204.644 L739.267 200.709 L743.526 200.709 L743.526 223.417 Z" fill="#000000" fill-rule="nonzero" fill-opacity="1" /><path clip-path="url(#clip750)" d="M773.85 210.986 L773.85 226.635 L769.59 226.635 L769.59 211.125 Q769.59 207.445 768.155 205.616 Q766.72 203.787 763.85 203.787 Q760.401 203.787 758.41 205.986 Q756.419 208.186 756.419 211.982 L756.419 226.635 L752.137 226.635 L752.137 190.616 L756.419 190.616 L756.419 204.736 Q757.947 202.399 760.007 201.241 Q762.09 200.084 764.799 200.084 Q769.266 200.084 771.558 202.861 Q773.85 205.616 773.85 210.986 Z" fill="#000000" fill-rule="nonzero" fill-opacity="1" /><path clip-path="url(#clip750)" d="M779.868 200.709 L784.127 200.709 L789.451 220.94 L794.752 200.709 L799.775 200.709 L805.099 220.94 L810.4 200.709 L814.66 200.709 L807.877 226.635 L802.854 226.635 L797.275 205.385 L791.674 226.635 L786.651 226.635 L779.868 200.709 Z" fill="#000000" fill-rule="nonzero" fill-opacity="1" /><path clip-path="url(#clip750)" d="M832.9 213.602 Q827.738 213.602 825.748 214.783 Q823.757 215.963 823.757 218.81 Q823.757 221.079 825.238 222.422 Q826.743 223.741 829.312 223.741 Q832.854 223.741 834.984 221.241 Q837.136 218.718 837.136 214.551 L837.136 213.602 L832.9 213.602 M841.396 211.843 L841.396 226.635 L837.136 226.635 L837.136 222.699 Q835.678 225.06 833.502 226.195 Q831.326 227.306 828.178 227.306 Q824.197 227.306 821.836 225.084 Q819.498 222.838 819.498 219.088 Q819.498 214.713 822.414 212.491 Q825.354 210.269 831.164 210.269 L837.136 210.269 L837.136 209.852 Q837.136 206.912 835.192 205.315 Q833.271 203.695 829.775 203.695 Q827.553 203.695 825.447 204.227 Q823.34 204.76 821.396 205.824 L821.396 201.889 Q823.734 200.986 825.933 200.547 Q828.132 200.084 830.215 200.084 Q835.84 200.084 838.618 203 Q841.396 205.917 841.396 211.843 Z" fill="#000000" fill-rule="nonzero" fill-opacity="1" /><path clip-path="url(#clip750)" d="M860.956 229.042 Q859.15 233.672 857.437 235.084 Q855.724 236.496 852.854 236.496 L849.451 236.496 L849.451 232.931 L851.951 232.931 Q853.71 232.931 854.683 232.097 Q855.655 231.264 856.835 228.162 L857.599 226.218 L847.113 200.709 L851.627 200.709 L859.729 220.986 L867.831 200.709 L872.344 200.709 L860.956 229.042 Z" fill="#000000" fill-rule="nonzero" fill-opacity="1" /><polyline clip-path="url(#clip750)" style="stroke:#3da44d; stroke-linecap:round; stroke-linejoin:round; stroke-width:4; stroke-opacity:1; fill:none" points="342.203,261.195 510.381,261.195 "/>
<circle clip-path="url(#clip750)" cx="426.292" cy="261.195" r="20.48" fill="#3da44d" fill-rule="evenodd" fill-opacity="1" stroke="#000000" stroke-opacity="1" stroke-width="5.68889"/>
<path clip-path="url(#clip750)" d="M551.814 265.442 Q546.652 265.442 544.661 266.623 Q542.67 267.803 542.67 270.65 Q542.67 272.919 544.152 274.262 Q545.656 275.581 548.226 275.581 Q551.768 275.581 553.897 273.081 Q556.05 270.558 556.05 266.391 L556.05 265.442 L551.814 265.442 M560.309 263.683 L560.309 278.475 L556.05 278.475 L556.05 274.539 Q554.592 276.9 552.416 278.035 Q550.24 279.146 547.092 279.146 Q543.11 279.146 540.749 276.924 Q538.411 274.678 538.411 270.928 Q538.411 266.553 541.328 264.331 Q544.268 262.109 550.078 262.109 L556.05 262.109 L556.05 261.692 Q556.05 258.752 554.105 257.155 Q552.184 255.535 548.689 255.535 Q546.467 255.535 544.36 256.067 Q542.254 256.6 540.309 257.664 L540.309 253.729 Q542.647 252.826 544.846 252.387 Q547.045 251.924 549.129 251.924 Q554.754 251.924 557.531 254.84 Q560.309 257.757 560.309 263.683 Z" fill="#000000" fill-rule="nonzero" fill-opacity="1" /><path clip-path="url(#clip750)" d="M590.633 252.549 L581.258 265.164 L591.119 278.475 L586.096 278.475 L578.55 268.289 L571.004 278.475 L565.98 278.475 L576.05 264.91 L566.837 252.549 L571.86 252.549 L578.735 261.785 L585.61 252.549 L590.633 252.549 Z" fill="#000000" fill-rule="nonzero" fill-opacity="1" /><path clip-path="url(#clip750)" d="M601.258 274.586 L601.258 288.336 L596.976 288.336 L596.976 252.549 L601.258 252.549 L601.258 256.484 Q602.601 254.169 604.638 253.058 Q606.698 251.924 609.545 251.924 Q614.267 251.924 617.207 255.674 Q620.17 259.424 620.17 265.535 Q620.17 271.646 617.207 275.396 Q614.267 279.146 609.545 279.146 Q606.698 279.146 604.638 278.035 Q602.601 276.9 601.258 274.586 M615.749 265.535 Q615.749 260.836 613.804 258.174 Q611.883 255.489 608.503 255.489 Q605.124 255.489 603.179 258.174 Q601.258 260.836 601.258 265.535 Q601.258 270.234 603.179 272.919 Q605.124 275.581 608.503 275.581 Q611.883 275.581 613.804 272.919 Q615.749 270.234 615.749 265.535 Z" fill="#000000" fill-rule="nonzero" fill-opacity="1" /><path clip-path="url(#clip750)" d="M638.017 280.882 Q636.212 285.512 634.499 286.924 Q632.786 288.336 629.915 288.336 L626.512 288.336 L626.512 284.771 L629.012 284.771 Q630.772 284.771 631.744 283.937 Q632.716 283.104 633.897 280.002 L634.661 278.058 L624.175 252.549 L628.688 252.549 L636.79 272.826 L644.892 252.549 L649.406 252.549 L638.017 280.882 Z" fill="#000000" fill-rule="nonzero" fill-opacity="1" /><path clip-path="url(#clip750)" d="M674.984 286.345 L674.984 289.655 L650.355 289.655 L650.355 286.345 L674.984 286.345 Z" fill="#000000" fill-rule="nonzero" fill-opacity="1" /><path clip-path="url(#clip750)" d="M689.035 255.535 Q685.609 255.535 683.619 258.22 Q681.628 260.882 681.628 265.535 Q681.628 270.188 683.596 272.873 Q685.586 275.535 689.035 275.535 Q692.438 275.535 694.429 272.85 Q696.42 270.164 696.42 265.535 Q696.42 260.928 694.429 258.243 Q692.438 255.535 689.035 255.535 M689.035 251.924 Q694.591 251.924 697.762 255.535 Q700.933 259.146 700.933 265.535 Q700.933 271.9 697.762 275.535 Q694.591 279.146 689.035 279.146 Q683.457 279.146 680.285 275.535 Q677.137 271.9 677.137 265.535 Q677.137 259.146 680.285 255.535 Q683.457 251.924 689.035 251.924 Z" fill="#000000" fill-rule="nonzero" fill-opacity="1" /><path clip-path="url(#clip750)" d="M728.179 257.526 Q729.776 254.655 731.998 253.289 Q734.22 251.924 737.229 251.924 Q741.28 251.924 743.479 254.771 Q745.679 257.595 745.679 262.826 L745.679 278.475 L741.396 278.475 L741.396 262.965 Q741.396 259.238 740.077 257.433 Q738.757 255.627 736.049 255.627 Q732.739 255.627 730.817 257.826 Q728.896 260.026 728.896 263.822 L728.896 278.475 L724.614 278.475 L724.614 262.965 Q724.614 259.215 723.294 257.433 Q721.975 255.627 719.22 255.627 Q715.956 255.627 714.035 257.85 Q712.114 260.049 712.114 263.822 L712.114 278.475 L707.831 278.475 L707.831 252.549 L712.114 252.549 L712.114 256.576 Q713.572 254.192 715.609 253.058 Q717.646 251.924 720.447 251.924 Q723.271 251.924 725.239 253.359 Q727.23 254.794 728.179 257.526 Z" fill="#000000" fill-rule="nonzero" fill-opacity="1" /><path clip-path="url(#clip750)" d="M758.294 274.586 L758.294 288.336 L754.012 288.336 L754.012 252.549 L758.294 252.549 L758.294 256.484 Q759.637 254.169 761.674 253.058 Q763.734 251.924 766.581 251.924 Q771.303 251.924 774.243 255.674 Q777.206 259.424 777.206 265.535 Q777.206 271.646 774.243 275.396 Q771.303 279.146 766.581 279.146 Q763.734 279.146 761.674 278.035 Q759.637 276.9 758.294 274.586 M772.785 265.535 Q772.785 260.836 770.84 258.174 Q768.919 255.489 765.54 255.489 Q762.16 255.489 760.215 258.174 Q758.294 260.836 758.294 265.535 Q758.294 270.234 760.215 272.919 Q762.16 275.581 765.54 275.581 Q768.919 275.581 770.84 272.919 Q772.785 270.234 772.785 265.535 Z" fill="#000000" fill-rule="nonzero" fill-opacity="1" /><polyline clip-path="url(#clip750)" style="stroke:#c271d2; stroke-linecap:round; stroke-linejoin:round; stroke-width:4; stroke-opacity:1; fill:none" points="342.203,313.035 510.381,313.035 "/>
<circle clip-path="url(#clip750)" cx="426.292" cy="313.035" r="20.48" fill="#c271d2" fill-rule="evenodd" fill-opacity="1" stroke="#000000" stroke-opacity="1" stroke-width="5.68889"/>
<path clip-path="url(#clip750)" d="M551.814 317.282 Q546.652 317.282 544.661 318.463 Q542.67 319.643 542.67 322.49 Q542.67 324.759 544.152 326.102 Q545.656 327.421 548.226 327.421 Q551.768 327.421 553.897 324.921 Q556.05 322.398 556.05 318.231 L556.05 317.282 L551.814 317.282 M560.309 315.523 L560.309 330.315 L556.05 330.315 L556.05 326.379 Q554.592 328.74 552.416 329.875 Q550.24 330.986 547.092 330.986 Q543.11 330.986 540.749 328.764 Q538.411 326.518 538.411 322.768 Q538.411 318.393 541.328 316.171 Q544.268 313.949 550.078 313.949 L556.05 313.949 L556.05 313.532 Q556.05 310.592 554.105 308.995 Q552.184 307.375 548.689 307.375 Q546.467 307.375 544.36 307.907 Q542.254 308.44 540.309 309.504 L540.309 305.569 Q542.647 304.666 544.846 304.227 Q547.045 303.764 549.129 303.764 Q554.754 303.764 557.531 306.68 Q560.309 309.597 560.309 315.523 Z" fill="#000000" fill-rule="nonzero" fill-opacity="1" /><path clip-path="url(#clip750)" d="M590.633 304.389 L581.258 317.004 L591.119 330.315 L586.096 330.315 L578.55 320.129 L571.004 330.315 L565.98 330.315 L576.05 316.75 L566.837 304.389 L571.86 304.389 L578.735 313.625 L585.61 304.389 L590.633 304.389 Z" fill="#000000" fill-rule="nonzero" fill-opacity="1" /><path clip-path="url(#clip750)" d="M601.258 326.426 L601.258 340.176 L596.976 340.176 L596.976 304.389 L601.258 304.389 L601.258 308.324 Q602.601 306.009 604.638 304.898 Q606.698 303.764 609.545 303.764 Q614.267 303.764 617.207 307.514 Q620.17 311.264 620.17 317.375 Q620.17 323.486 617.207 327.236 Q614.267 330.986 609.545 330.986 Q606.698 330.986 604.638 329.875 Q602.601 328.74 601.258 326.426 M615.749 317.375 Q615.749 312.676 613.804 310.014 Q611.883 307.329 608.503 307.329 Q605.124 307.329 603.179 310.014 Q601.258 312.676 601.258 317.375 Q601.258 322.074 603.179 324.759 Q605.124 327.421 608.503 327.421 Q611.883 327.421 613.804 324.759 Q615.749 322.074 615.749 317.375 Z" fill="#000000" fill-rule="nonzero" fill-opacity="1" /><path clip-path="url(#clip750)" d="M638.017 332.722 Q636.212 337.352 634.499 338.764 Q632.786 340.176 629.915 340.176 L626.512 340.176 L626.512 336.611 L629.012 336.611 Q630.772 336.611 631.744 335.777 Q632.716 334.944 633.897 331.842 L634.661 329.898 L624.175 304.389 L628.688 304.389 L636.79 324.666 L644.892 304.389 L649.406 304.389 L638.017 332.722 Z" fill="#000000" fill-rule="nonzero" fill-opacity="1" /><path clip-path="url(#clip750)" d="M674.984 338.185 L674.984 341.495 L650.355 341.495 L650.355 338.185 L674.984 338.185 Z" fill="#000000" fill-rule="nonzero" fill-opacity="1" /><path clip-path="url(#clip750)" d="M695.517 305.153 L695.517 309.18 Q693.711 308.254 691.767 307.791 Q689.822 307.329 687.739 307.329 Q684.568 307.329 682.971 308.301 Q681.396 309.273 681.396 311.217 Q681.396 312.699 682.531 313.555 Q683.665 314.389 687.091 315.153 L688.549 315.477 Q693.086 316.449 694.984 318.231 Q696.906 319.99 696.906 323.162 Q696.906 326.773 694.035 328.879 Q691.188 330.986 686.188 330.986 Q684.105 330.986 681.836 330.569 Q679.591 330.176 677.091 329.365 L677.091 324.967 Q679.452 326.194 681.744 326.819 Q684.035 327.421 686.281 327.421 Q689.29 327.421 690.91 326.402 Q692.531 325.361 692.531 323.486 Q692.531 321.75 691.35 320.824 Q690.193 319.898 686.234 319.041 L684.753 318.694 Q680.795 317.861 679.035 316.148 Q677.276 314.412 677.276 311.403 Q677.276 307.745 679.869 305.754 Q682.461 303.764 687.23 303.764 Q689.591 303.764 691.674 304.111 Q693.757 304.458 695.517 305.153 Z" fill="#000000" fill-rule="nonzero" fill-opacity="1" /><path clip-path="url(#clip750)" d="M707.901 297.028 L707.901 304.389 L716.674 304.389 L716.674 307.699 L707.901 307.699 L707.901 321.773 Q707.901 324.944 708.757 325.847 Q709.637 326.75 712.299 326.75 L716.674 326.75 L716.674 330.315 L712.299 330.315 Q707.369 330.315 705.494 328.486 Q703.619 326.634 703.619 321.773 L703.619 307.699 L700.494 307.699 L700.494 304.389 L703.619 304.389 L703.619 297.028 L707.901 297.028 Z" fill="#000000" fill-rule="nonzero" fill-opacity="1" /><path clip-path="url(#clip750)" d="M739.336 308.324 L739.336 294.296 L743.595 294.296 L743.595 330.315 L739.336 330.315 L739.336 326.426 Q737.993 328.74 735.933 329.875 Q733.896 330.986 731.026 330.986 Q726.327 330.986 723.364 327.236 Q720.424 323.486 720.424 317.375 Q720.424 311.264 723.364 307.514 Q726.327 303.764 731.026 303.764 Q733.896 303.764 735.933 304.898 Q737.993 306.009 739.336 308.324 M724.822 317.375 Q724.822 322.074 726.743 324.759 Q728.688 327.421 732.067 327.421 Q735.447 327.421 737.392 324.759 Q739.336 322.074 739.336 317.375 Q739.336 312.676 737.392 310.014 Q735.447 307.329 732.067 307.329 Q728.688 307.329 726.743 310.014 Q724.822 312.676 724.822 317.375 Z" fill="#000000" fill-rule="nonzero" fill-opacity="1" /><polyline clip-path="url(#clip750)" style="stroke:#ac8d18; stroke-linecap:round; stroke-linejoin:round; stroke-width:4; stroke-opacity:1; fill:none" points="342.203,364.875 510.381,364.875 "/>
<circle clip-path="url(#clip750)" cx="426.292" cy="364.875" r="20.48" fill="#ac8d18" fill-rule="evenodd" fill-opacity="1" stroke="#000000" stroke-opacity="1" stroke-width="5.68889"/>
<path clip-path="url(#clip750)" d="M551.814 369.122 Q546.652 369.122 544.661 370.303 Q542.67 371.483 542.67 374.33 Q542.67 376.599 544.152 377.942 Q545.656 379.261 548.226 379.261 Q551.768 379.261 553.897 376.761 Q556.05 374.238 556.05 370.071 L556.05 369.122 L551.814 369.122 M560.309 367.363 L560.309 382.155 L556.05 382.155 L556.05 378.219 Q554.592 380.58 552.416 381.715 Q550.24 382.826 547.092 382.826 Q543.11 382.826 540.749 380.604 Q538.411 378.358 538.411 374.608 Q538.411 370.233 541.328 368.011 Q544.268 365.789 550.078 365.789 L556.05 365.789 L556.05 365.372 Q556.05 362.432 554.105 360.835 Q552.184 359.215 548.689 359.215 Q546.467 359.215 544.36 359.747 Q542.254 360.28 540.309 361.344 L540.309 357.409 Q542.647 356.506 544.846 356.067 Q547.045 355.604 549.129 355.604 Q554.754 355.604 557.531 358.52 Q560.309 361.437 560.309 367.363 Z" fill="#000000" fill-rule="nonzero" fill-opacity="1" /><path clip-path="url(#clip750)" d="M590.633 356.229 L581.258 368.844 L591.119 382.155 L586.096 382.155 L578.55 371.969 L571.004 382.155 L565.98 382.155 L576.05 368.59 L566.837 356.229 L571.86 356.229 L578.735 365.465 L585.61 356.229 L590.633 356.229 Z" fill="#000000" fill-rule="nonzero" fill-opacity="1" /><path clip-path="url(#clip750)" d="M601.258 378.266 L601.258 392.016 L596.976 392.016 L596.976 356.229 L601.258 356.229 L601.258 360.164 Q602.601 357.849 604.638 356.738 Q606.698 355.604 609.545 355.604 Q614.267 355.604 617.207 359.354 Q620.17 363.104 620.17 369.215 Q620.17 375.326 617.207 379.076 Q614.267 382.826 609.545 382.826 Q606.698 382.826 604.638 381.715 Q602.601 380.58 601.258 378.266 M615.749 369.215 Q615.749 364.516 613.804 361.854 Q611.883 359.169 608.503 359.169 Q605.124 359.169 603.179 361.854 Q601.258 364.516 601.258 369.215 Q601.258 373.914 603.179 376.599 Q605.124 379.261 608.503 379.261 Q611.883 379.261 613.804 376.599 Q615.749 373.914 615.749 369.215 Z" fill="#000000" fill-rule="nonzero" fill-opacity="1" /><path clip-path="url(#clip750)" d="M638.017 384.562 Q636.212 389.192 634.499 390.604 Q632.786 392.016 629.915 392.016 L626.512 392.016 L626.512 388.451 L629.012 388.451 Q630.772 388.451 631.744 387.617 Q632.716 386.784 633.897 383.682 L634.661 381.738 L624.175 356.229 L628.688 356.229 L636.79 376.506 L644.892 356.229 L649.406 356.229 L638.017 384.562 Z" fill="#000000" fill-rule="nonzero" fill-opacity="1" /><path clip-path="url(#clip750)" d="M674.984 390.025 L674.984 393.335 L650.355 393.335 L650.355 390.025 L674.984 390.025 Z" fill="#000000" fill-rule="nonzero" fill-opacity="1" /><path clip-path="url(#clip750)" d="M683.202 348.868 L683.202 356.229 L691.975 356.229 L691.975 359.539 L683.202 359.539 L683.202 373.613 Q683.202 376.784 684.058 377.687 Q684.938 378.59 687.6 378.59 L691.975 378.59 L691.975 382.155 L687.6 382.155 Q682.67 382.155 680.795 380.326 Q678.92 378.474 678.92 373.613 L678.92 359.539 L675.795 359.539 L675.795 356.229 L678.92 356.229 L678.92 348.868 L683.202 348.868 Z" fill="#000000" fill-rule="nonzero" fill-opacity="1" /><path clip-path="url(#clip750)" d="M716.188 369.215 Q716.188 364.516 714.243 361.854 Q712.322 359.169 708.943 359.169 Q705.563 359.169 703.619 361.854 Q701.697 364.516 701.697 369.215 Q701.697 373.914 703.619 376.599 Q705.563 379.261 708.943 379.261 Q712.322 379.261 714.243 376.599 Q716.188 373.914 716.188 369.215 M701.697 360.164 Q703.04 357.849 705.077 356.738 Q707.137 355.604 709.984 355.604 Q714.706 355.604 717.646 359.354 Q720.609 363.104 720.609 369.215 Q720.609 375.326 717.646 379.076 Q714.706 382.826 709.984 382.826 Q707.137 382.826 705.077 381.715 Q703.04 380.58 701.697 378.266 L701.697 382.155 L697.415 382.155 L697.415 346.136 L701.697 346.136 L701.697 360.164 Z" fill="#000000" fill-rule="nonzero" fill-opacity="1" /><path clip-path="url(#clip750)" d="M746.28 369.215 Q746.28 364.516 744.336 361.854 Q742.415 359.169 739.035 359.169 Q735.655 359.169 733.711 361.854 Q731.79 364.516 731.79 369.215 Q731.79 373.914 733.711 376.599 Q735.655 379.261 739.035 379.261 Q742.415 379.261 744.336 376.599 Q746.28 373.914 746.28 369.215 M731.79 360.164 Q733.132 357.849 735.169 356.738 Q737.229 355.604 740.077 355.604 Q744.799 355.604 747.739 359.354 Q750.702 363.104 750.702 369.215 Q750.702 375.326 747.739 379.076 Q744.799 382.826 740.077 382.826 Q737.229 382.826 735.169 381.715 Q733.132 380.58 731.79 378.266 L731.79 382.155 L727.507 382.155 L727.507 346.136 L731.79 346.136 L731.79 360.164 Z" fill="#000000" fill-rule="nonzero" fill-opacity="1" /><polyline clip-path="url(#clip750)" style="stroke:#00a9ad; stroke-linecap:round; stroke-linejoin:round; stroke-width:4; stroke-opacity:1; fill:none" points="342.203,416.715 510.381,416.715 "/>
<circle clip-path="url(#clip750)" cx="426.292" cy="416.715" r="20.48" fill="#00a9ad" fill-rule="evenodd" fill-opacity="1" stroke="#000000" stroke-opacity="1" stroke-width="5.68889"/>
<path clip-path="url(#clip750)" d="M551.814 420.962 Q546.652 420.962 544.661 422.143 Q542.67 423.323 542.67 426.17 Q542.67 428.439 544.152 429.782 Q545.656 431.101 548.226 431.101 Q551.768 431.101 553.897 428.601 Q556.05 426.078 556.05 421.911 L556.05 420.962 L551.814 420.962 M560.309 419.203 L560.309 433.995 L556.05 433.995 L556.05 430.059 Q554.592 432.42 552.416 433.555 Q550.24 434.666 547.092 434.666 Q543.11 434.666 540.749 432.444 Q538.411 430.198 538.411 426.448 Q538.411 422.073 541.328 419.851 Q544.268 417.629 550.078 417.629 L556.05 417.629 L556.05 417.212 Q556.05 414.272 554.105 412.675 Q552.184 411.055 548.689 411.055 Q546.467 411.055 544.36 411.587 Q542.254 412.12 540.309 413.184 L540.309 409.249 Q542.647 408.346 544.846 407.907 Q547.045 407.444 549.129 407.444 Q554.754 407.444 557.531 410.36 Q560.309 413.277 560.309 419.203 Z" fill="#000000" fill-rule="nonzero" fill-opacity="1" /><path clip-path="url(#clip750)" d="M590.633 408.069 L581.258 420.684 L591.119 433.995 L586.096 433.995 L578.55 423.809 L571.004 433.995 L565.98 433.995 L576.05 420.43 L566.837 408.069 L571.86 408.069 L578.735 417.305 L585.61 408.069 L590.633 408.069 Z" fill="#000000" fill-rule="nonzero" fill-opacity="1" /><path clip-path="url(#clip750)" d="M601.258 430.106 L601.258 443.856 L596.976 443.856 L596.976 408.069 L601.258 408.069 L601.258 412.004 Q602.601 409.689 604.638 408.578 Q606.698 407.444 609.545 407.444 Q614.267 407.444 617.207 411.194 Q620.17 414.944 620.17 421.055 Q620.17 427.166 617.207 430.916 Q614.267 434.666 609.545 434.666 Q606.698 434.666 604.638 433.555 Q602.601 432.42 601.258 430.106 M615.749 421.055 Q615.749 416.356 613.804 413.694 Q611.883 411.009 608.503 411.009 Q605.124 411.009 603.179 413.694 Q601.258 416.356 601.258 421.055 Q601.258 425.754 603.179 428.439 Q605.124 431.101 608.503 431.101 Q611.883 431.101 613.804 428.439 Q615.749 425.754 615.749 421.055 Z" fill="#000000" fill-rule="nonzero" fill-opacity="1" /><path clip-path="url(#clip750)" d="M638.017 436.402 Q636.212 441.032 634.499 442.444 Q632.786 443.856 629.915 443.856 L626.512 443.856 L626.512 440.291 L629.012 440.291 Q630.772 440.291 631.744 439.457 Q632.716 438.624 633.897 435.522 L634.661 433.578 L624.175 408.069 L628.688 408.069 L636.79 428.346 L644.892 408.069 L649.406 408.069 L638.017 436.402 Z" fill="#000000" fill-rule="nonzero" fill-opacity="1" /><path clip-path="url(#clip750)" d="M674.984 441.865 L674.984 445.175 L650.355 445.175 L650.355 441.865 L674.984 441.865 Z" fill="#000000" fill-rule="nonzero" fill-opacity="1" /><path clip-path="url(#clip750)" d="M700.54 408.069 L691.165 420.684 L701.026 433.995 L696.003 433.995 L688.457 423.809 L680.91 433.995 L675.887 433.995 L685.957 420.43 L676.744 408.069 L681.767 408.069 L688.642 417.305 L695.517 408.069 L700.54 408.069 Z" fill="#000000" fill-rule="nonzero" fill-opacity="1" /><path clip-path="url(#clip750)" d="M723.572 408.833 L723.572 412.86 Q721.767 411.934 719.822 411.471 Q717.878 411.009 715.794 411.009 Q712.623 411.009 711.026 411.981 Q709.452 412.953 709.452 414.897 Q709.452 416.379 710.586 417.235 Q711.72 418.069 715.146 418.833 L716.605 419.157 Q721.142 420.129 723.04 421.911 Q724.961 423.67 724.961 426.842 Q724.961 430.453 722.091 432.559 Q719.243 434.666 714.243 434.666 Q712.16 434.666 709.892 434.249 Q707.646 433.856 705.146 433.045 L705.146 428.647 Q707.507 429.874 709.799 430.499 Q712.091 431.101 714.336 431.101 Q717.345 431.101 718.966 430.082 Q720.586 429.041 720.586 427.166 Q720.586 425.43 719.406 424.504 Q718.248 423.578 714.29 422.721 L712.808 422.374 Q708.85 421.541 707.091 419.828 Q705.332 418.092 705.332 415.083 Q705.332 411.425 707.924 409.434 Q710.517 407.444 715.285 407.444 Q717.646 407.444 719.73 407.791 Q721.813 408.138 723.572 408.833 Z" fill="#000000" fill-rule="nonzero" fill-opacity="1" /><path clip-path="url(#clip750)" d="M731.743 408.069 L736.003 408.069 L736.003 433.995 L731.743 433.995 L731.743 408.069 M731.743 397.976 L736.003 397.976 L736.003 403.37 L731.743 403.37 L731.743 397.976 Z" fill="#000000" fill-rule="nonzero" fill-opacity="1" /><path clip-path="url(#clip750)" d="M765.1 413.046 Q766.697 410.175 768.919 408.809 Q771.141 407.444 774.151 407.444 Q778.201 407.444 780.401 410.291 Q782.6 413.115 782.6 418.346 L782.6 433.995 L778.317 433.995 L778.317 418.485 Q778.317 414.758 776.998 412.953 Q775.678 411.147 772.97 411.147 Q769.66 411.147 767.739 413.346 Q765.817 415.546 765.817 419.342 L765.817 433.995 L761.535 433.995 L761.535 418.485 Q761.535 414.735 760.215 412.953 Q758.896 411.147 756.141 411.147 Q752.878 411.147 750.956 413.37 Q749.035 415.569 749.035 419.342 L749.035 433.995 L744.753 433.995 L744.753 408.069 L749.035 408.069 L749.035 412.096 Q750.493 409.712 752.53 408.578 Q754.567 407.444 757.368 407.444 Q760.192 407.444 762.16 408.879 Q764.151 410.314 765.1 413.046 Z" fill="#000000" fill-rule="nonzero" fill-opacity="1" /><path clip-path="url(#clip750)" d="M808.155 412.004 L808.155 397.976 L812.414 397.976 L812.414 433.995 L808.155 433.995 L808.155 430.106 Q806.812 432.42 804.752 433.555 Q802.715 434.666 799.845 434.666 Q795.146 434.666 792.183 430.916 Q789.243 427.166 789.243 421.055 Q789.243 414.944 792.183 411.194 Q795.146 407.444 799.845 407.444 Q802.715 407.444 804.752 408.578 Q806.812 409.689 808.155 412.004 M793.641 421.055 Q793.641 425.754 795.563 428.439 Q797.507 431.101 800.887 431.101 Q804.266 431.101 806.211 428.439 Q808.155 425.754 808.155 421.055 Q808.155 416.356 806.211 413.694 Q804.266 411.009 800.887 411.009 Q797.507 411.009 795.563 413.694 Q793.641 416.356 793.641 421.055 Z" fill="#000000" fill-rule="nonzero" fill-opacity="1" /></svg>
